%TF.GenerationSoftware,KiCad,Pcbnew,10.0.6-1.fc44*%
%TF.CreationDate,2026-09-08T20:31:03+05:30*%
%TF.ProjectId,ESP32-S3_Dev_Board,45535033-322d-4533-935f-4465765f426f,v1.0*%
%TF.SameCoordinates,Original*%
%TF.FileFunction,Soldermask,Bot*%
%TF.FilePolarity,Negative*%
%FSLAX46Y46*%
G04 Gerber Fmt 4.6, Leading zero omitted, Abs format (unit mm)*
G04 Created by KiCad (PCBNEW 10.0.6-1.fc44) date 2026-09-08 20:31:03*
%MOMM*%
%LPD*%
G01*
G04 APERTURE LIST*
%ADD10R,1.700000X1.700000*%
%ADD11C,1.700000*%
%ADD12C,0.650000*%
%ADD13O,2.100000X1.000000*%
%ADD14O,1.600000X1.000000*%
%ADD15C,1.000000*%
G04 APERTURE END LIST*
D10*
%TO.C,J3*%
X155900000Y-77140000D03*
D11*
X153360000Y-77140000D03*
X150820000Y-77140000D03*
X148280000Y-77140000D03*
X145740000Y-77140000D03*
X143200000Y-77140000D03*
X140660000Y-77140000D03*
X138120000Y-77140000D03*
X135580000Y-77140000D03*
X133040000Y-77140000D03*
X130500000Y-77140000D03*
X127960000Y-77140000D03*
X125420000Y-77140000D03*
X122880000Y-77140000D03*
X120340000Y-77140000D03*
X117800000Y-77140000D03*
X115260000Y-77140000D03*
X112720000Y-77140000D03*
X110180000Y-77140000D03*
X107640000Y-77140000D03*
X105100000Y-77140000D03*
X102560000Y-77140000D03*
X100020000Y-77140000D03*
%TD*%
D12*
%TO.C,J1*%
X92350000Y-93240000D03*
X92350000Y-99020000D03*
D13*
X92850000Y-91810000D03*
D14*
X88670000Y-91810000D03*
D13*
X92850000Y-100450000D03*
D14*
X88670000Y-100450000D03*
%TD*%
D10*
%TO.C,J4*%
X100000000Y-100000000D03*
D11*
X102540000Y-100000000D03*
X105080000Y-100000000D03*
X107620000Y-100000000D03*
X110160000Y-100000000D03*
X112700000Y-100000000D03*
X115240000Y-100000000D03*
X117780000Y-100000000D03*
X120320000Y-100000000D03*
X122860000Y-100000000D03*
X125400000Y-100000000D03*
X127940000Y-100000000D03*
X130480000Y-100000000D03*
X133020000Y-100000000D03*
X135560000Y-100000000D03*
X138100000Y-100000000D03*
X140640000Y-100000000D03*
X143180000Y-100000000D03*
X145720000Y-100000000D03*
X148260000Y-100000000D03*
X150800000Y-100000000D03*
X153340000Y-100000000D03*
X155880000Y-100000000D03*
%TD*%
D12*
%TO.C,J2*%
X92355000Y-78110000D03*
X92355000Y-83890000D03*
D13*
X92855000Y-76680000D03*
D14*
X88675000Y-76680000D03*
D13*
X92855000Y-85320000D03*
D14*
X88675000Y-85320000D03*
%TD*%
D15*
%TO.C,TP4*%
X154450000Y-91870000D03*
%TD*%
%TO.C,TP3*%
X154450000Y-89330000D03*
%TD*%
%TO.C,TP1*%
X154450000Y-84250000D03*
%TD*%
%TO.C,TP2*%
X154450000Y-86790000D03*
%TD*%
M02*
