%TF.GenerationSoftware,KiCad,Pcbnew,10.0.6-1.fc44*%
%TF.CreationDate,2026-09-08T20:31:03+05:30*%
%TF.ProjectId,ESP32-S3_Dev_Board,45535033-322d-4533-935f-4465765f426f,v1.0*%
%TF.SameCoordinates,Original*%
%TF.FileFunction,Paste,Top*%
%TF.FilePolarity,Positive*%
%FSLAX46Y46*%
G04 Gerber Fmt 4.6, Leading zero omitted, Abs format (unit mm)*
G04 Created by KiCad (PCBNEW 10.0.6-1.fc44) date 2026-09-08 20:31:03*
%MOMM*%
%LPD*%
G01*
G04 APERTURE LIST*
G04 Aperture macros list*
%AMRoundRect*
0 Rectangle with rounded corners*
0 $1 Rounding radius*
0 $2 $3 $4 $5 $6 $7 $8 $9 X,Y pos of 4 corners*
0 Add a 4 corners polygon primitive as box body*
4,1,4,$2,$3,$4,$5,$6,$7,$8,$9,$2,$3,0*
0 Add four circle primitives for the rounded corners*
1,1,$1+$1,$2,$3*
1,1,$1+$1,$4,$5*
1,1,$1+$1,$6,$7*
1,1,$1+$1,$8,$9*
0 Add four rect primitives between the rounded corners*
20,1,$1+$1,$2,$3,$4,$5,0*
20,1,$1+$1,$4,$5,$6,$7,0*
20,1,$1+$1,$6,$7,$8,$9,0*
20,1,$1+$1,$8,$9,$2,$3,0*%
%AMOutline5P*
0 Free polygon, 5 corners , with rotation*
0 The origin of the aperture is its center*
0 number of corners: always 5*
0 $1 to $10 corner X, Y*
0 $11 Rotation angle, in degrees counterclockwise*
0 create outline with 5 corners*
4,1,5,$1,$2,$3,$4,$5,$6,$7,$8,$9,$10,$1,$2,$11*%
%AMOutline6P*
0 Free polygon, 6 corners , with rotation*
0 The origin of the aperture is its center*
0 number of corners: always 6*
0 $1 to $12 corner X, Y*
0 $13 Rotation angle, in degrees counterclockwise*
0 create outline with 6 corners*
4,1,6,$1,$2,$3,$4,$5,$6,$7,$8,$9,$10,$11,$12,$1,$2,$13*%
%AMOutline7P*
0 Free polygon, 7 corners , with rotation*
0 The origin of the aperture is its center*
0 number of corners: always 7*
0 $1 to $14 corner X, Y*
0 $15 Rotation angle, in degrees counterclockwise*
0 create outline with 7 corners*
4,1,7,$1,$2,$3,$4,$5,$6,$7,$8,$9,$10,$11,$12,$13,$14,$1,$2,$15*%
%AMOutline8P*
0 Free polygon, 8 corners , with rotation*
0 The origin of the aperture is its center*
0 number of corners: always 8*
0 $1 to $16 corner X, Y*
0 $17 Rotation angle, in degrees counterclockwise*
0 create outline with 8 corners*
4,1,8,$1,$2,$3,$4,$5,$6,$7,$8,$9,$10,$11,$12,$13,$14,$15,$16,$1,$2,$17*%
G04 Aperture macros list end*
%ADD10RoundRect,0.250001X1.074999X-0.462499X1.074999X0.462499X-1.074999X0.462499X-1.074999X-0.462499X0*%
%ADD11RoundRect,0.160000X-0.160000X0.222500X-0.160000X-0.222500X0.160000X-0.222500X0.160000X0.222500X0*%
%ADD12RoundRect,0.160000X0.160000X-0.197500X0.160000X0.197500X-0.160000X0.197500X-0.160000X-0.197500X0*%
%ADD13RoundRect,0.155000X-0.155000X0.212500X-0.155000X-0.212500X0.155000X-0.212500X0.155000X0.212500X0*%
%ADD14RoundRect,0.160000X0.222500X0.160000X-0.222500X0.160000X-0.222500X-0.160000X0.222500X-0.160000X0*%
%ADD15RoundRect,0.160000X0.197500X0.160000X-0.197500X0.160000X-0.197500X-0.160000X0.197500X-0.160000X0*%
%ADD16RoundRect,0.155000X0.155000X-0.212500X0.155000X0.212500X-0.155000X0.212500X-0.155000X-0.212500X0*%
%ADD17R,1.050000X0.650000*%
%ADD18RoundRect,0.250001X0.462499X0.624999X-0.462499X0.624999X-0.462499X-0.624999X0.462499X-0.624999X0*%
%ADD19RoundRect,0.160000X-0.197500X-0.160000X0.197500X-0.160000X0.197500X0.160000X-0.197500X0.160000X0*%
%ADD20RoundRect,0.155000X-0.212500X-0.155000X0.212500X-0.155000X0.212500X0.155000X-0.212500X0.155000X0*%
%ADD21R,1.600000X0.850000*%
%ADD22R,0.400000X0.800000*%
%ADD23R,0.800000X0.400000*%
%ADD24Outline5P,-0.600000X0.204000X-0.204000X0.600000X0.600000X0.600000X0.600000X-0.600000X-0.600000X-0.600000X270.000000*%
%ADD25R,1.200000X1.200000*%
%ADD26R,0.800000X0.800000*%
%ADD27RoundRect,0.375000X0.625000X0.375000X-0.625000X0.375000X-0.625000X-0.375000X0.625000X-0.375000X0*%
%ADD28RoundRect,0.500000X0.500000X1.400000X-0.500000X1.400000X-0.500000X-1.400000X0.500000X-1.400000X0*%
%ADD29RoundRect,0.150000X-0.500000X0.150000X-0.500000X-0.150000X0.500000X-0.150000X0.500000X0.150000X0*%
%ADD30RoundRect,0.075000X-0.575000X0.075000X-0.575000X-0.075000X0.575000X-0.075000X0.575000X0.075000X0*%
%ADD31RoundRect,0.125000X0.125000X0.125000X-0.125000X0.125000X-0.125000X-0.125000X0.125000X-0.125000X0*%
%ADD32RoundRect,0.250000X0.275000X-0.275000X0.275000X0.275000X-0.275000X0.275000X-0.275000X-0.275000X0*%
%ADD33RoundRect,0.062500X0.062500X-0.350000X0.062500X0.350000X-0.062500X0.350000X-0.062500X-0.350000X0*%
%ADD34RoundRect,0.062500X0.350000X-0.062500X0.350000X0.062500X-0.350000X0.062500X-0.350000X-0.062500X0*%
%ADD35RoundRect,0.160000X-0.160000X0.197500X-0.160000X-0.197500X0.160000X-0.197500X0.160000X0.197500X0*%
%ADD36RoundRect,0.155000X0.212500X0.155000X-0.212500X0.155000X-0.212500X-0.155000X0.212500X-0.155000X0*%
%ADD37RoundRect,0.375000X-0.625000X-0.375000X0.625000X-0.375000X0.625000X0.375000X-0.625000X0.375000X0*%
%ADD38RoundRect,0.500000X-0.500000X-1.400000X0.500000X-1.400000X0.500000X1.400000X-0.500000X1.400000X0*%
G04 APERTURE END LIST*
D10*
%TO.C,F1*%
X123550000Y-93775000D03*
X123550000Y-90800000D03*
%TD*%
D11*
%TO.C,D6*%
X96050000Y-77455000D03*
X96050000Y-78600000D03*
%TD*%
D12*
%TO.C,R4*%
X105000000Y-91445000D03*
X105000000Y-90250000D03*
%TD*%
D13*
%TO.C,C5*%
X102300000Y-89950000D03*
X102300000Y-91085000D03*
%TD*%
D14*
%TO.C,D2*%
X97245000Y-82350000D03*
X96100000Y-82350000D03*
%TD*%
D15*
%TO.C,R3*%
X106245000Y-89150000D03*
X105050000Y-89150000D03*
%TD*%
D11*
%TO.C,D12*%
X96000000Y-92150000D03*
X96000000Y-93295000D03*
%TD*%
D14*
%TO.C,D8*%
X97195000Y-96850000D03*
X96050000Y-96850000D03*
%TD*%
D16*
%TO.C,C9*%
X120650000Y-85085000D03*
X120650000Y-83950000D03*
%TD*%
D17*
%TO.C,SW2*%
X134550000Y-94950000D03*
X138700000Y-94950000D03*
X134550000Y-97100000D03*
X138675000Y-97100000D03*
%TD*%
D18*
%TO.C,D13*%
X138500000Y-86300000D03*
X135525000Y-86300000D03*
%TD*%
D14*
%TO.C,D3*%
X97250000Y-81200000D03*
X96105000Y-81200000D03*
%TD*%
D19*
%TO.C,R8*%
X101950000Y-94500000D03*
X103145000Y-94500000D03*
%TD*%
%TO.C,R7*%
X101955000Y-97550000D03*
X103150000Y-97550000D03*
%TD*%
D20*
%TO.C,C1*%
X154215000Y-79550000D03*
X155350000Y-79550000D03*
%TD*%
D14*
%TO.C,D10*%
X97200000Y-98100000D03*
X96055000Y-98100000D03*
%TD*%
D21*
%TO.C,D14*%
X134900000Y-89850000D03*
X134900000Y-91600000D03*
X138400000Y-91600000D03*
X138400000Y-89850000D03*
%TD*%
D17*
%TO.C,SW1*%
X138500000Y-82300000D03*
X134350000Y-82300000D03*
X138500000Y-80150000D03*
X134375000Y-80150000D03*
%TD*%
D19*
%TO.C,R1*%
X151855000Y-97350000D03*
X153050000Y-97350000D03*
%TD*%
D22*
%TO.C,U1*%
X155900000Y-81500000D03*
X155050000Y-81500000D03*
X154200000Y-81500000D03*
X153350000Y-81500000D03*
X152500000Y-81500000D03*
X151650000Y-81500000D03*
X150800000Y-81500000D03*
X149950000Y-81500000D03*
X149100000Y-81500000D03*
X148250000Y-81500000D03*
X147400000Y-81500000D03*
X146550000Y-81500000D03*
X145700000Y-81500000D03*
X144850000Y-81500000D03*
X144000000Y-81500000D03*
D23*
X142950000Y-82550000D03*
X142950000Y-83400000D03*
X142950000Y-84250000D03*
X142950000Y-85100000D03*
X142950000Y-85950000D03*
X142950000Y-86800000D03*
X142950000Y-87650000D03*
X142950000Y-88500000D03*
X142950000Y-89350000D03*
X142950000Y-90200000D03*
X142950000Y-91050000D03*
X142950000Y-91900000D03*
X142950000Y-92750000D03*
X142950000Y-93600000D03*
X142950000Y-94450000D03*
D22*
X144000000Y-95500000D03*
X144850000Y-95500000D03*
X145700000Y-95500000D03*
X146550000Y-95500000D03*
X147400000Y-95500000D03*
X148250000Y-95500000D03*
X149100000Y-95500000D03*
X149950000Y-95500000D03*
X150800000Y-95500000D03*
X151650000Y-95500000D03*
X152500000Y-95500000D03*
X153350000Y-95500000D03*
X154200000Y-95500000D03*
X155050000Y-95500000D03*
X155900000Y-95500000D03*
D23*
X156950000Y-94450000D03*
X156950000Y-93600000D03*
X156950000Y-92750000D03*
X156950000Y-91900000D03*
X156950000Y-91050000D03*
X156950000Y-90200000D03*
X156950000Y-89350000D03*
X156950000Y-88500000D03*
X156950000Y-87650000D03*
X156950000Y-86800000D03*
X156950000Y-85950000D03*
X156950000Y-85100000D03*
X156950000Y-84250000D03*
X156950000Y-83400000D03*
X156950000Y-82550000D03*
D24*
X151600000Y-86850000D03*
D25*
X149950000Y-86850000D03*
X148300000Y-86850000D03*
X151600000Y-88500000D03*
X149950000Y-88500000D03*
X148300000Y-88500000D03*
X151600000Y-90150000D03*
X149950000Y-90150000D03*
X148300000Y-90150000D03*
D26*
X156950000Y-81500000D03*
X142950000Y-81500000D03*
X142950000Y-95500000D03*
X156950000Y-95500000D03*
%TD*%
D14*
%TO.C,D5*%
X97250000Y-80000000D03*
X96105000Y-80000000D03*
%TD*%
D12*
%TO.C,R2*%
X102300000Y-88695000D03*
X102300000Y-87500000D03*
%TD*%
D14*
%TO.C,D4*%
X97250000Y-83600000D03*
X96105000Y-83600000D03*
%TD*%
D20*
%TO.C,C4*%
X105050000Y-88100000D03*
X106185000Y-88100000D03*
%TD*%
D27*
%TO.C,Q1*%
X116700000Y-86800000D03*
X116700000Y-84500000D03*
D28*
X110400000Y-84500000D03*
D27*
X116700000Y-82200000D03*
%TD*%
D29*
%TO.C,J1*%
X93490000Y-92930000D03*
X93490000Y-93730000D03*
D30*
X93490000Y-94880000D03*
X93490000Y-95880000D03*
X93490000Y-96380000D03*
X93490000Y-97380000D03*
D29*
X93490000Y-98530000D03*
X93490000Y-99330000D03*
X93490000Y-99330000D03*
X93490000Y-98530000D03*
D30*
X93490000Y-97880000D03*
X93490000Y-96880000D03*
X93490000Y-95380000D03*
X93490000Y-94380000D03*
D29*
X93490000Y-93730000D03*
X93490000Y-92930000D03*
%TD*%
D14*
%TO.C,D11*%
X97200000Y-94500000D03*
X96055000Y-94500000D03*
%TD*%
D13*
%TO.C,C7*%
X106550000Y-92665000D03*
X106550000Y-93800000D03*
%TD*%
D19*
%TO.C,R6*%
X100850000Y-81650000D03*
X102045000Y-81650000D03*
%TD*%
D13*
%TO.C,C11*%
X128650000Y-89035000D03*
X128650000Y-90170000D03*
%TD*%
%TO.C,C10*%
X129850000Y-89050000D03*
X129850000Y-90185000D03*
%TD*%
D31*
%TO.C,D1*%
X103050000Y-80150000D03*
X100850000Y-80150000D03*
%TD*%
%TO.C,D7*%
X103150000Y-92650000D03*
X100950000Y-92650000D03*
%TD*%
D19*
%TO.C,R5*%
X100800000Y-83650000D03*
X101995000Y-83650000D03*
%TD*%
D20*
%TO.C,C3*%
X154165000Y-97350000D03*
X155300000Y-97350000D03*
%TD*%
D32*
%TO.C,U3*%
X98300000Y-88500000D03*
X99600000Y-88500000D03*
X98300000Y-87200000D03*
X99600000Y-87200000D03*
D33*
X97700000Y-89787500D03*
X98200000Y-89787500D03*
X98700000Y-89787500D03*
X99200000Y-89787500D03*
X99700000Y-89787500D03*
X100200000Y-89787500D03*
D34*
X100887500Y-89100000D03*
X100887500Y-88600000D03*
X100887500Y-88100000D03*
X100887500Y-87600000D03*
X100887500Y-87100000D03*
X100887500Y-86600000D03*
D33*
X100200000Y-85912500D03*
X99700000Y-85912500D03*
X99200000Y-85912500D03*
X98700000Y-85912500D03*
X98200000Y-85912500D03*
X97700000Y-85912500D03*
D34*
X97012500Y-86600000D03*
X97012500Y-87100000D03*
X97012500Y-87600000D03*
X97012500Y-88100000D03*
X97012500Y-88600000D03*
X97012500Y-89100000D03*
%TD*%
D35*
%TO.C,R10*%
X118700000Y-93055000D03*
X118700000Y-94250000D03*
%TD*%
D29*
%TO.C,J2*%
X93495000Y-77800000D03*
X93495000Y-78600000D03*
D30*
X93495000Y-79750000D03*
X93495000Y-80750000D03*
X93495000Y-81250000D03*
X93495000Y-82250000D03*
D29*
X93495000Y-83400000D03*
X93495000Y-84200000D03*
X93495000Y-84200000D03*
X93495000Y-83400000D03*
D30*
X93495000Y-82750000D03*
X93495000Y-81750000D03*
X93495000Y-80250000D03*
X93495000Y-79250000D03*
D29*
X93495000Y-78600000D03*
X93495000Y-77800000D03*
%TD*%
D13*
%TO.C,C6*%
X106100000Y-80150000D03*
X106100000Y-81285000D03*
%TD*%
D16*
%TO.C,C8*%
X119450000Y-85085000D03*
X119450000Y-83950000D03*
%TD*%
D27*
%TO.C,Q2*%
X116650000Y-94250000D03*
X116650000Y-91950000D03*
D28*
X110350000Y-91950000D03*
D27*
X116650000Y-89650000D03*
%TD*%
D14*
%TO.C,D9*%
X97200000Y-95700000D03*
X96055000Y-95700000D03*
%TD*%
D35*
%TO.C,R11*%
X127450000Y-89050000D03*
X127450000Y-90245000D03*
%TD*%
D36*
%TO.C,C2*%
X153085000Y-79550000D03*
X151950000Y-79550000D03*
%TD*%
D37*
%TO.C,U2*%
X123550000Y-82100000D03*
X123550000Y-84400000D03*
D38*
X129850000Y-84400000D03*
D37*
X123550000Y-86700000D03*
%TD*%
D12*
%TO.C,R9*%
X120250000Y-87995000D03*
X120250000Y-86800000D03*
%TD*%
M02*
