M48
; DRILL file KiCad 10.0.6-1.fc44 date 2026-09-08T20:30:46
; FORMAT={-:-/ absolute / metric / decimal}
; #@! TF.CreationDate,2026-09-08T20:30:46+05:30
; #@! TF.GenerationSoftware,Kicad,Pcbnew,10.0.6-1.fc44
; #@! TF.FileFunction,Plated,1,4,PTH
FMAT,2
METRIC
; #@! TA.AperFunction,Plated,PTH,ViaDrill
T1C0.300
; #@! TA.AperFunction,Plated,PTH,ComponentDrill
T2C0.600
; #@! TA.AperFunction,Plated,PTH,ComponentDrill
T3C1.000
%
G90
G05
T1
X93.49Y-92.93
X93.49Y-93.73
X93.495Y-77.8
X95.902Y-88.52
X95.95Y-87.35
X96.0Y-92.15
X96.0Y-93.295
X96.05Y-96.85
X97.195Y-96.85
X97.2Y-94.52
X97.2Y-98.1
X97.25Y-80.02
X97.25Y-81.2
X97.25Y-82.35
X97.25Y-83.6
X97.556Y-95.72
X98.679Y-92.075
X99.25Y-92.85
X100.05Y-95.85
X100.2Y-89.787
X101.989Y-82.83
X102.0Y-83.7
X102.045Y-81.65
X102.3Y-88.695
X102.3Y-89.95
X102.3Y-91.05
X102.643Y-82.37
X103.508Y-94.48
X106.1Y-80.15
X106.1Y-81.285
X106.185Y-88.1
X106.245Y-89.15
X106.55Y-92.665
X106.55Y-93.8
X107.0Y-85.5
X111.45Y-79.45
X116.75Y-82.2
X118.8Y-88.6
X119.45Y-85.085
X120.65Y-83.95
X120.65Y-85.085
X121.85Y-88.6
X121.97Y-86.0
X123.536Y-84.436
X123.55Y-82.1
X123.55Y-86.7
X123.55Y-90.8
X123.55Y-93.775
X126.1Y-90.25
X129.85Y-84.4
X129.85Y-90.2
X131.85Y-90.05
X133.2Y-88.575
X134.375Y-80.15
X134.55Y-94.95
X134.55Y-97.1
X134.9Y-91.6
X135.525Y-86.3
X138.45Y-90.0
X138.5Y-80.15
X138.5Y-82.35
X138.5Y-86.3
X138.7Y-94.95
X140.1Y-88.575
X140.1Y-89.425
X140.2Y-91.85
X142.95Y-94.45
X142.95Y-95.5
X147.4Y-95.5
X148.098Y-94.473
X148.19Y-95.628
X148.3Y-86.85
X148.3Y-88.55
X148.3Y-90.15
X148.85Y-94.2
X149.0Y-97.75
X149.05Y-96.952
X149.95Y-86.85
X149.95Y-88.45
X150.0Y-90.15
X150.25Y-94.05
X151.6Y-86.85
X151.6Y-88.5
X151.65Y-91.2
X151.85Y-97.35
X153.05Y-97.35
X153.35Y-81.5
X154.165Y-97.35
X154.2Y-81.5
X154.25Y-79.55
X154.45Y-84.25
X154.501Y-98.148
X155.35Y-79.55
X155.9Y-95.5
X156.9Y-81.5
X156.9Y-95.5
T3
X100.0Y-100.0
X100.02Y-77.14
X102.54Y-100.0
X102.56Y-77.14
X105.08Y-100.0
X105.1Y-77.14
X107.62Y-100.0
X107.64Y-77.14
X110.16Y-100.0
X110.18Y-77.14
X112.7Y-100.0
X112.72Y-77.14
X115.24Y-100.0
X115.26Y-77.14
X117.78Y-100.0
X117.8Y-77.14
X120.32Y-100.0
X120.34Y-77.14
X122.86Y-100.0
X122.88Y-77.14
X125.4Y-100.0
X125.42Y-77.14
X127.94Y-100.0
X127.96Y-77.14
X130.48Y-100.0
X130.5Y-77.14
X133.02Y-100.0
X133.04Y-77.14
X135.56Y-100.0
X135.58Y-77.14
X138.1Y-100.0
X138.12Y-77.14
X140.64Y-100.0
X140.66Y-77.14
X143.18Y-100.0
X143.2Y-77.14
X145.72Y-100.0
X145.74Y-77.14
X148.26Y-100.0
X148.28Y-77.14
X150.8Y-100.0
X150.82Y-77.14
X153.34Y-100.0
X153.36Y-77.14
X155.88Y-100.0
X155.9Y-77.14
T2
G00X88.97Y-91.81
M15
G01X88.37Y-91.81
M16
G05
G00X88.97Y-100.45
M15
G01X88.37Y-100.45
M16
G05
G00X88.975Y-76.68
M15
G01X88.375Y-76.68
M16
G05
G00X88.975Y-85.32
M15
G01X88.375Y-85.32
M16
G05
G00X93.4Y-91.81
M15
G01X92.3Y-91.81
M16
G05
G00X93.4Y-100.45
M15
G01X92.3Y-100.45
M16
G05
G00X93.405Y-76.68
M15
G01X92.305Y-76.68
M16
G05
G00X93.405Y-85.32
M15
G01X92.305Y-85.32
M16
G05
M30
