%TF.GenerationSoftware,KiCad,Pcbnew,10.0.6-1.fc44*%
%TF.CreationDate,2026-09-08T20:31:03+05:30*%
%TF.ProjectId,ESP32-S3_Dev_Board,45535033-322d-4533-935f-4465765f426f,v1.0*%
%TF.SameCoordinates,Original*%
%TF.FileFunction,Copper,L2,Inr*%
%TF.FilePolarity,Positive*%
%FSLAX46Y46*%
G04 Gerber Fmt 4.6, Leading zero omitted, Abs format (unit mm)*
G04 Created by KiCad (PCBNEW 10.0.6-1.fc44) date 2026-09-08 20:31:03*
%MOMM*%
%LPD*%
G01*
G04 APERTURE LIST*
%TA.AperFunction,ComponentPad*%
%ADD10R,1.700000X1.700000*%
%TD*%
%TA.AperFunction,ComponentPad*%
%ADD11C,1.700000*%
%TD*%
%TA.AperFunction,ComponentPad*%
%ADD12O,2.100000X1.000000*%
%TD*%
%TA.AperFunction,ComponentPad*%
%ADD13O,1.600000X1.000000*%
%TD*%
%TA.AperFunction,ViaPad*%
%ADD14C,0.600000*%
%TD*%
G04 APERTURE END LIST*
D10*
%TO.N,/GPIO_0*%
%TO.C,J3*%
X155900000Y-77140000D03*
D11*
%TO.N,/GPIO_1*%
X153360000Y-77140000D03*
%TO.N,/GPIO_2*%
X150820000Y-77140000D03*
%TO.N,/GPIO_3*%
X148280000Y-77140000D03*
%TO.N,/GPIO_4*%
X145740000Y-77140000D03*
%TO.N,/GPIO_5*%
X143200000Y-77140000D03*
%TO.N,/GPIO_6*%
X140660000Y-77140000D03*
%TO.N,/GPIO_7*%
X138120000Y-77140000D03*
%TO.N,/GPIO_8*%
X135580000Y-77140000D03*
%TO.N,/GPIO_9*%
X133040000Y-77140000D03*
%TO.N,/GPIO_10*%
X130500000Y-77140000D03*
%TO.N,/GPIO_11*%
X127960000Y-77140000D03*
%TO.N,/GPIO_12*%
X125420000Y-77140000D03*
%TO.N,/GPIO_13*%
X122880000Y-77140000D03*
%TO.N,/GPIO_14*%
X120340000Y-77140000D03*
%TO.N,/GPIO_15*%
X117800000Y-77140000D03*
%TO.N,/GPIO_16*%
X115260000Y-77140000D03*
%TO.N,/GPIO_17*%
X112720000Y-77140000D03*
%TO.N,/GPIO_18*%
X110180000Y-77140000D03*
%TO.N,+3V3*%
X107640000Y-77140000D03*
%TO.N,GND*%
X105100000Y-77140000D03*
%TO.N,+5V*%
X102560000Y-77140000D03*
%TO.N,GND*%
X100020000Y-77140000D03*
%TD*%
D12*
%TO.N,GND*%
%TO.C,J1*%
X92850000Y-91810000D03*
D13*
X88670000Y-91810000D03*
D12*
X92850000Y-100450000D03*
D13*
X88670000Y-100450000D03*
%TD*%
D10*
%TO.N,/GPIO_21*%
%TO.C,J4*%
X100000000Y-100000000D03*
D11*
%TO.N,/GPIO_26*%
X102540000Y-100000000D03*
%TO.N,/GPIO_33*%
X105080000Y-100000000D03*
%TO.N,/GPIO_34*%
X107620000Y-100000000D03*
%TO.N,/GPIO_35*%
X110160000Y-100000000D03*
%TO.N,/GPIO_36*%
X112700000Y-100000000D03*
%TO.N,/GPIO_37*%
X115240000Y-100000000D03*
%TO.N,/GPIO_38*%
X117780000Y-100000000D03*
%TO.N,/GPIO_39*%
X120320000Y-100000000D03*
%TO.N,/GPIO_40*%
X122860000Y-100000000D03*
%TO.N,/GPIO_41*%
X125400000Y-100000000D03*
%TO.N,/GPIO_42*%
X127940000Y-100000000D03*
%TO.N,/GPIO_45*%
X130480000Y-100000000D03*
%TO.N,/GPIO_46*%
X133020000Y-100000000D03*
%TO.N,/GPIO_47*%
X135560000Y-100000000D03*
%TO.N,/GPIO_48*%
X138100000Y-100000000D03*
%TO.N,/TXD*%
X140640000Y-100000000D03*
%TO.N,/RXD*%
X143180000Y-100000000D03*
%TO.N,/EN*%
X145720000Y-100000000D03*
%TO.N,+3V3*%
X148260000Y-100000000D03*
%TO.N,GND*%
X150800000Y-100000000D03*
%TO.N,+5V*%
X153340000Y-100000000D03*
%TO.N,GND*%
X155880000Y-100000000D03*
%TD*%
D12*
%TO.N,GND*%
%TO.C,J2*%
X92855000Y-76680000D03*
D13*
X88675000Y-76680000D03*
D12*
X92855000Y-85320000D03*
D13*
X88675000Y-85320000D03*
%TD*%
D14*
%TO.N,/USB_5V*%
X107000000Y-85500000D03*
X106550000Y-92665000D03*
X123550000Y-93775000D03*
X106100000Y-80150000D03*
%TO.N,+5V*%
X111450000Y-79450000D03*
X123550000Y-90800000D03*
X120650000Y-85085000D03*
X119450000Y-85085000D03*
X121850000Y-88600000D03*
X121970000Y-86000000D03*
X123550000Y-86700000D03*
%TO.N,GND*%
X97195000Y-96850000D03*
X97250000Y-80020000D03*
X97250000Y-81200000D03*
X148300000Y-90150000D03*
X149950000Y-86850000D03*
X151650000Y-91200000D03*
X120650000Y-83950000D03*
X138700000Y-94950000D03*
X151600000Y-86850000D03*
X97555635Y-95720001D03*
X138500000Y-86300000D03*
X93490000Y-92930000D03*
X106550000Y-93800000D03*
X106245000Y-89150000D03*
X151600000Y-88500000D03*
X97200000Y-98100000D03*
X149950000Y-88450000D03*
X156900000Y-95500000D03*
X123550000Y-82100000D03*
X106185000Y-88100000D03*
X103507817Y-94479999D03*
X97250000Y-82350000D03*
X156900000Y-81500000D03*
X102000000Y-83700000D03*
X148300000Y-86850000D03*
X150000000Y-90150000D03*
X102045000Y-81650000D03*
X97200000Y-94520000D03*
X93495000Y-77800000D03*
X96000000Y-92150000D03*
X142950000Y-95500000D03*
X106100000Y-81285000D03*
X155350000Y-79550000D03*
X102300000Y-91050000D03*
X134900000Y-91600000D03*
X148300000Y-88550000D03*
X97250000Y-83600000D03*
X138500000Y-82350000D03*
X129850000Y-90200000D03*
X154501106Y-98148246D03*
X134550000Y-94950000D03*
%TO.N,/GPIO_0*%
X138500000Y-80150000D03*
X118800000Y-88600000D03*
X153350000Y-81500000D03*
X134375000Y-80150000D03*
%TO.N,+3V3*%
X102300000Y-88695000D03*
X129850000Y-84400000D03*
X151850000Y-97350000D03*
X154250000Y-79550000D03*
X138450000Y-90000000D03*
X100200000Y-89787500D03*
X123536091Y-84436091D03*
X154200000Y-81500000D03*
X131850000Y-90050000D03*
X102300000Y-89950000D03*
%TO.N,/USB_UART_VBUS*%
X93490000Y-93730000D03*
X96000000Y-93295000D03*
%TO.N,/USB_OTG_DP*%
X140100000Y-89425000D03*
X101988869Y-82830000D03*
%TO.N,/USB_UART_DP*%
X98678520Y-92074811D03*
X96050000Y-96850000D03*
%TO.N,/EN*%
X155900000Y-95500000D03*
X154165000Y-97350000D03*
X126100000Y-90250000D03*
X134550000Y-97100000D03*
X116750000Y-82200000D03*
X153050000Y-97350000D03*
%TO.N,Net-(D13-A)*%
X135525000Y-86300000D03*
X133200000Y-88575000D03*
%TO.N,/USB_OTG_DN*%
X102643144Y-82369644D03*
X140100000Y-88575000D03*
%TO.N,/GPIO_48*%
X142950000Y-94450000D03*
X148850000Y-94200000D03*
X140200000Y-91850000D03*
%TO.N,/GPIO_47*%
X150250000Y-94050000D03*
%TO.N,/GPIO_39*%
X147400000Y-95500000D03*
%TO.N,/GPIO_40*%
X148189761Y-95627579D03*
%TO.N,/GPIO_41*%
X148098162Y-94473395D03*
%TO.N,/GPIO_42*%
X154450000Y-84250000D03*
%TO.N,/TXD*%
X149050488Y-96951595D03*
X95949998Y-87349998D03*
%TO.N,/RXD*%
X95901854Y-88520328D03*
X149000000Y-97750000D03*
%TO.N,/USB_UART_DN*%
X100050000Y-95850000D03*
X99250000Y-92850000D03*
%TD*%
%TA.AperFunction,Conductor*%
%TO.N,GND*%
G36*
X93100000Y-92810000D02*
G01*
X93123743Y-92833743D01*
X93157228Y-92895066D01*
X93152244Y-92964758D01*
X93110372Y-93020691D01*
X93104953Y-93024526D01*
X93018349Y-93082393D01*
X92951671Y-93103271D01*
X92884291Y-93084786D01*
X92842071Y-93041291D01*
X92770507Y-92917338D01*
X92770503Y-92917333D01*
X92672664Y-92819494D01*
X92661999Y-92813337D01*
X92613784Y-92762769D01*
X92600000Y-92705950D01*
X92600000Y-92110000D01*
X93100000Y-92110000D01*
X93100000Y-92810000D01*
G37*
%TD.AperFunction*%
%TA.AperFunction,Conductor*%
G36*
X91983087Y-75520185D02*
G01*
X92028842Y-75572989D01*
X92038786Y-75642147D01*
X92009761Y-75705703D01*
X91963500Y-75739061D01*
X91831328Y-75793807D01*
X91831315Y-75793814D01*
X91667537Y-75903248D01*
X91667533Y-75903251D01*
X91528251Y-76042533D01*
X91528248Y-76042537D01*
X91418814Y-76206315D01*
X91418807Y-76206328D01*
X91343430Y-76388307D01*
X91343430Y-76388309D01*
X91335138Y-76430000D01*
X92138012Y-76430000D01*
X92120795Y-76439940D01*
X92064940Y-76495795D01*
X92025444Y-76564204D01*
X92005000Y-76640504D01*
X92005000Y-76719496D01*
X92025444Y-76795796D01*
X92064940Y-76864205D01*
X92120795Y-76920060D01*
X92138012Y-76930000D01*
X91335138Y-76930000D01*
X91343430Y-76971690D01*
X91343430Y-76971692D01*
X91418807Y-77153671D01*
X91418814Y-77153684D01*
X91528248Y-77317462D01*
X91528251Y-77317466D01*
X91667533Y-77456748D01*
X91667537Y-77456751D01*
X91831315Y-77566185D01*
X91831322Y-77566189D01*
X91889196Y-77590160D01*
X91943600Y-77634000D01*
X91965666Y-77700294D01*
X91948388Y-77767994D01*
X91938774Y-77780378D01*
X91939441Y-77780890D01*
X91934492Y-77787338D01*
X91865313Y-77907161D01*
X91865312Y-77907164D01*
X91829500Y-78040817D01*
X91829500Y-78179183D01*
X91849888Y-78255270D01*
X91865312Y-78312835D01*
X91865313Y-78312838D01*
X91934492Y-78432661D01*
X91934494Y-78432664D01*
X91934495Y-78432665D01*
X92032335Y-78530505D01*
X92152164Y-78599688D01*
X92285817Y-78635500D01*
X92285819Y-78635500D01*
X92424181Y-78635500D01*
X92424183Y-78635500D01*
X92557836Y-78599688D01*
X92677665Y-78530505D01*
X92775505Y-78432665D01*
X92844688Y-78312836D01*
X92880500Y-78179183D01*
X92880500Y-78040817D01*
X92844688Y-77907164D01*
X92805045Y-77838500D01*
X92775507Y-77787338D01*
X92775503Y-77787333D01*
X92677664Y-77689494D01*
X92666999Y-77683337D01*
X92618784Y-77632769D01*
X92605000Y-77575950D01*
X92605000Y-76980000D01*
X93105000Y-76980000D01*
X93105000Y-77680000D01*
X93503492Y-77680000D01*
X93503495Y-77679999D01*
X93696681Y-77641572D01*
X93696693Y-77641569D01*
X93878671Y-77566192D01*
X93878684Y-77566185D01*
X94042462Y-77456751D01*
X94042466Y-77456748D01*
X94181748Y-77317466D01*
X94181751Y-77317462D01*
X94291185Y-77153684D01*
X94291192Y-77153671D01*
X94340863Y-77033753D01*
X98670000Y-77033753D01*
X98670000Y-77246246D01*
X98703242Y-77456127D01*
X98703242Y-77456130D01*
X98768904Y-77658217D01*
X98865375Y-77847550D01*
X98904728Y-77901716D01*
X99537037Y-77269408D01*
X99554075Y-77332993D01*
X99619901Y-77447007D01*
X99712993Y-77540099D01*
X99827007Y-77605925D01*
X99890590Y-77622962D01*
X99258282Y-78255269D01*
X99258282Y-78255270D01*
X99312449Y-78294624D01*
X99501782Y-78391095D01*
X99703870Y-78456757D01*
X99913754Y-78490000D01*
X100126246Y-78490000D01*
X100336127Y-78456757D01*
X100336130Y-78456757D01*
X100538217Y-78391095D01*
X100727554Y-78294622D01*
X100781716Y-78255270D01*
X100781717Y-78255270D01*
X100149408Y-77622962D01*
X100212993Y-77605925D01*
X100327007Y-77540099D01*
X100420099Y-77447007D01*
X100485925Y-77332993D01*
X100502962Y-77269408D01*
X101135270Y-77901717D01*
X101135270Y-77901716D01*
X101174622Y-77847555D01*
X101179232Y-77838507D01*
X101227205Y-77787709D01*
X101295025Y-77770912D01*
X101361161Y-77793447D01*
X101400204Y-77838504D01*
X101404949Y-77847817D01*
X101529890Y-78019786D01*
X101680213Y-78170109D01*
X101852179Y-78295048D01*
X101852181Y-78295049D01*
X101852184Y-78295051D01*
X102041588Y-78391557D01*
X102243757Y-78457246D01*
X102453713Y-78490500D01*
X102453714Y-78490500D01*
X102666286Y-78490500D01*
X102666287Y-78490500D01*
X102876243Y-78457246D01*
X103078412Y-78391557D01*
X103267816Y-78295051D01*
X103354138Y-78232335D01*
X103439786Y-78170109D01*
X103439788Y-78170106D01*
X103439792Y-78170104D01*
X103590104Y-78019792D01*
X103590106Y-78019788D01*
X103590109Y-78019786D01*
X103671932Y-77907164D01*
X103715051Y-77847816D01*
X103719793Y-77838508D01*
X103767763Y-77787711D01*
X103835583Y-77770911D01*
X103901719Y-77793445D01*
X103940763Y-77838500D01*
X103945373Y-77847547D01*
X103984728Y-77901716D01*
X104617037Y-77269408D01*
X104634075Y-77332993D01*
X104699901Y-77447007D01*
X104792993Y-77540099D01*
X104907007Y-77605925D01*
X104970590Y-77622962D01*
X104338282Y-78255269D01*
X104338282Y-78255270D01*
X104392449Y-78294624D01*
X104581782Y-78391095D01*
X104783870Y-78456757D01*
X104993754Y-78490000D01*
X105206246Y-78490000D01*
X105416127Y-78456757D01*
X105416130Y-78456757D01*
X105618217Y-78391095D01*
X105807554Y-78294622D01*
X105861716Y-78255270D01*
X105861717Y-78255270D01*
X105229408Y-77622962D01*
X105292993Y-77605925D01*
X105407007Y-77540099D01*
X105500099Y-77447007D01*
X105565925Y-77332993D01*
X105582962Y-77269408D01*
X106215270Y-77901717D01*
X106215270Y-77901716D01*
X106254622Y-77847555D01*
X106259232Y-77838507D01*
X106307205Y-77787709D01*
X106375025Y-77770912D01*
X106441161Y-77793447D01*
X106480204Y-77838504D01*
X106484949Y-77847817D01*
X106609890Y-78019786D01*
X106760213Y-78170109D01*
X106932179Y-78295048D01*
X106932181Y-78295049D01*
X106932184Y-78295051D01*
X107121588Y-78391557D01*
X107323757Y-78457246D01*
X107533713Y-78490500D01*
X107533714Y-78490500D01*
X107746286Y-78490500D01*
X107746287Y-78490500D01*
X107956243Y-78457246D01*
X108158412Y-78391557D01*
X108347816Y-78295051D01*
X108434138Y-78232335D01*
X108519786Y-78170109D01*
X108519788Y-78170106D01*
X108519792Y-78170104D01*
X108670104Y-78019792D01*
X108670106Y-78019788D01*
X108670109Y-78019786D01*
X108795048Y-77847820D01*
X108795047Y-77847820D01*
X108795051Y-77847816D01*
X108799514Y-77839054D01*
X108847488Y-77788259D01*
X108915308Y-77771463D01*
X108981444Y-77793999D01*
X109020486Y-77839056D01*
X109024951Y-77847820D01*
X109149890Y-78019786D01*
X109300213Y-78170109D01*
X109472179Y-78295048D01*
X109472181Y-78295049D01*
X109472184Y-78295051D01*
X109661588Y-78391557D01*
X109863757Y-78457246D01*
X110073713Y-78490500D01*
X110073714Y-78490500D01*
X110286286Y-78490500D01*
X110286287Y-78490500D01*
X110496243Y-78457246D01*
X110698412Y-78391557D01*
X110887816Y-78295051D01*
X110974138Y-78232335D01*
X111059786Y-78170109D01*
X111059788Y-78170106D01*
X111059792Y-78170104D01*
X111210104Y-78019792D01*
X111210106Y-78019788D01*
X111210109Y-78019786D01*
X111335048Y-77847820D01*
X111335047Y-77847820D01*
X111335051Y-77847816D01*
X111339514Y-77839054D01*
X111387488Y-77788259D01*
X111455308Y-77771463D01*
X111521444Y-77793999D01*
X111560486Y-77839056D01*
X111564951Y-77847820D01*
X111689890Y-78019786D01*
X111840213Y-78170109D01*
X112012179Y-78295048D01*
X112012181Y-78295049D01*
X112012184Y-78295051D01*
X112201588Y-78391557D01*
X112403757Y-78457246D01*
X112613713Y-78490500D01*
X112613714Y-78490500D01*
X112826286Y-78490500D01*
X112826287Y-78490500D01*
X113036243Y-78457246D01*
X113238412Y-78391557D01*
X113427816Y-78295051D01*
X113514138Y-78232335D01*
X113599786Y-78170109D01*
X113599788Y-78170106D01*
X113599792Y-78170104D01*
X113750104Y-78019792D01*
X113750106Y-78019788D01*
X113750109Y-78019786D01*
X113875048Y-77847820D01*
X113875047Y-77847820D01*
X113875051Y-77847816D01*
X113879514Y-77839054D01*
X113927488Y-77788259D01*
X113995308Y-77771463D01*
X114061444Y-77793999D01*
X114100486Y-77839056D01*
X114104951Y-77847820D01*
X114229890Y-78019786D01*
X114380213Y-78170109D01*
X114552179Y-78295048D01*
X114552181Y-78295049D01*
X114552184Y-78295051D01*
X114741588Y-78391557D01*
X114943757Y-78457246D01*
X115153713Y-78490500D01*
X115153714Y-78490500D01*
X115366286Y-78490500D01*
X115366287Y-78490500D01*
X115576243Y-78457246D01*
X115778412Y-78391557D01*
X115967816Y-78295051D01*
X116054138Y-78232335D01*
X116139786Y-78170109D01*
X116139788Y-78170106D01*
X116139792Y-78170104D01*
X116290104Y-78019792D01*
X116290106Y-78019788D01*
X116290109Y-78019786D01*
X116415048Y-77847820D01*
X116415047Y-77847820D01*
X116415051Y-77847816D01*
X116419514Y-77839054D01*
X116467488Y-77788259D01*
X116535308Y-77771463D01*
X116601444Y-77793999D01*
X116640486Y-77839056D01*
X116644951Y-77847820D01*
X116769890Y-78019786D01*
X116920213Y-78170109D01*
X117092179Y-78295048D01*
X117092181Y-78295049D01*
X117092184Y-78295051D01*
X117281588Y-78391557D01*
X117483757Y-78457246D01*
X117693713Y-78490500D01*
X117693714Y-78490500D01*
X117906286Y-78490500D01*
X117906287Y-78490500D01*
X118116243Y-78457246D01*
X118318412Y-78391557D01*
X118507816Y-78295051D01*
X118594138Y-78232335D01*
X118679786Y-78170109D01*
X118679788Y-78170106D01*
X118679792Y-78170104D01*
X118830104Y-78019792D01*
X118830106Y-78019788D01*
X118830109Y-78019786D01*
X118955048Y-77847820D01*
X118955047Y-77847820D01*
X118955051Y-77847816D01*
X118959514Y-77839054D01*
X119007488Y-77788259D01*
X119075308Y-77771463D01*
X119141444Y-77793999D01*
X119180486Y-77839056D01*
X119184951Y-77847820D01*
X119309890Y-78019786D01*
X119460213Y-78170109D01*
X119632179Y-78295048D01*
X119632181Y-78295049D01*
X119632184Y-78295051D01*
X119821588Y-78391557D01*
X120023757Y-78457246D01*
X120233713Y-78490500D01*
X120233714Y-78490500D01*
X120446286Y-78490500D01*
X120446287Y-78490500D01*
X120656243Y-78457246D01*
X120858412Y-78391557D01*
X121047816Y-78295051D01*
X121134138Y-78232335D01*
X121219786Y-78170109D01*
X121219788Y-78170106D01*
X121219792Y-78170104D01*
X121370104Y-78019792D01*
X121370106Y-78019788D01*
X121370109Y-78019786D01*
X121495048Y-77847820D01*
X121495047Y-77847820D01*
X121495051Y-77847816D01*
X121499514Y-77839054D01*
X121547488Y-77788259D01*
X121615308Y-77771463D01*
X121681444Y-77793999D01*
X121720486Y-77839056D01*
X121724951Y-77847820D01*
X121849890Y-78019786D01*
X122000213Y-78170109D01*
X122172179Y-78295048D01*
X122172181Y-78295049D01*
X122172184Y-78295051D01*
X122361588Y-78391557D01*
X122563757Y-78457246D01*
X122773713Y-78490500D01*
X122773714Y-78490500D01*
X122986286Y-78490500D01*
X122986287Y-78490500D01*
X123196243Y-78457246D01*
X123398412Y-78391557D01*
X123587816Y-78295051D01*
X123674138Y-78232335D01*
X123759786Y-78170109D01*
X123759788Y-78170106D01*
X123759792Y-78170104D01*
X123910104Y-78019792D01*
X123910106Y-78019788D01*
X123910109Y-78019786D01*
X124035048Y-77847820D01*
X124035047Y-77847820D01*
X124035051Y-77847816D01*
X124039514Y-77839054D01*
X124087488Y-77788259D01*
X124155308Y-77771463D01*
X124221444Y-77793999D01*
X124260486Y-77839056D01*
X124264951Y-77847820D01*
X124389890Y-78019786D01*
X124540213Y-78170109D01*
X124712179Y-78295048D01*
X124712181Y-78295049D01*
X124712184Y-78295051D01*
X124901588Y-78391557D01*
X125103757Y-78457246D01*
X125313713Y-78490500D01*
X125313714Y-78490500D01*
X125526286Y-78490500D01*
X125526287Y-78490500D01*
X125736243Y-78457246D01*
X125938412Y-78391557D01*
X126127816Y-78295051D01*
X126214138Y-78232335D01*
X126299786Y-78170109D01*
X126299788Y-78170106D01*
X126299792Y-78170104D01*
X126450104Y-78019792D01*
X126450106Y-78019788D01*
X126450109Y-78019786D01*
X126575048Y-77847820D01*
X126575047Y-77847820D01*
X126575051Y-77847816D01*
X126579514Y-77839054D01*
X126627488Y-77788259D01*
X126695308Y-77771463D01*
X126761444Y-77793999D01*
X126800486Y-77839056D01*
X126804951Y-77847820D01*
X126929890Y-78019786D01*
X127080213Y-78170109D01*
X127252179Y-78295048D01*
X127252181Y-78295049D01*
X127252184Y-78295051D01*
X127441588Y-78391557D01*
X127643757Y-78457246D01*
X127853713Y-78490500D01*
X127853714Y-78490500D01*
X128066286Y-78490500D01*
X128066287Y-78490500D01*
X128276243Y-78457246D01*
X128478412Y-78391557D01*
X128667816Y-78295051D01*
X128754138Y-78232335D01*
X128839786Y-78170109D01*
X128839788Y-78170106D01*
X128839792Y-78170104D01*
X128990104Y-78019792D01*
X128990106Y-78019788D01*
X128990109Y-78019786D01*
X129115048Y-77847820D01*
X129115047Y-77847820D01*
X129115051Y-77847816D01*
X129119514Y-77839054D01*
X129167488Y-77788259D01*
X129235308Y-77771463D01*
X129301444Y-77793999D01*
X129340486Y-77839056D01*
X129344951Y-77847820D01*
X129469890Y-78019786D01*
X129620213Y-78170109D01*
X129792179Y-78295048D01*
X129792181Y-78295049D01*
X129792184Y-78295051D01*
X129981588Y-78391557D01*
X130183757Y-78457246D01*
X130393713Y-78490500D01*
X130393714Y-78490500D01*
X130606286Y-78490500D01*
X130606287Y-78490500D01*
X130816243Y-78457246D01*
X131018412Y-78391557D01*
X131207816Y-78295051D01*
X131294138Y-78232335D01*
X131379786Y-78170109D01*
X131379788Y-78170106D01*
X131379792Y-78170104D01*
X131530104Y-78019792D01*
X131530106Y-78019788D01*
X131530109Y-78019786D01*
X131655048Y-77847820D01*
X131655047Y-77847820D01*
X131655051Y-77847816D01*
X131659514Y-77839054D01*
X131707488Y-77788259D01*
X131775308Y-77771463D01*
X131841444Y-77793999D01*
X131880486Y-77839056D01*
X131884951Y-77847820D01*
X132009890Y-78019786D01*
X132160213Y-78170109D01*
X132332179Y-78295048D01*
X132332181Y-78295049D01*
X132332184Y-78295051D01*
X132521588Y-78391557D01*
X132723757Y-78457246D01*
X132933713Y-78490500D01*
X132933714Y-78490500D01*
X133146286Y-78490500D01*
X133146287Y-78490500D01*
X133356243Y-78457246D01*
X133558412Y-78391557D01*
X133747816Y-78295051D01*
X133834138Y-78232335D01*
X133919786Y-78170109D01*
X133919788Y-78170106D01*
X133919792Y-78170104D01*
X134070104Y-78019792D01*
X134070106Y-78019788D01*
X134070109Y-78019786D01*
X134195048Y-77847820D01*
X134195047Y-77847820D01*
X134195051Y-77847816D01*
X134199514Y-77839054D01*
X134247488Y-77788259D01*
X134315308Y-77771463D01*
X134381444Y-77793999D01*
X134420486Y-77839056D01*
X134424951Y-77847820D01*
X134549890Y-78019786D01*
X134700213Y-78170109D01*
X134872179Y-78295048D01*
X134872181Y-78295049D01*
X134872184Y-78295051D01*
X135061588Y-78391557D01*
X135263757Y-78457246D01*
X135473713Y-78490500D01*
X135473714Y-78490500D01*
X135686286Y-78490500D01*
X135686287Y-78490500D01*
X135896243Y-78457246D01*
X136098412Y-78391557D01*
X136287816Y-78295051D01*
X136374138Y-78232335D01*
X136459786Y-78170109D01*
X136459788Y-78170106D01*
X136459792Y-78170104D01*
X136610104Y-78019792D01*
X136610106Y-78019788D01*
X136610109Y-78019786D01*
X136735048Y-77847820D01*
X136735047Y-77847820D01*
X136735051Y-77847816D01*
X136739514Y-77839054D01*
X136787488Y-77788259D01*
X136855308Y-77771463D01*
X136921444Y-77793999D01*
X136960486Y-77839056D01*
X136964951Y-77847820D01*
X137089890Y-78019786D01*
X137240213Y-78170109D01*
X137412179Y-78295048D01*
X137412181Y-78295049D01*
X137412184Y-78295051D01*
X137601588Y-78391557D01*
X137803757Y-78457246D01*
X138013713Y-78490500D01*
X138013714Y-78490500D01*
X138226286Y-78490500D01*
X138226287Y-78490500D01*
X138436243Y-78457246D01*
X138638412Y-78391557D01*
X138827816Y-78295051D01*
X138914138Y-78232335D01*
X138999786Y-78170109D01*
X138999788Y-78170106D01*
X138999792Y-78170104D01*
X139150104Y-78019792D01*
X139150106Y-78019788D01*
X139150109Y-78019786D01*
X139275048Y-77847820D01*
X139275047Y-77847820D01*
X139275051Y-77847816D01*
X139279514Y-77839054D01*
X139327488Y-77788259D01*
X139395308Y-77771463D01*
X139461444Y-77793999D01*
X139500486Y-77839056D01*
X139504951Y-77847820D01*
X139629890Y-78019786D01*
X139780213Y-78170109D01*
X139952179Y-78295048D01*
X139952181Y-78295049D01*
X139952184Y-78295051D01*
X140141588Y-78391557D01*
X140343757Y-78457246D01*
X140553713Y-78490500D01*
X140553714Y-78490500D01*
X140766286Y-78490500D01*
X140766287Y-78490500D01*
X140976243Y-78457246D01*
X141178412Y-78391557D01*
X141367816Y-78295051D01*
X141454138Y-78232335D01*
X141539786Y-78170109D01*
X141539788Y-78170106D01*
X141539792Y-78170104D01*
X141690104Y-78019792D01*
X141690106Y-78019788D01*
X141690109Y-78019786D01*
X141815048Y-77847820D01*
X141815047Y-77847820D01*
X141815051Y-77847816D01*
X141819514Y-77839054D01*
X141867488Y-77788259D01*
X141935308Y-77771463D01*
X142001444Y-77793999D01*
X142040486Y-77839056D01*
X142044951Y-77847820D01*
X142169890Y-78019786D01*
X142320213Y-78170109D01*
X142492179Y-78295048D01*
X142492181Y-78295049D01*
X142492184Y-78295051D01*
X142681588Y-78391557D01*
X142883757Y-78457246D01*
X143093713Y-78490500D01*
X143093714Y-78490500D01*
X143306286Y-78490500D01*
X143306287Y-78490500D01*
X143516243Y-78457246D01*
X143718412Y-78391557D01*
X143907816Y-78295051D01*
X143994138Y-78232335D01*
X144079786Y-78170109D01*
X144079788Y-78170106D01*
X144079792Y-78170104D01*
X144230104Y-78019792D01*
X144230106Y-78019788D01*
X144230109Y-78019786D01*
X144355048Y-77847820D01*
X144355047Y-77847820D01*
X144355051Y-77847816D01*
X144359514Y-77839054D01*
X144407488Y-77788259D01*
X144475308Y-77771463D01*
X144541444Y-77793999D01*
X144580486Y-77839056D01*
X144584951Y-77847820D01*
X144709890Y-78019786D01*
X144860213Y-78170109D01*
X145032179Y-78295048D01*
X145032181Y-78295049D01*
X145032184Y-78295051D01*
X145221588Y-78391557D01*
X145423757Y-78457246D01*
X145633713Y-78490500D01*
X145633714Y-78490500D01*
X145846286Y-78490500D01*
X145846287Y-78490500D01*
X146056243Y-78457246D01*
X146258412Y-78391557D01*
X146447816Y-78295051D01*
X146534138Y-78232335D01*
X146619786Y-78170109D01*
X146619788Y-78170106D01*
X146619792Y-78170104D01*
X146770104Y-78019792D01*
X146770106Y-78019788D01*
X146770109Y-78019786D01*
X146895048Y-77847820D01*
X146895047Y-77847820D01*
X146895051Y-77847816D01*
X146899514Y-77839054D01*
X146947488Y-77788259D01*
X147015308Y-77771463D01*
X147081444Y-77793999D01*
X147120486Y-77839056D01*
X147124951Y-77847820D01*
X147249890Y-78019786D01*
X147400213Y-78170109D01*
X147572179Y-78295048D01*
X147572181Y-78295049D01*
X147572184Y-78295051D01*
X147761588Y-78391557D01*
X147963757Y-78457246D01*
X148173713Y-78490500D01*
X148173714Y-78490500D01*
X148386286Y-78490500D01*
X148386287Y-78490500D01*
X148596243Y-78457246D01*
X148798412Y-78391557D01*
X148987816Y-78295051D01*
X149074138Y-78232335D01*
X149159786Y-78170109D01*
X149159788Y-78170106D01*
X149159792Y-78170104D01*
X149310104Y-78019792D01*
X149310106Y-78019788D01*
X149310109Y-78019786D01*
X149435048Y-77847820D01*
X149435047Y-77847820D01*
X149435051Y-77847816D01*
X149439514Y-77839054D01*
X149487488Y-77788259D01*
X149555308Y-77771463D01*
X149621444Y-77793999D01*
X149660486Y-77839056D01*
X149664951Y-77847820D01*
X149789890Y-78019786D01*
X149940213Y-78170109D01*
X150112179Y-78295048D01*
X150112181Y-78295049D01*
X150112184Y-78295051D01*
X150301588Y-78391557D01*
X150503757Y-78457246D01*
X150713713Y-78490500D01*
X150713714Y-78490500D01*
X150926286Y-78490500D01*
X150926287Y-78490500D01*
X151136243Y-78457246D01*
X151338412Y-78391557D01*
X151527816Y-78295051D01*
X151614138Y-78232335D01*
X151699786Y-78170109D01*
X151699788Y-78170106D01*
X151699792Y-78170104D01*
X151850104Y-78019792D01*
X151850106Y-78019788D01*
X151850109Y-78019786D01*
X151975048Y-77847820D01*
X151975047Y-77847820D01*
X151975051Y-77847816D01*
X151979514Y-77839054D01*
X152027488Y-77788259D01*
X152095308Y-77771463D01*
X152161444Y-77793999D01*
X152200486Y-77839056D01*
X152204951Y-77847820D01*
X152329890Y-78019786D01*
X152480213Y-78170109D01*
X152652179Y-78295048D01*
X152652181Y-78295049D01*
X152652184Y-78295051D01*
X152841588Y-78391557D01*
X153043757Y-78457246D01*
X153253713Y-78490500D01*
X153253714Y-78490500D01*
X153466286Y-78490500D01*
X153466287Y-78490500D01*
X153676243Y-78457246D01*
X153878412Y-78391557D01*
X154067816Y-78295051D01*
X154239792Y-78170104D01*
X154353329Y-78056566D01*
X154414648Y-78023084D01*
X154484340Y-78028068D01*
X154540274Y-78069939D01*
X154557189Y-78100917D01*
X154606202Y-78232328D01*
X154606206Y-78232335D01*
X154692452Y-78347544D01*
X154692455Y-78347547D01*
X154807664Y-78433793D01*
X154807671Y-78433797D01*
X154942517Y-78484091D01*
X154942516Y-78484091D01*
X154949444Y-78484835D01*
X155002127Y-78490500D01*
X156797872Y-78490499D01*
X156857483Y-78484091D01*
X156992331Y-78433796D01*
X157107546Y-78347546D01*
X157193796Y-78232331D01*
X157244091Y-78097483D01*
X157250500Y-78037873D01*
X157250499Y-76242128D01*
X157244091Y-76182517D01*
X157242810Y-76179083D01*
X157193797Y-76047671D01*
X157193793Y-76047664D01*
X157107547Y-75932455D01*
X157107544Y-75932452D01*
X156992335Y-75846206D01*
X156992328Y-75846202D01*
X156857482Y-75795908D01*
X156857483Y-75795908D01*
X156797883Y-75789501D01*
X156797881Y-75789500D01*
X156797873Y-75789500D01*
X156797864Y-75789500D01*
X155002129Y-75789500D01*
X155002123Y-75789501D01*
X154942516Y-75795908D01*
X154807671Y-75846202D01*
X154807664Y-75846206D01*
X154692455Y-75932452D01*
X154692452Y-75932455D01*
X154606206Y-76047664D01*
X154606203Y-76047669D01*
X154557189Y-76179083D01*
X154515317Y-76235016D01*
X154449853Y-76259433D01*
X154381580Y-76244581D01*
X154353326Y-76223430D01*
X154239786Y-76109890D01*
X154067820Y-75984951D01*
X153878414Y-75888444D01*
X153878413Y-75888443D01*
X153878412Y-75888443D01*
X153676243Y-75822754D01*
X153676241Y-75822753D01*
X153676240Y-75822753D01*
X153514957Y-75797208D01*
X153466287Y-75789500D01*
X153253713Y-75789500D01*
X153205042Y-75797208D01*
X153043760Y-75822753D01*
X152841585Y-75888444D01*
X152652179Y-75984951D01*
X152480213Y-76109890D01*
X152329890Y-76260213D01*
X152204949Y-76432182D01*
X152200484Y-76440946D01*
X152152509Y-76491742D01*
X152084688Y-76508536D01*
X152018553Y-76485998D01*
X151979516Y-76440946D01*
X151975050Y-76432182D01*
X151850109Y-76260213D01*
X151699786Y-76109890D01*
X151527820Y-75984951D01*
X151338414Y-75888444D01*
X151338413Y-75888443D01*
X151338412Y-75888443D01*
X151136243Y-75822754D01*
X151136241Y-75822753D01*
X151136240Y-75822753D01*
X150974957Y-75797208D01*
X150926287Y-75789500D01*
X150713713Y-75789500D01*
X150665042Y-75797208D01*
X150503760Y-75822753D01*
X150301585Y-75888444D01*
X150112179Y-75984951D01*
X149940213Y-76109890D01*
X149789890Y-76260213D01*
X149664949Y-76432182D01*
X149660484Y-76440946D01*
X149612509Y-76491742D01*
X149544688Y-76508536D01*
X149478553Y-76485998D01*
X149439516Y-76440946D01*
X149435050Y-76432182D01*
X149310109Y-76260213D01*
X149159786Y-76109890D01*
X148987820Y-75984951D01*
X148798414Y-75888444D01*
X148798413Y-75888443D01*
X148798412Y-75888443D01*
X148596243Y-75822754D01*
X148596241Y-75822753D01*
X148596240Y-75822753D01*
X148434957Y-75797208D01*
X148386287Y-75789500D01*
X148173713Y-75789500D01*
X148125042Y-75797208D01*
X147963760Y-75822753D01*
X147761585Y-75888444D01*
X147572179Y-75984951D01*
X147400213Y-76109890D01*
X147249890Y-76260213D01*
X147124949Y-76432182D01*
X147120484Y-76440946D01*
X147072509Y-76491742D01*
X147004688Y-76508536D01*
X146938553Y-76485998D01*
X146899516Y-76440946D01*
X146895050Y-76432182D01*
X146770109Y-76260213D01*
X146619786Y-76109890D01*
X146447820Y-75984951D01*
X146258414Y-75888444D01*
X146258413Y-75888443D01*
X146258412Y-75888443D01*
X146056243Y-75822754D01*
X146056241Y-75822753D01*
X146056240Y-75822753D01*
X145894957Y-75797208D01*
X145846287Y-75789500D01*
X145633713Y-75789500D01*
X145585042Y-75797208D01*
X145423760Y-75822753D01*
X145221585Y-75888444D01*
X145032179Y-75984951D01*
X144860213Y-76109890D01*
X144709890Y-76260213D01*
X144584949Y-76432182D01*
X144580484Y-76440946D01*
X144532509Y-76491742D01*
X144464688Y-76508536D01*
X144398553Y-76485998D01*
X144359516Y-76440946D01*
X144355050Y-76432182D01*
X144230109Y-76260213D01*
X144079786Y-76109890D01*
X143907820Y-75984951D01*
X143718414Y-75888444D01*
X143718413Y-75888443D01*
X143718412Y-75888443D01*
X143516243Y-75822754D01*
X143516241Y-75822753D01*
X143516240Y-75822753D01*
X143354957Y-75797208D01*
X143306287Y-75789500D01*
X143093713Y-75789500D01*
X143045042Y-75797208D01*
X142883760Y-75822753D01*
X142681585Y-75888444D01*
X142492179Y-75984951D01*
X142320213Y-76109890D01*
X142169890Y-76260213D01*
X142044949Y-76432182D01*
X142040484Y-76440946D01*
X141992509Y-76491742D01*
X141924688Y-76508536D01*
X141858553Y-76485998D01*
X141819516Y-76440946D01*
X141815050Y-76432182D01*
X141690109Y-76260213D01*
X141539786Y-76109890D01*
X141367820Y-75984951D01*
X141178414Y-75888444D01*
X141178413Y-75888443D01*
X141178412Y-75888443D01*
X140976243Y-75822754D01*
X140976241Y-75822753D01*
X140976240Y-75822753D01*
X140814957Y-75797208D01*
X140766287Y-75789500D01*
X140553713Y-75789500D01*
X140505042Y-75797208D01*
X140343760Y-75822753D01*
X140141585Y-75888444D01*
X139952179Y-75984951D01*
X139780213Y-76109890D01*
X139629890Y-76260213D01*
X139504949Y-76432182D01*
X139500484Y-76440946D01*
X139452509Y-76491742D01*
X139384688Y-76508536D01*
X139318553Y-76485998D01*
X139279516Y-76440946D01*
X139275050Y-76432182D01*
X139150109Y-76260213D01*
X138999786Y-76109890D01*
X138827820Y-75984951D01*
X138638414Y-75888444D01*
X138638413Y-75888443D01*
X138638412Y-75888443D01*
X138436243Y-75822754D01*
X138436241Y-75822753D01*
X138436240Y-75822753D01*
X138274957Y-75797208D01*
X138226287Y-75789500D01*
X138013713Y-75789500D01*
X137965042Y-75797208D01*
X137803760Y-75822753D01*
X137601585Y-75888444D01*
X137412179Y-75984951D01*
X137240213Y-76109890D01*
X137089890Y-76260213D01*
X136964949Y-76432182D01*
X136960484Y-76440946D01*
X136912509Y-76491742D01*
X136844688Y-76508536D01*
X136778553Y-76485998D01*
X136739516Y-76440946D01*
X136735050Y-76432182D01*
X136610109Y-76260213D01*
X136459786Y-76109890D01*
X136287820Y-75984951D01*
X136098414Y-75888444D01*
X136098413Y-75888443D01*
X136098412Y-75888443D01*
X135896243Y-75822754D01*
X135896241Y-75822753D01*
X135896240Y-75822753D01*
X135734957Y-75797208D01*
X135686287Y-75789500D01*
X135473713Y-75789500D01*
X135425042Y-75797208D01*
X135263760Y-75822753D01*
X135061585Y-75888444D01*
X134872179Y-75984951D01*
X134700213Y-76109890D01*
X134549890Y-76260213D01*
X134424949Y-76432182D01*
X134420484Y-76440946D01*
X134372509Y-76491742D01*
X134304688Y-76508536D01*
X134238553Y-76485998D01*
X134199516Y-76440946D01*
X134195050Y-76432182D01*
X134070109Y-76260213D01*
X133919786Y-76109890D01*
X133747820Y-75984951D01*
X133558414Y-75888444D01*
X133558413Y-75888443D01*
X133558412Y-75888443D01*
X133356243Y-75822754D01*
X133356241Y-75822753D01*
X133356240Y-75822753D01*
X133194957Y-75797208D01*
X133146287Y-75789500D01*
X132933713Y-75789500D01*
X132885042Y-75797208D01*
X132723760Y-75822753D01*
X132521585Y-75888444D01*
X132332179Y-75984951D01*
X132160213Y-76109890D01*
X132009890Y-76260213D01*
X131884949Y-76432182D01*
X131880484Y-76440946D01*
X131832509Y-76491742D01*
X131764688Y-76508536D01*
X131698553Y-76485998D01*
X131659516Y-76440946D01*
X131655050Y-76432182D01*
X131530109Y-76260213D01*
X131379786Y-76109890D01*
X131207820Y-75984951D01*
X131018414Y-75888444D01*
X131018413Y-75888443D01*
X131018412Y-75888443D01*
X130816243Y-75822754D01*
X130816241Y-75822753D01*
X130816240Y-75822753D01*
X130654957Y-75797208D01*
X130606287Y-75789500D01*
X130393713Y-75789500D01*
X130345042Y-75797208D01*
X130183760Y-75822753D01*
X129981585Y-75888444D01*
X129792179Y-75984951D01*
X129620213Y-76109890D01*
X129469890Y-76260213D01*
X129344949Y-76432182D01*
X129340484Y-76440946D01*
X129292509Y-76491742D01*
X129224688Y-76508536D01*
X129158553Y-76485998D01*
X129119516Y-76440946D01*
X129115050Y-76432182D01*
X128990109Y-76260213D01*
X128839786Y-76109890D01*
X128667820Y-75984951D01*
X128478414Y-75888444D01*
X128478413Y-75888443D01*
X128478412Y-75888443D01*
X128276243Y-75822754D01*
X128276241Y-75822753D01*
X128276240Y-75822753D01*
X128114957Y-75797208D01*
X128066287Y-75789500D01*
X127853713Y-75789500D01*
X127805042Y-75797208D01*
X127643760Y-75822753D01*
X127441585Y-75888444D01*
X127252179Y-75984951D01*
X127080213Y-76109890D01*
X126929890Y-76260213D01*
X126804949Y-76432182D01*
X126800484Y-76440946D01*
X126752509Y-76491742D01*
X126684688Y-76508536D01*
X126618553Y-76485998D01*
X126579516Y-76440946D01*
X126575050Y-76432182D01*
X126450109Y-76260213D01*
X126299786Y-76109890D01*
X126127820Y-75984951D01*
X125938414Y-75888444D01*
X125938413Y-75888443D01*
X125938412Y-75888443D01*
X125736243Y-75822754D01*
X125736241Y-75822753D01*
X125736240Y-75822753D01*
X125574957Y-75797208D01*
X125526287Y-75789500D01*
X125313713Y-75789500D01*
X125265042Y-75797208D01*
X125103760Y-75822753D01*
X124901585Y-75888444D01*
X124712179Y-75984951D01*
X124540213Y-76109890D01*
X124389890Y-76260213D01*
X124264949Y-76432182D01*
X124260484Y-76440946D01*
X124212509Y-76491742D01*
X124144688Y-76508536D01*
X124078553Y-76485998D01*
X124039516Y-76440946D01*
X124035050Y-76432182D01*
X123910109Y-76260213D01*
X123759786Y-76109890D01*
X123587820Y-75984951D01*
X123398414Y-75888444D01*
X123398413Y-75888443D01*
X123398412Y-75888443D01*
X123196243Y-75822754D01*
X123196241Y-75822753D01*
X123196240Y-75822753D01*
X123034957Y-75797208D01*
X122986287Y-75789500D01*
X122773713Y-75789500D01*
X122725042Y-75797208D01*
X122563760Y-75822753D01*
X122361585Y-75888444D01*
X122172179Y-75984951D01*
X122000213Y-76109890D01*
X121849890Y-76260213D01*
X121724949Y-76432182D01*
X121720484Y-76440946D01*
X121672509Y-76491742D01*
X121604688Y-76508536D01*
X121538553Y-76485998D01*
X121499516Y-76440946D01*
X121495050Y-76432182D01*
X121370109Y-76260213D01*
X121219786Y-76109890D01*
X121047820Y-75984951D01*
X120858414Y-75888444D01*
X120858413Y-75888443D01*
X120858412Y-75888443D01*
X120656243Y-75822754D01*
X120656241Y-75822753D01*
X120656240Y-75822753D01*
X120494957Y-75797208D01*
X120446287Y-75789500D01*
X120233713Y-75789500D01*
X120185042Y-75797208D01*
X120023760Y-75822753D01*
X119821585Y-75888444D01*
X119632179Y-75984951D01*
X119460213Y-76109890D01*
X119309890Y-76260213D01*
X119184949Y-76432182D01*
X119180484Y-76440946D01*
X119132509Y-76491742D01*
X119064688Y-76508536D01*
X118998553Y-76485998D01*
X118959516Y-76440946D01*
X118955050Y-76432182D01*
X118830109Y-76260213D01*
X118679786Y-76109890D01*
X118507820Y-75984951D01*
X118318414Y-75888444D01*
X118318413Y-75888443D01*
X118318412Y-75888443D01*
X118116243Y-75822754D01*
X118116241Y-75822753D01*
X118116240Y-75822753D01*
X117954957Y-75797208D01*
X117906287Y-75789500D01*
X117693713Y-75789500D01*
X117645042Y-75797208D01*
X117483760Y-75822753D01*
X117281585Y-75888444D01*
X117092179Y-75984951D01*
X116920213Y-76109890D01*
X116769890Y-76260213D01*
X116644949Y-76432182D01*
X116640484Y-76440946D01*
X116592509Y-76491742D01*
X116524688Y-76508536D01*
X116458553Y-76485998D01*
X116419516Y-76440946D01*
X116415050Y-76432182D01*
X116290109Y-76260213D01*
X116139786Y-76109890D01*
X115967820Y-75984951D01*
X115778414Y-75888444D01*
X115778413Y-75888443D01*
X115778412Y-75888443D01*
X115576243Y-75822754D01*
X115576241Y-75822753D01*
X115576240Y-75822753D01*
X115414957Y-75797208D01*
X115366287Y-75789500D01*
X115153713Y-75789500D01*
X115105042Y-75797208D01*
X114943760Y-75822753D01*
X114741585Y-75888444D01*
X114552179Y-75984951D01*
X114380213Y-76109890D01*
X114229890Y-76260213D01*
X114104949Y-76432182D01*
X114100484Y-76440946D01*
X114052509Y-76491742D01*
X113984688Y-76508536D01*
X113918553Y-76485998D01*
X113879516Y-76440946D01*
X113875050Y-76432182D01*
X113750109Y-76260213D01*
X113599786Y-76109890D01*
X113427820Y-75984951D01*
X113238414Y-75888444D01*
X113238413Y-75888443D01*
X113238412Y-75888443D01*
X113036243Y-75822754D01*
X113036241Y-75822753D01*
X113036240Y-75822753D01*
X112874957Y-75797208D01*
X112826287Y-75789500D01*
X112613713Y-75789500D01*
X112565042Y-75797208D01*
X112403760Y-75822753D01*
X112201585Y-75888444D01*
X112012179Y-75984951D01*
X111840213Y-76109890D01*
X111689890Y-76260213D01*
X111564949Y-76432182D01*
X111560484Y-76440946D01*
X111512509Y-76491742D01*
X111444688Y-76508536D01*
X111378553Y-76485998D01*
X111339516Y-76440946D01*
X111335050Y-76432182D01*
X111210109Y-76260213D01*
X111059786Y-76109890D01*
X110887820Y-75984951D01*
X110698414Y-75888444D01*
X110698413Y-75888443D01*
X110698412Y-75888443D01*
X110496243Y-75822754D01*
X110496241Y-75822753D01*
X110496240Y-75822753D01*
X110334957Y-75797208D01*
X110286287Y-75789500D01*
X110073713Y-75789500D01*
X110025042Y-75797208D01*
X109863760Y-75822753D01*
X109661585Y-75888444D01*
X109472179Y-75984951D01*
X109300213Y-76109890D01*
X109149890Y-76260213D01*
X109024949Y-76432182D01*
X109020484Y-76440946D01*
X108972509Y-76491742D01*
X108904688Y-76508536D01*
X108838553Y-76485998D01*
X108799516Y-76440946D01*
X108795050Y-76432182D01*
X108670109Y-76260213D01*
X108519786Y-76109890D01*
X108347820Y-75984951D01*
X108158414Y-75888444D01*
X108158413Y-75888443D01*
X108158412Y-75888443D01*
X107956243Y-75822754D01*
X107956241Y-75822753D01*
X107956240Y-75822753D01*
X107794957Y-75797208D01*
X107746287Y-75789500D01*
X107533713Y-75789500D01*
X107485042Y-75797208D01*
X107323760Y-75822753D01*
X107121585Y-75888444D01*
X106932179Y-75984951D01*
X106760213Y-76109890D01*
X106609890Y-76260213D01*
X106484949Y-76432182D01*
X106480202Y-76441499D01*
X106432227Y-76492293D01*
X106364405Y-76509087D01*
X106298271Y-76486548D01*
X106259234Y-76441495D01*
X106254626Y-76432452D01*
X106215270Y-76378282D01*
X106215269Y-76378282D01*
X105582962Y-77010590D01*
X105565925Y-76947007D01*
X105500099Y-76832993D01*
X105407007Y-76739901D01*
X105292993Y-76674075D01*
X105229409Y-76657037D01*
X105861716Y-76024728D01*
X105807550Y-75985375D01*
X105618217Y-75888904D01*
X105416129Y-75823242D01*
X105206246Y-75790000D01*
X104993754Y-75790000D01*
X104783872Y-75823242D01*
X104783869Y-75823242D01*
X104581782Y-75888904D01*
X104392439Y-75985380D01*
X104338282Y-76024727D01*
X104338282Y-76024728D01*
X104970591Y-76657037D01*
X104907007Y-76674075D01*
X104792993Y-76739901D01*
X104699901Y-76832993D01*
X104634075Y-76947007D01*
X104617037Y-77010591D01*
X103984728Y-76378282D01*
X103984727Y-76378282D01*
X103945380Y-76432440D01*
X103945376Y-76432446D01*
X103940760Y-76441505D01*
X103892781Y-76492297D01*
X103824959Y-76509087D01*
X103758826Y-76486543D01*
X103719794Y-76441493D01*
X103715051Y-76432184D01*
X103715049Y-76432181D01*
X103715048Y-76432179D01*
X103590109Y-76260213D01*
X103439786Y-76109890D01*
X103267820Y-75984951D01*
X103078414Y-75888444D01*
X103078413Y-75888443D01*
X103078412Y-75888443D01*
X102876243Y-75822754D01*
X102876241Y-75822753D01*
X102876240Y-75822753D01*
X102714957Y-75797208D01*
X102666287Y-75789500D01*
X102453713Y-75789500D01*
X102405042Y-75797208D01*
X102243760Y-75822753D01*
X102041585Y-75888444D01*
X101852179Y-75984951D01*
X101680213Y-76109890D01*
X101529890Y-76260213D01*
X101404949Y-76432182D01*
X101400202Y-76441499D01*
X101352227Y-76492293D01*
X101284405Y-76509087D01*
X101218271Y-76486548D01*
X101179234Y-76441495D01*
X101174626Y-76432452D01*
X101135270Y-76378282D01*
X101135269Y-76378282D01*
X100502962Y-77010590D01*
X100485925Y-76947007D01*
X100420099Y-76832993D01*
X100327007Y-76739901D01*
X100212993Y-76674075D01*
X100149409Y-76657037D01*
X100781716Y-76024728D01*
X100727550Y-75985375D01*
X100538217Y-75888904D01*
X100336129Y-75823242D01*
X100126246Y-75790000D01*
X99913754Y-75790000D01*
X99703872Y-75823242D01*
X99703869Y-75823242D01*
X99501782Y-75888904D01*
X99312439Y-75985380D01*
X99258282Y-76024727D01*
X99258282Y-76024728D01*
X99890591Y-76657037D01*
X99827007Y-76674075D01*
X99712993Y-76739901D01*
X99619901Y-76832993D01*
X99554075Y-76947007D01*
X99537037Y-77010591D01*
X98904728Y-76378282D01*
X98904727Y-76378282D01*
X98865380Y-76432439D01*
X98768904Y-76621782D01*
X98703242Y-76823869D01*
X98703242Y-76823872D01*
X98670000Y-77033753D01*
X94340863Y-77033753D01*
X94362536Y-76981429D01*
X94362536Y-76981428D01*
X94362537Y-76981426D01*
X94366570Y-76971689D01*
X94374862Y-76930000D01*
X93571988Y-76930000D01*
X93589205Y-76920060D01*
X93645060Y-76864205D01*
X93684556Y-76795796D01*
X93705000Y-76719496D01*
X93705000Y-76640504D01*
X93684556Y-76564204D01*
X93645060Y-76495795D01*
X93589205Y-76439940D01*
X93571988Y-76430000D01*
X94374862Y-76430000D01*
X94366569Y-76388309D01*
X94366569Y-76388307D01*
X94291192Y-76206328D01*
X94291185Y-76206315D01*
X94247461Y-76140878D01*
X94181751Y-76042537D01*
X94181748Y-76042533D01*
X94042466Y-75903251D01*
X94042462Y-75903248D01*
X93878684Y-75793814D01*
X93878671Y-75793807D01*
X93746500Y-75739061D01*
X93692096Y-75695220D01*
X93670031Y-75628926D01*
X93687310Y-75561227D01*
X93738447Y-75513616D01*
X93793952Y-75500500D01*
X157375500Y-75500500D01*
X157442539Y-75520185D01*
X157488294Y-75572989D01*
X157499500Y-75624500D01*
X157499500Y-101525500D01*
X157479815Y-101592539D01*
X157427011Y-101638294D01*
X157375500Y-101649500D01*
X93740667Y-101649500D01*
X93673628Y-101629815D01*
X93627873Y-101577011D01*
X93617929Y-101507853D01*
X93646954Y-101444297D01*
X93693215Y-101410939D01*
X93873671Y-101336192D01*
X93873684Y-101336185D01*
X94037462Y-101226751D01*
X94037466Y-101226748D01*
X94176748Y-101087466D01*
X94176751Y-101087462D01*
X94286185Y-100923684D01*
X94286192Y-100923671D01*
X94361569Y-100741692D01*
X94361569Y-100741690D01*
X94369862Y-100700000D01*
X93566988Y-100700000D01*
X93584205Y-100690060D01*
X93640060Y-100634205D01*
X93679556Y-100565796D01*
X93700000Y-100489496D01*
X93700000Y-100410504D01*
X93679556Y-100334204D01*
X93640060Y-100265795D01*
X93584205Y-100209940D01*
X93566988Y-100200000D01*
X94369862Y-100200000D01*
X94361569Y-100158309D01*
X94361569Y-100158307D01*
X94286192Y-99976328D01*
X94286185Y-99976315D01*
X94176751Y-99812537D01*
X94176748Y-99812533D01*
X94037466Y-99673251D01*
X94037462Y-99673248D01*
X93873684Y-99563814D01*
X93873671Y-99563807D01*
X93691693Y-99488430D01*
X93691681Y-99488427D01*
X93498495Y-99450000D01*
X93100000Y-99450000D01*
X93100000Y-100150000D01*
X92600000Y-100150000D01*
X92600000Y-99554049D01*
X92619685Y-99487010D01*
X92636870Y-99465820D01*
X92648203Y-99454627D01*
X92672665Y-99440505D01*
X92770505Y-99342665D01*
X92839688Y-99222836D01*
X92872030Y-99102135D01*
X98649500Y-99102135D01*
X98649500Y-100897870D01*
X98649501Y-100897876D01*
X98655908Y-100957483D01*
X98706202Y-101092328D01*
X98706206Y-101092335D01*
X98792452Y-101207544D01*
X98792455Y-101207547D01*
X98907664Y-101293793D01*
X98907671Y-101293797D01*
X99042517Y-101344091D01*
X99042516Y-101344091D01*
X99049444Y-101344835D01*
X99102127Y-101350500D01*
X100897872Y-101350499D01*
X100957483Y-101344091D01*
X101092331Y-101293796D01*
X101207546Y-101207546D01*
X101293796Y-101092331D01*
X101342810Y-100960916D01*
X101384681Y-100904984D01*
X101450145Y-100880566D01*
X101518418Y-100895417D01*
X101546673Y-100916569D01*
X101660213Y-101030109D01*
X101832179Y-101155048D01*
X101832181Y-101155049D01*
X101832184Y-101155051D01*
X102021588Y-101251557D01*
X102223757Y-101317246D01*
X102433713Y-101350500D01*
X102433714Y-101350500D01*
X102646286Y-101350500D01*
X102646287Y-101350500D01*
X102856243Y-101317246D01*
X103058412Y-101251557D01*
X103247816Y-101155051D01*
X103334138Y-101092335D01*
X103419786Y-101030109D01*
X103419788Y-101030106D01*
X103419792Y-101030104D01*
X103570104Y-100879792D01*
X103570106Y-100879788D01*
X103570109Y-100879786D01*
X103695048Y-100707820D01*
X103695047Y-100707820D01*
X103695051Y-100707816D01*
X103699514Y-100699054D01*
X103747488Y-100648259D01*
X103815308Y-100631463D01*
X103881444Y-100653999D01*
X103920486Y-100699056D01*
X103924951Y-100707820D01*
X104049890Y-100879786D01*
X104200213Y-101030109D01*
X104372179Y-101155048D01*
X104372181Y-101155049D01*
X104372184Y-101155051D01*
X104561588Y-101251557D01*
X104763757Y-101317246D01*
X104973713Y-101350500D01*
X104973714Y-101350500D01*
X105186286Y-101350500D01*
X105186287Y-101350500D01*
X105396243Y-101317246D01*
X105598412Y-101251557D01*
X105787816Y-101155051D01*
X105874138Y-101092335D01*
X105959786Y-101030109D01*
X105959788Y-101030106D01*
X105959792Y-101030104D01*
X106110104Y-100879792D01*
X106110106Y-100879788D01*
X106110109Y-100879786D01*
X106235048Y-100707820D01*
X106235047Y-100707820D01*
X106235051Y-100707816D01*
X106239514Y-100699054D01*
X106287488Y-100648259D01*
X106355308Y-100631463D01*
X106421444Y-100653999D01*
X106460486Y-100699056D01*
X106464951Y-100707820D01*
X106589890Y-100879786D01*
X106740213Y-101030109D01*
X106912179Y-101155048D01*
X106912181Y-101155049D01*
X106912184Y-101155051D01*
X107101588Y-101251557D01*
X107303757Y-101317246D01*
X107513713Y-101350500D01*
X107513714Y-101350500D01*
X107726286Y-101350500D01*
X107726287Y-101350500D01*
X107936243Y-101317246D01*
X108138412Y-101251557D01*
X108327816Y-101155051D01*
X108414138Y-101092335D01*
X108499786Y-101030109D01*
X108499788Y-101030106D01*
X108499792Y-101030104D01*
X108650104Y-100879792D01*
X108650106Y-100879788D01*
X108650109Y-100879786D01*
X108775048Y-100707820D01*
X108775047Y-100707820D01*
X108775051Y-100707816D01*
X108779514Y-100699054D01*
X108827488Y-100648259D01*
X108895308Y-100631463D01*
X108961444Y-100653999D01*
X109000486Y-100699056D01*
X109004951Y-100707820D01*
X109129890Y-100879786D01*
X109280213Y-101030109D01*
X109452179Y-101155048D01*
X109452181Y-101155049D01*
X109452184Y-101155051D01*
X109641588Y-101251557D01*
X109843757Y-101317246D01*
X110053713Y-101350500D01*
X110053714Y-101350500D01*
X110266286Y-101350500D01*
X110266287Y-101350500D01*
X110476243Y-101317246D01*
X110678412Y-101251557D01*
X110867816Y-101155051D01*
X110954138Y-101092335D01*
X111039786Y-101030109D01*
X111039788Y-101030106D01*
X111039792Y-101030104D01*
X111190104Y-100879792D01*
X111190106Y-100879788D01*
X111190109Y-100879786D01*
X111315048Y-100707820D01*
X111315047Y-100707820D01*
X111315051Y-100707816D01*
X111319514Y-100699054D01*
X111367488Y-100648259D01*
X111435308Y-100631463D01*
X111501444Y-100653999D01*
X111540486Y-100699056D01*
X111544951Y-100707820D01*
X111669890Y-100879786D01*
X111820213Y-101030109D01*
X111992179Y-101155048D01*
X111992181Y-101155049D01*
X111992184Y-101155051D01*
X112181588Y-101251557D01*
X112383757Y-101317246D01*
X112593713Y-101350500D01*
X112593714Y-101350500D01*
X112806286Y-101350500D01*
X112806287Y-101350500D01*
X113016243Y-101317246D01*
X113218412Y-101251557D01*
X113407816Y-101155051D01*
X113494138Y-101092335D01*
X113579786Y-101030109D01*
X113579788Y-101030106D01*
X113579792Y-101030104D01*
X113730104Y-100879792D01*
X113730106Y-100879788D01*
X113730109Y-100879786D01*
X113855048Y-100707820D01*
X113855047Y-100707820D01*
X113855051Y-100707816D01*
X113859514Y-100699054D01*
X113907488Y-100648259D01*
X113975308Y-100631463D01*
X114041444Y-100653999D01*
X114080486Y-100699056D01*
X114084951Y-100707820D01*
X114209890Y-100879786D01*
X114360213Y-101030109D01*
X114532179Y-101155048D01*
X114532181Y-101155049D01*
X114532184Y-101155051D01*
X114721588Y-101251557D01*
X114923757Y-101317246D01*
X115133713Y-101350500D01*
X115133714Y-101350500D01*
X115346286Y-101350500D01*
X115346287Y-101350500D01*
X115556243Y-101317246D01*
X115758412Y-101251557D01*
X115947816Y-101155051D01*
X116034138Y-101092335D01*
X116119786Y-101030109D01*
X116119788Y-101030106D01*
X116119792Y-101030104D01*
X116270104Y-100879792D01*
X116270106Y-100879788D01*
X116270109Y-100879786D01*
X116395048Y-100707820D01*
X116395047Y-100707820D01*
X116395051Y-100707816D01*
X116399514Y-100699054D01*
X116447488Y-100648259D01*
X116515308Y-100631463D01*
X116581444Y-100653999D01*
X116620486Y-100699056D01*
X116624951Y-100707820D01*
X116749890Y-100879786D01*
X116900213Y-101030109D01*
X117072179Y-101155048D01*
X117072181Y-101155049D01*
X117072184Y-101155051D01*
X117261588Y-101251557D01*
X117463757Y-101317246D01*
X117673713Y-101350500D01*
X117673714Y-101350500D01*
X117886286Y-101350500D01*
X117886287Y-101350500D01*
X118096243Y-101317246D01*
X118298412Y-101251557D01*
X118487816Y-101155051D01*
X118574138Y-101092335D01*
X118659786Y-101030109D01*
X118659788Y-101030106D01*
X118659792Y-101030104D01*
X118810104Y-100879792D01*
X118810106Y-100879788D01*
X118810109Y-100879786D01*
X118935048Y-100707820D01*
X118935047Y-100707820D01*
X118935051Y-100707816D01*
X118939514Y-100699054D01*
X118987488Y-100648259D01*
X119055308Y-100631463D01*
X119121444Y-100653999D01*
X119160486Y-100699056D01*
X119164951Y-100707820D01*
X119289890Y-100879786D01*
X119440213Y-101030109D01*
X119612179Y-101155048D01*
X119612181Y-101155049D01*
X119612184Y-101155051D01*
X119801588Y-101251557D01*
X120003757Y-101317246D01*
X120213713Y-101350500D01*
X120213714Y-101350500D01*
X120426286Y-101350500D01*
X120426287Y-101350500D01*
X120636243Y-101317246D01*
X120838412Y-101251557D01*
X121027816Y-101155051D01*
X121114138Y-101092335D01*
X121199786Y-101030109D01*
X121199788Y-101030106D01*
X121199792Y-101030104D01*
X121350104Y-100879792D01*
X121350106Y-100879788D01*
X121350109Y-100879786D01*
X121475048Y-100707820D01*
X121475047Y-100707820D01*
X121475051Y-100707816D01*
X121479514Y-100699054D01*
X121527488Y-100648259D01*
X121595308Y-100631463D01*
X121661444Y-100653999D01*
X121700486Y-100699056D01*
X121704951Y-100707820D01*
X121829890Y-100879786D01*
X121980213Y-101030109D01*
X122152179Y-101155048D01*
X122152181Y-101155049D01*
X122152184Y-101155051D01*
X122341588Y-101251557D01*
X122543757Y-101317246D01*
X122753713Y-101350500D01*
X122753714Y-101350500D01*
X122966286Y-101350500D01*
X122966287Y-101350500D01*
X123176243Y-101317246D01*
X123378412Y-101251557D01*
X123567816Y-101155051D01*
X123654138Y-101092335D01*
X123739786Y-101030109D01*
X123739788Y-101030106D01*
X123739792Y-101030104D01*
X123890104Y-100879792D01*
X123890106Y-100879788D01*
X123890109Y-100879786D01*
X124015048Y-100707820D01*
X124015047Y-100707820D01*
X124015051Y-100707816D01*
X124019514Y-100699054D01*
X124067488Y-100648259D01*
X124135308Y-100631463D01*
X124201444Y-100653999D01*
X124240486Y-100699056D01*
X124244951Y-100707820D01*
X124369890Y-100879786D01*
X124520213Y-101030109D01*
X124692179Y-101155048D01*
X124692181Y-101155049D01*
X124692184Y-101155051D01*
X124881588Y-101251557D01*
X125083757Y-101317246D01*
X125293713Y-101350500D01*
X125293714Y-101350500D01*
X125506286Y-101350500D01*
X125506287Y-101350500D01*
X125716243Y-101317246D01*
X125918412Y-101251557D01*
X126107816Y-101155051D01*
X126194138Y-101092335D01*
X126279786Y-101030109D01*
X126279788Y-101030106D01*
X126279792Y-101030104D01*
X126430104Y-100879792D01*
X126430106Y-100879788D01*
X126430109Y-100879786D01*
X126555048Y-100707820D01*
X126555047Y-100707820D01*
X126555051Y-100707816D01*
X126559514Y-100699054D01*
X126607488Y-100648259D01*
X126675308Y-100631463D01*
X126741444Y-100653999D01*
X126780486Y-100699056D01*
X126784951Y-100707820D01*
X126909890Y-100879786D01*
X127060213Y-101030109D01*
X127232179Y-101155048D01*
X127232181Y-101155049D01*
X127232184Y-101155051D01*
X127421588Y-101251557D01*
X127623757Y-101317246D01*
X127833713Y-101350500D01*
X127833714Y-101350500D01*
X128046286Y-101350500D01*
X128046287Y-101350500D01*
X128256243Y-101317246D01*
X128458412Y-101251557D01*
X128647816Y-101155051D01*
X128734138Y-101092335D01*
X128819786Y-101030109D01*
X128819788Y-101030106D01*
X128819792Y-101030104D01*
X128970104Y-100879792D01*
X128970106Y-100879788D01*
X128970109Y-100879786D01*
X129095048Y-100707820D01*
X129095047Y-100707820D01*
X129095051Y-100707816D01*
X129099514Y-100699054D01*
X129147488Y-100648259D01*
X129215308Y-100631463D01*
X129281444Y-100653999D01*
X129320486Y-100699056D01*
X129324951Y-100707820D01*
X129449890Y-100879786D01*
X129600213Y-101030109D01*
X129772179Y-101155048D01*
X129772181Y-101155049D01*
X129772184Y-101155051D01*
X129961588Y-101251557D01*
X130163757Y-101317246D01*
X130373713Y-101350500D01*
X130373714Y-101350500D01*
X130586286Y-101350500D01*
X130586287Y-101350500D01*
X130796243Y-101317246D01*
X130998412Y-101251557D01*
X131187816Y-101155051D01*
X131274138Y-101092335D01*
X131359786Y-101030109D01*
X131359788Y-101030106D01*
X131359792Y-101030104D01*
X131510104Y-100879792D01*
X131510106Y-100879788D01*
X131510109Y-100879786D01*
X131635048Y-100707820D01*
X131635047Y-100707820D01*
X131635051Y-100707816D01*
X131639514Y-100699054D01*
X131687488Y-100648259D01*
X131755308Y-100631463D01*
X131821444Y-100653999D01*
X131860486Y-100699056D01*
X131864951Y-100707820D01*
X131989890Y-100879786D01*
X132140213Y-101030109D01*
X132312179Y-101155048D01*
X132312181Y-101155049D01*
X132312184Y-101155051D01*
X132501588Y-101251557D01*
X132703757Y-101317246D01*
X132913713Y-101350500D01*
X132913714Y-101350500D01*
X133126286Y-101350500D01*
X133126287Y-101350500D01*
X133336243Y-101317246D01*
X133538412Y-101251557D01*
X133727816Y-101155051D01*
X133814138Y-101092335D01*
X133899786Y-101030109D01*
X133899788Y-101030106D01*
X133899792Y-101030104D01*
X134050104Y-100879792D01*
X134050106Y-100879788D01*
X134050109Y-100879786D01*
X134175048Y-100707820D01*
X134175047Y-100707820D01*
X134175051Y-100707816D01*
X134179514Y-100699054D01*
X134227488Y-100648259D01*
X134295308Y-100631463D01*
X134361444Y-100653999D01*
X134400486Y-100699056D01*
X134404951Y-100707820D01*
X134529890Y-100879786D01*
X134680213Y-101030109D01*
X134852179Y-101155048D01*
X134852181Y-101155049D01*
X134852184Y-101155051D01*
X135041588Y-101251557D01*
X135243757Y-101317246D01*
X135453713Y-101350500D01*
X135453714Y-101350500D01*
X135666286Y-101350500D01*
X135666287Y-101350500D01*
X135876243Y-101317246D01*
X136078412Y-101251557D01*
X136267816Y-101155051D01*
X136354138Y-101092335D01*
X136439786Y-101030109D01*
X136439788Y-101030106D01*
X136439792Y-101030104D01*
X136590104Y-100879792D01*
X136590106Y-100879788D01*
X136590109Y-100879786D01*
X136715048Y-100707820D01*
X136715047Y-100707820D01*
X136715051Y-100707816D01*
X136719514Y-100699054D01*
X136767488Y-100648259D01*
X136835308Y-100631463D01*
X136901444Y-100653999D01*
X136940486Y-100699056D01*
X136944951Y-100707820D01*
X137069890Y-100879786D01*
X137220213Y-101030109D01*
X137392179Y-101155048D01*
X137392181Y-101155049D01*
X137392184Y-101155051D01*
X137581588Y-101251557D01*
X137783757Y-101317246D01*
X137993713Y-101350500D01*
X137993714Y-101350500D01*
X138206286Y-101350500D01*
X138206287Y-101350500D01*
X138416243Y-101317246D01*
X138618412Y-101251557D01*
X138807816Y-101155051D01*
X138894138Y-101092335D01*
X138979786Y-101030109D01*
X138979788Y-101030106D01*
X138979792Y-101030104D01*
X139130104Y-100879792D01*
X139130106Y-100879788D01*
X139130109Y-100879786D01*
X139255048Y-100707820D01*
X139255047Y-100707820D01*
X139255051Y-100707816D01*
X139259514Y-100699054D01*
X139307488Y-100648259D01*
X139375308Y-100631463D01*
X139441444Y-100653999D01*
X139480486Y-100699056D01*
X139484951Y-100707820D01*
X139609890Y-100879786D01*
X139760213Y-101030109D01*
X139932179Y-101155048D01*
X139932181Y-101155049D01*
X139932184Y-101155051D01*
X140121588Y-101251557D01*
X140323757Y-101317246D01*
X140533713Y-101350500D01*
X140533714Y-101350500D01*
X140746286Y-101350500D01*
X140746287Y-101350500D01*
X140956243Y-101317246D01*
X141158412Y-101251557D01*
X141347816Y-101155051D01*
X141434138Y-101092335D01*
X141519786Y-101030109D01*
X141519788Y-101030106D01*
X141519792Y-101030104D01*
X141670104Y-100879792D01*
X141670106Y-100879788D01*
X141670109Y-100879786D01*
X141795048Y-100707820D01*
X141795047Y-100707820D01*
X141795051Y-100707816D01*
X141799514Y-100699054D01*
X141847488Y-100648259D01*
X141915308Y-100631463D01*
X141981444Y-100653999D01*
X142020486Y-100699056D01*
X142024951Y-100707820D01*
X142149890Y-100879786D01*
X142300213Y-101030109D01*
X142472179Y-101155048D01*
X142472181Y-101155049D01*
X142472184Y-101155051D01*
X142661588Y-101251557D01*
X142863757Y-101317246D01*
X143073713Y-101350500D01*
X143073714Y-101350500D01*
X143286286Y-101350500D01*
X143286287Y-101350500D01*
X143496243Y-101317246D01*
X143698412Y-101251557D01*
X143887816Y-101155051D01*
X143974138Y-101092335D01*
X144059786Y-101030109D01*
X144059788Y-101030106D01*
X144059792Y-101030104D01*
X144210104Y-100879792D01*
X144210106Y-100879788D01*
X144210109Y-100879786D01*
X144335048Y-100707820D01*
X144335047Y-100707820D01*
X144335051Y-100707816D01*
X144339514Y-100699054D01*
X144387488Y-100648259D01*
X144455308Y-100631463D01*
X144521444Y-100653999D01*
X144560486Y-100699056D01*
X144564951Y-100707820D01*
X144689890Y-100879786D01*
X144840213Y-101030109D01*
X145012179Y-101155048D01*
X145012181Y-101155049D01*
X145012184Y-101155051D01*
X145201588Y-101251557D01*
X145403757Y-101317246D01*
X145613713Y-101350500D01*
X145613714Y-101350500D01*
X145826286Y-101350500D01*
X145826287Y-101350500D01*
X146036243Y-101317246D01*
X146238412Y-101251557D01*
X146427816Y-101155051D01*
X146514138Y-101092335D01*
X146599786Y-101030109D01*
X146599788Y-101030106D01*
X146599792Y-101030104D01*
X146750104Y-100879792D01*
X146750106Y-100879788D01*
X146750109Y-100879786D01*
X146875048Y-100707820D01*
X146875047Y-100707820D01*
X146875051Y-100707816D01*
X146879514Y-100699054D01*
X146927488Y-100648259D01*
X146995308Y-100631463D01*
X147061444Y-100653999D01*
X147100486Y-100699056D01*
X147104951Y-100707820D01*
X147229890Y-100879786D01*
X147380213Y-101030109D01*
X147552179Y-101155048D01*
X147552181Y-101155049D01*
X147552184Y-101155051D01*
X147741588Y-101251557D01*
X147943757Y-101317246D01*
X148153713Y-101350500D01*
X148153714Y-101350500D01*
X148366286Y-101350500D01*
X148366287Y-101350500D01*
X148576243Y-101317246D01*
X148778412Y-101251557D01*
X148967816Y-101155051D01*
X149054138Y-101092335D01*
X149139786Y-101030109D01*
X149139788Y-101030106D01*
X149139792Y-101030104D01*
X149290104Y-100879792D01*
X149290106Y-100879788D01*
X149290109Y-100879786D01*
X149375890Y-100761717D01*
X149415051Y-100707816D01*
X149419793Y-100698508D01*
X149467763Y-100647711D01*
X149535583Y-100630911D01*
X149601719Y-100653445D01*
X149640763Y-100698500D01*
X149645373Y-100707547D01*
X149684728Y-100761716D01*
X150317037Y-100129408D01*
X150334075Y-100192993D01*
X150399901Y-100307007D01*
X150492993Y-100400099D01*
X150607007Y-100465925D01*
X150670590Y-100482962D01*
X150038282Y-101115269D01*
X150038282Y-101115270D01*
X150092449Y-101154624D01*
X150281782Y-101251095D01*
X150483870Y-101316757D01*
X150693754Y-101350000D01*
X150906246Y-101350000D01*
X151116127Y-101316757D01*
X151116130Y-101316757D01*
X151318217Y-101251095D01*
X151507554Y-101154622D01*
X151561716Y-101115270D01*
X151561717Y-101115270D01*
X150929408Y-100482962D01*
X150992993Y-100465925D01*
X151107007Y-100400099D01*
X151200099Y-100307007D01*
X151265925Y-100192993D01*
X151282962Y-100129409D01*
X151915270Y-100761717D01*
X151915270Y-100761716D01*
X151954622Y-100707555D01*
X151959232Y-100698507D01*
X152007205Y-100647709D01*
X152075025Y-100630912D01*
X152141161Y-100653447D01*
X152180204Y-100698504D01*
X152184949Y-100707817D01*
X152309890Y-100879786D01*
X152460213Y-101030109D01*
X152632179Y-101155048D01*
X152632181Y-101155049D01*
X152632184Y-101155051D01*
X152821588Y-101251557D01*
X153023757Y-101317246D01*
X153233713Y-101350500D01*
X153233714Y-101350500D01*
X153446286Y-101350500D01*
X153446287Y-101350500D01*
X153656243Y-101317246D01*
X153858412Y-101251557D01*
X154047816Y-101155051D01*
X154134138Y-101092335D01*
X154219786Y-101030109D01*
X154219788Y-101030106D01*
X154219792Y-101030104D01*
X154370104Y-100879792D01*
X154370106Y-100879788D01*
X154370109Y-100879786D01*
X154455890Y-100761717D01*
X154495051Y-100707816D01*
X154499793Y-100698508D01*
X154547763Y-100647711D01*
X154615583Y-100630911D01*
X154681719Y-100653445D01*
X154720763Y-100698500D01*
X154725373Y-100707547D01*
X154764728Y-100761716D01*
X155397037Y-100129408D01*
X155414075Y-100192993D01*
X155479901Y-100307007D01*
X155572993Y-100400099D01*
X155687007Y-100465925D01*
X155750590Y-100482962D01*
X155118282Y-101115269D01*
X155118282Y-101115270D01*
X155172449Y-101154624D01*
X155361782Y-101251095D01*
X155563870Y-101316757D01*
X155773754Y-101350000D01*
X155986246Y-101350000D01*
X156196127Y-101316757D01*
X156196130Y-101316757D01*
X156398217Y-101251095D01*
X156587554Y-101154622D01*
X156641716Y-101115270D01*
X156641717Y-101115270D01*
X156009408Y-100482962D01*
X156072993Y-100465925D01*
X156187007Y-100400099D01*
X156280099Y-100307007D01*
X156345925Y-100192993D01*
X156362962Y-100129409D01*
X156995270Y-100761717D01*
X156995270Y-100761716D01*
X157034622Y-100707554D01*
X157131095Y-100518217D01*
X157196757Y-100316130D01*
X157196757Y-100316127D01*
X157230000Y-100106246D01*
X157230000Y-99893753D01*
X157196757Y-99683872D01*
X157196757Y-99683869D01*
X157131095Y-99481782D01*
X157034624Y-99292449D01*
X156995270Y-99238282D01*
X156995269Y-99238282D01*
X156362962Y-99870590D01*
X156345925Y-99807007D01*
X156280099Y-99692993D01*
X156187007Y-99599901D01*
X156072993Y-99534075D01*
X156009409Y-99517037D01*
X156641716Y-98884728D01*
X156587550Y-98845375D01*
X156398217Y-98748904D01*
X156196129Y-98683242D01*
X155986246Y-98650000D01*
X155773754Y-98650000D01*
X155563872Y-98683242D01*
X155563869Y-98683242D01*
X155361782Y-98748904D01*
X155172439Y-98845380D01*
X155118282Y-98884727D01*
X155118282Y-98884728D01*
X155750591Y-99517037D01*
X155687007Y-99534075D01*
X155572993Y-99599901D01*
X155479901Y-99692993D01*
X155414075Y-99807007D01*
X155397037Y-99870591D01*
X154764728Y-99238282D01*
X154764727Y-99238282D01*
X154725380Y-99292440D01*
X154725376Y-99292446D01*
X154720760Y-99301505D01*
X154672781Y-99352297D01*
X154604959Y-99369087D01*
X154538826Y-99346543D01*
X154499794Y-99301493D01*
X154495051Y-99292184D01*
X154495049Y-99292181D01*
X154495048Y-99292179D01*
X154370109Y-99120213D01*
X154219786Y-98969890D01*
X154047820Y-98844951D01*
X153858414Y-98748444D01*
X153858413Y-98748443D01*
X153858412Y-98748443D01*
X153656243Y-98682754D01*
X153656241Y-98682753D01*
X153656240Y-98682753D01*
X153494957Y-98657208D01*
X153446287Y-98649500D01*
X153233713Y-98649500D01*
X153185042Y-98657208D01*
X153023760Y-98682753D01*
X152821585Y-98748444D01*
X152632179Y-98844951D01*
X152460213Y-98969890D01*
X152309890Y-99120213D01*
X152184949Y-99292182D01*
X152180202Y-99301499D01*
X152132227Y-99352293D01*
X152064405Y-99369087D01*
X151998271Y-99346548D01*
X151959234Y-99301495D01*
X151954626Y-99292452D01*
X151915270Y-99238282D01*
X151915269Y-99238282D01*
X151282962Y-99870590D01*
X151265925Y-99807007D01*
X151200099Y-99692993D01*
X151107007Y-99599901D01*
X150992993Y-99534075D01*
X150929409Y-99517037D01*
X151561716Y-98884728D01*
X151507550Y-98845375D01*
X151318217Y-98748904D01*
X151116129Y-98683242D01*
X150906246Y-98650000D01*
X150693754Y-98650000D01*
X150483872Y-98683242D01*
X150483869Y-98683242D01*
X150281782Y-98748904D01*
X150092439Y-98845380D01*
X150038282Y-98884727D01*
X150038282Y-98884728D01*
X150670591Y-99517037D01*
X150607007Y-99534075D01*
X150492993Y-99599901D01*
X150399901Y-99692993D01*
X150334075Y-99807007D01*
X150317037Y-99870591D01*
X149684728Y-99238282D01*
X149684727Y-99238282D01*
X149645380Y-99292440D01*
X149645376Y-99292446D01*
X149640760Y-99301505D01*
X149592781Y-99352297D01*
X149524959Y-99369087D01*
X149458826Y-99346543D01*
X149419794Y-99301493D01*
X149415051Y-99292184D01*
X149415049Y-99292181D01*
X149415048Y-99292179D01*
X149290109Y-99120213D01*
X149139786Y-98969890D01*
X148967820Y-98844951D01*
X148913279Y-98817161D01*
X148848058Y-98783929D01*
X148797263Y-98735956D01*
X148780468Y-98668135D01*
X148803005Y-98602000D01*
X148857720Y-98558548D01*
X148916508Y-98550042D01*
X148921158Y-98550500D01*
X149078844Y-98550500D01*
X149078845Y-98550499D01*
X149233497Y-98519737D01*
X149379179Y-98459394D01*
X149510289Y-98371789D01*
X149621789Y-98260289D01*
X149709394Y-98129179D01*
X149769737Y-97983497D01*
X149800500Y-97828842D01*
X149800500Y-97671158D01*
X149800500Y-97671155D01*
X149800499Y-97671153D01*
X149778269Y-97559397D01*
X149769737Y-97516503D01*
X149743837Y-97453977D01*
X149736369Y-97384509D01*
X149745100Y-97356134D01*
X149749406Y-97346451D01*
X149759882Y-97330774D01*
X149784578Y-97271153D01*
X151049500Y-97271153D01*
X151049500Y-97428846D01*
X151080261Y-97583489D01*
X151080264Y-97583501D01*
X151140602Y-97729172D01*
X151140609Y-97729185D01*
X151228210Y-97860288D01*
X151228213Y-97860292D01*
X151339707Y-97971786D01*
X151339711Y-97971789D01*
X151470814Y-98059390D01*
X151470827Y-98059397D01*
X151616498Y-98119735D01*
X151616503Y-98119737D01*
X151771153Y-98150499D01*
X151771156Y-98150500D01*
X151771158Y-98150500D01*
X151928844Y-98150500D01*
X151928845Y-98150499D01*
X152083497Y-98119737D01*
X152229179Y-98059394D01*
X152360289Y-97971789D01*
X152362312Y-97969766D01*
X152363634Y-97969043D01*
X152364999Y-97967924D01*
X152365211Y-97968182D01*
X152423632Y-97936276D01*
X152493324Y-97941255D01*
X152534939Y-97967999D01*
X152535001Y-97967924D01*
X152535648Y-97968454D01*
X152537688Y-97969766D01*
X152539711Y-97971789D01*
X152670814Y-98059390D01*
X152670827Y-98059397D01*
X152816498Y-98119735D01*
X152816503Y-98119737D01*
X152971153Y-98150499D01*
X152971156Y-98150500D01*
X152971158Y-98150500D01*
X153128844Y-98150500D01*
X153128845Y-98150499D01*
X153283497Y-98119737D01*
X153429179Y-98059394D01*
X153538609Y-97986274D01*
X153605286Y-97965397D01*
X153672666Y-97983881D01*
X153676385Y-97986271D01*
X153785821Y-98059394D01*
X153785823Y-98059395D01*
X153785827Y-98059397D01*
X153931498Y-98119735D01*
X153931503Y-98119737D01*
X154086153Y-98150499D01*
X154086156Y-98150500D01*
X154086158Y-98150500D01*
X154243844Y-98150500D01*
X154243845Y-98150499D01*
X154398497Y-98119737D01*
X154544179Y-98059394D01*
X154675289Y-97971789D01*
X154786789Y-97860289D01*
X154874394Y-97729179D01*
X154934737Y-97583497D01*
X154965500Y-97428842D01*
X154965500Y-97271158D01*
X154965500Y-97271155D01*
X154965499Y-97271153D01*
X154948380Y-97185092D01*
X154934737Y-97116503D01*
X154921062Y-97083489D01*
X154874397Y-96970827D01*
X154874390Y-96970814D01*
X154786789Y-96839711D01*
X154786786Y-96839707D01*
X154675292Y-96728213D01*
X154675288Y-96728210D01*
X154544185Y-96640609D01*
X154544172Y-96640602D01*
X154398501Y-96580264D01*
X154398489Y-96580261D01*
X154243845Y-96549500D01*
X154243842Y-96549500D01*
X154086158Y-96549500D01*
X154086155Y-96549500D01*
X153931510Y-96580261D01*
X153931498Y-96580264D01*
X153785827Y-96640602D01*
X153785814Y-96640609D01*
X153676391Y-96713724D01*
X153609713Y-96734602D01*
X153542333Y-96716117D01*
X153538609Y-96713724D01*
X153429185Y-96640609D01*
X153429172Y-96640602D01*
X153283501Y-96580264D01*
X153283489Y-96580261D01*
X153128845Y-96549500D01*
X153128842Y-96549500D01*
X152971158Y-96549500D01*
X152971155Y-96549500D01*
X152816510Y-96580261D01*
X152816498Y-96580264D01*
X152670827Y-96640602D01*
X152670814Y-96640609D01*
X152539711Y-96728210D01*
X152539707Y-96728213D01*
X152537681Y-96730240D01*
X152536357Y-96730962D01*
X152535001Y-96732076D01*
X152534789Y-96731818D01*
X152476358Y-96763725D01*
X152406666Y-96758741D01*
X152365060Y-96732001D01*
X152364999Y-96732076D01*
X152364360Y-96731552D01*
X152362319Y-96730240D01*
X152360292Y-96728213D01*
X152360288Y-96728210D01*
X152229185Y-96640609D01*
X152229172Y-96640602D01*
X152083501Y-96580264D01*
X152083489Y-96580261D01*
X151928845Y-96549500D01*
X151928842Y-96549500D01*
X151771158Y-96549500D01*
X151771155Y-96549500D01*
X151616510Y-96580261D01*
X151616498Y-96580264D01*
X151470827Y-96640602D01*
X151470814Y-96640609D01*
X151339711Y-96728210D01*
X151339707Y-96728213D01*
X151228213Y-96839707D01*
X151228210Y-96839711D01*
X151140609Y-96970814D01*
X151140602Y-96970827D01*
X151080264Y-97116498D01*
X151080261Y-97116510D01*
X151049500Y-97271153D01*
X149784578Y-97271153D01*
X149820225Y-97185092D01*
X149850988Y-97030437D01*
X149850988Y-96872753D01*
X149850988Y-96872750D01*
X149850987Y-96872748D01*
X149840081Y-96817922D01*
X149820225Y-96718098D01*
X149820223Y-96718093D01*
X149759885Y-96572422D01*
X149759878Y-96572409D01*
X149672277Y-96441306D01*
X149672274Y-96441302D01*
X149560780Y-96329808D01*
X149560776Y-96329805D01*
X149429673Y-96242204D01*
X149429660Y-96242197D01*
X149283989Y-96181859D01*
X149283977Y-96181856D01*
X149129333Y-96151095D01*
X149129330Y-96151095D01*
X149024948Y-96151095D01*
X148957909Y-96131410D01*
X148912154Y-96078606D01*
X148902210Y-96009448D01*
X148910387Y-95979643D01*
X148951997Y-95879185D01*
X148959498Y-95861076D01*
X148990261Y-95706421D01*
X148990261Y-95548737D01*
X148990261Y-95548734D01*
X148968484Y-95439258D01*
X148964883Y-95421153D01*
X155099500Y-95421153D01*
X155099500Y-95578846D01*
X155130261Y-95733489D01*
X155130264Y-95733501D01*
X155190602Y-95879172D01*
X155190609Y-95879185D01*
X155278210Y-96010288D01*
X155278213Y-96010292D01*
X155389707Y-96121786D01*
X155389711Y-96121789D01*
X155520814Y-96209390D01*
X155520827Y-96209397D01*
X155619302Y-96250186D01*
X155666503Y-96269737D01*
X155816131Y-96299500D01*
X155821153Y-96300499D01*
X155821156Y-96300500D01*
X155821158Y-96300500D01*
X155978844Y-96300500D01*
X155978845Y-96300499D01*
X156133497Y-96269737D01*
X156279179Y-96209394D01*
X156410289Y-96121789D01*
X156521789Y-96010289D01*
X156609394Y-95879179D01*
X156669737Y-95733497D01*
X156700500Y-95578842D01*
X156700500Y-95421158D01*
X156700500Y-95421155D01*
X156700499Y-95421153D01*
X156669738Y-95266510D01*
X156669737Y-95266503D01*
X156669735Y-95266498D01*
X156609397Y-95120827D01*
X156609390Y-95120814D01*
X156521789Y-94989711D01*
X156521786Y-94989707D01*
X156410292Y-94878213D01*
X156410288Y-94878210D01*
X156279185Y-94790609D01*
X156279172Y-94790602D01*
X156133501Y-94730264D01*
X156133489Y-94730261D01*
X155978845Y-94699500D01*
X155978842Y-94699500D01*
X155821158Y-94699500D01*
X155821155Y-94699500D01*
X155666510Y-94730261D01*
X155666498Y-94730264D01*
X155520827Y-94790602D01*
X155520814Y-94790609D01*
X155389711Y-94878210D01*
X155389707Y-94878213D01*
X155278213Y-94989707D01*
X155278210Y-94989711D01*
X155190609Y-95120814D01*
X155190602Y-95120827D01*
X155130264Y-95266498D01*
X155130261Y-95266510D01*
X155099500Y-95421153D01*
X148964883Y-95421153D01*
X148959498Y-95394082D01*
X148936977Y-95339711D01*
X148899158Y-95248406D01*
X148899151Y-95248393D01*
X148859531Y-95189098D01*
X148838653Y-95122421D01*
X148857137Y-95055041D01*
X148909116Y-95008350D01*
X148938438Y-94998591D01*
X149083497Y-94969737D01*
X149229179Y-94909394D01*
X149360289Y-94821789D01*
X149471789Y-94710289D01*
X149510581Y-94652233D01*
X149564193Y-94607428D01*
X149633518Y-94598721D01*
X149696545Y-94628875D01*
X149701364Y-94633443D01*
X149739707Y-94671786D01*
X149739711Y-94671789D01*
X149870814Y-94759390D01*
X149870827Y-94759397D01*
X149946181Y-94790609D01*
X150016503Y-94819737D01*
X150171153Y-94850499D01*
X150171156Y-94850500D01*
X150171158Y-94850500D01*
X150328844Y-94850500D01*
X150328845Y-94850499D01*
X150483497Y-94819737D01*
X150629179Y-94759394D01*
X150760289Y-94671789D01*
X150871789Y-94560289D01*
X150959394Y-94429179D01*
X151019737Y-94283497D01*
X151050500Y-94128842D01*
X151050500Y-93971158D01*
X151050500Y-93971155D01*
X151050499Y-93971153D01*
X151027165Y-93853846D01*
X151019737Y-93816503D01*
X150998611Y-93765499D01*
X150959397Y-93670827D01*
X150959390Y-93670814D01*
X150871789Y-93539711D01*
X150871786Y-93539707D01*
X150760292Y-93428213D01*
X150760288Y-93428210D01*
X150629185Y-93340609D01*
X150629172Y-93340602D01*
X150483501Y-93280264D01*
X150483489Y-93280261D01*
X150328845Y-93249500D01*
X150328842Y-93249500D01*
X150171158Y-93249500D01*
X150171155Y-93249500D01*
X150016510Y-93280261D01*
X150016498Y-93280264D01*
X149870827Y-93340602D01*
X149870814Y-93340609D01*
X149739711Y-93428210D01*
X149739707Y-93428213D01*
X149628210Y-93539710D01*
X149589419Y-93597767D01*
X149535807Y-93642572D01*
X149466482Y-93651279D01*
X149403455Y-93621125D01*
X149398636Y-93616557D01*
X149360292Y-93578213D01*
X149360288Y-93578210D01*
X149229185Y-93490609D01*
X149229172Y-93490602D01*
X149083501Y-93430264D01*
X149083489Y-93430261D01*
X148928845Y-93399500D01*
X148928842Y-93399500D01*
X148771158Y-93399500D01*
X148771155Y-93399500D01*
X148616510Y-93430261D01*
X148616498Y-93430264D01*
X148470827Y-93490602D01*
X148470814Y-93490609D01*
X148339714Y-93578208D01*
X148280396Y-93637525D01*
X148219072Y-93671009D01*
X148180569Y-93673246D01*
X148177004Y-93672895D01*
X148019320Y-93672895D01*
X148019317Y-93672895D01*
X147864672Y-93703656D01*
X147864660Y-93703659D01*
X147718989Y-93763997D01*
X147718976Y-93764004D01*
X147587873Y-93851605D01*
X147587869Y-93851608D01*
X147476375Y-93963102D01*
X147476372Y-93963106D01*
X147388771Y-94094209D01*
X147388764Y-94094222D01*
X147328426Y-94239893D01*
X147328423Y-94239905D01*
X147297662Y-94394548D01*
X147297662Y-94394553D01*
X147297662Y-94552237D01*
X147297662Y-94552239D01*
X147297661Y-94552239D01*
X147302542Y-94576772D01*
X147296315Y-94646364D01*
X147253452Y-94701541D01*
X147205119Y-94722581D01*
X147166505Y-94730262D01*
X147166498Y-94730264D01*
X147020827Y-94790602D01*
X147020814Y-94790609D01*
X146889711Y-94878210D01*
X146889707Y-94878213D01*
X146778213Y-94989707D01*
X146778210Y-94989711D01*
X146690609Y-95120814D01*
X146690602Y-95120827D01*
X146630264Y-95266498D01*
X146630261Y-95266510D01*
X146599500Y-95421153D01*
X146599500Y-95578846D01*
X146630261Y-95733489D01*
X146630264Y-95733501D01*
X146690602Y-95879172D01*
X146690609Y-95879185D01*
X146778210Y-96010288D01*
X146778213Y-96010292D01*
X146889707Y-96121786D01*
X146889711Y-96121789D01*
X147020814Y-96209390D01*
X147020827Y-96209397D01*
X147119302Y-96250186D01*
X147166503Y-96269737D01*
X147316131Y-96299500D01*
X147321153Y-96300499D01*
X147321156Y-96300500D01*
X147321158Y-96300500D01*
X147478844Y-96300500D01*
X147478845Y-96300499D01*
X147549888Y-96286368D01*
X147639472Y-96268549D01*
X147639905Y-96270728D01*
X147699792Y-96270176D01*
X147734846Y-96286368D01*
X147810575Y-96336969D01*
X147810588Y-96336976D01*
X147956259Y-96397314D01*
X147956264Y-96397316D01*
X148110914Y-96428078D01*
X148110917Y-96428079D01*
X148215301Y-96428079D01*
X148282340Y-96447764D01*
X148328095Y-96500568D01*
X148338039Y-96569726D01*
X148329862Y-96599531D01*
X148280752Y-96718093D01*
X148280749Y-96718105D01*
X148249988Y-96872748D01*
X148249988Y-97030441D01*
X148280749Y-97185084D01*
X148280751Y-97185092D01*
X148299012Y-97229179D01*
X148306649Y-97247615D01*
X148314118Y-97317085D01*
X148295194Y-97363953D01*
X148290611Y-97370812D01*
X148290602Y-97370828D01*
X148230264Y-97516498D01*
X148230261Y-97516510D01*
X148199500Y-97671153D01*
X148199500Y-97828846D01*
X148230261Y-97983489D01*
X148230264Y-97983501D01*
X148290602Y-98129172D01*
X148290609Y-98129185D01*
X148378210Y-98260288D01*
X148378213Y-98260292D01*
X148489707Y-98371786D01*
X148489711Y-98371789D01*
X148602894Y-98447416D01*
X148647699Y-98501028D01*
X148656406Y-98570353D01*
X148626252Y-98633381D01*
X148566808Y-98670100D01*
X148514605Y-98672991D01*
X148406180Y-98655818D01*
X148366287Y-98649500D01*
X148153713Y-98649500D01*
X148105042Y-98657208D01*
X147943760Y-98682753D01*
X147741585Y-98748444D01*
X147552179Y-98844951D01*
X147380213Y-98969890D01*
X147229890Y-99120213D01*
X147104949Y-99292182D01*
X147100484Y-99300946D01*
X147052509Y-99351742D01*
X146984688Y-99368536D01*
X146918553Y-99345998D01*
X146879516Y-99300946D01*
X146875050Y-99292182D01*
X146750109Y-99120213D01*
X146599786Y-98969890D01*
X146427820Y-98844951D01*
X146238414Y-98748444D01*
X146238413Y-98748443D01*
X146238412Y-98748443D01*
X146036243Y-98682754D01*
X146036241Y-98682753D01*
X146036240Y-98682753D01*
X145874957Y-98657208D01*
X145826287Y-98649500D01*
X145613713Y-98649500D01*
X145565042Y-98657208D01*
X145403760Y-98682753D01*
X145201585Y-98748444D01*
X145012179Y-98844951D01*
X144840213Y-98969890D01*
X144689890Y-99120213D01*
X144564949Y-99292182D01*
X144560484Y-99300946D01*
X144512509Y-99351742D01*
X144444688Y-99368536D01*
X144378553Y-99345998D01*
X144339516Y-99300946D01*
X144335050Y-99292182D01*
X144210109Y-99120213D01*
X144059786Y-98969890D01*
X143887820Y-98844951D01*
X143698414Y-98748444D01*
X143698413Y-98748443D01*
X143698412Y-98748443D01*
X143496243Y-98682754D01*
X143496241Y-98682753D01*
X143496240Y-98682753D01*
X143334957Y-98657208D01*
X143286287Y-98649500D01*
X143073713Y-98649500D01*
X143025042Y-98657208D01*
X142863760Y-98682753D01*
X142661585Y-98748444D01*
X142472179Y-98844951D01*
X142300213Y-98969890D01*
X142149890Y-99120213D01*
X142024949Y-99292182D01*
X142020484Y-99300946D01*
X141972509Y-99351742D01*
X141904688Y-99368536D01*
X141838553Y-99345998D01*
X141799516Y-99300946D01*
X141795050Y-99292182D01*
X141670109Y-99120213D01*
X141519786Y-98969890D01*
X141347820Y-98844951D01*
X141158414Y-98748444D01*
X141158413Y-98748443D01*
X141158412Y-98748443D01*
X140956243Y-98682754D01*
X140956241Y-98682753D01*
X140956240Y-98682753D01*
X140794957Y-98657208D01*
X140746287Y-98649500D01*
X140533713Y-98649500D01*
X140485042Y-98657208D01*
X140323760Y-98682753D01*
X140121585Y-98748444D01*
X139932179Y-98844951D01*
X139760213Y-98969890D01*
X139609890Y-99120213D01*
X139484949Y-99292182D01*
X139480484Y-99300946D01*
X139432509Y-99351742D01*
X139364688Y-99368536D01*
X139298553Y-99345998D01*
X139259516Y-99300946D01*
X139255050Y-99292182D01*
X139130109Y-99120213D01*
X138979786Y-98969890D01*
X138807820Y-98844951D01*
X138618414Y-98748444D01*
X138618413Y-98748443D01*
X138618412Y-98748443D01*
X138416243Y-98682754D01*
X138416241Y-98682753D01*
X138416240Y-98682753D01*
X138254957Y-98657208D01*
X138206287Y-98649500D01*
X137993713Y-98649500D01*
X137945042Y-98657208D01*
X137783760Y-98682753D01*
X137581585Y-98748444D01*
X137392179Y-98844951D01*
X137220213Y-98969890D01*
X137069890Y-99120213D01*
X136944949Y-99292182D01*
X136940484Y-99300946D01*
X136892509Y-99351742D01*
X136824688Y-99368536D01*
X136758553Y-99345998D01*
X136719516Y-99300946D01*
X136715050Y-99292182D01*
X136590109Y-99120213D01*
X136439786Y-98969890D01*
X136267820Y-98844951D01*
X136078414Y-98748444D01*
X136078413Y-98748443D01*
X136078412Y-98748443D01*
X135876243Y-98682754D01*
X135876241Y-98682753D01*
X135876240Y-98682753D01*
X135714957Y-98657208D01*
X135666287Y-98649500D01*
X135453713Y-98649500D01*
X135405042Y-98657208D01*
X135243760Y-98682753D01*
X135041585Y-98748444D01*
X134852179Y-98844951D01*
X134680213Y-98969890D01*
X134529890Y-99120213D01*
X134404949Y-99292182D01*
X134400484Y-99300946D01*
X134352509Y-99351742D01*
X134284688Y-99368536D01*
X134218553Y-99345998D01*
X134179516Y-99300946D01*
X134175050Y-99292182D01*
X134050109Y-99120213D01*
X133899786Y-98969890D01*
X133727820Y-98844951D01*
X133538414Y-98748444D01*
X133538413Y-98748443D01*
X133538412Y-98748443D01*
X133336243Y-98682754D01*
X133336241Y-98682753D01*
X133336240Y-98682753D01*
X133174957Y-98657208D01*
X133126287Y-98649500D01*
X132913713Y-98649500D01*
X132865042Y-98657208D01*
X132703760Y-98682753D01*
X132501585Y-98748444D01*
X132312179Y-98844951D01*
X132140213Y-98969890D01*
X131989890Y-99120213D01*
X131864949Y-99292182D01*
X131860484Y-99300946D01*
X131812509Y-99351742D01*
X131744688Y-99368536D01*
X131678553Y-99345998D01*
X131639516Y-99300946D01*
X131635050Y-99292182D01*
X131510109Y-99120213D01*
X131359786Y-98969890D01*
X131187820Y-98844951D01*
X130998414Y-98748444D01*
X130998413Y-98748443D01*
X130998412Y-98748443D01*
X130796243Y-98682754D01*
X130796241Y-98682753D01*
X130796240Y-98682753D01*
X130634957Y-98657208D01*
X130586287Y-98649500D01*
X130373713Y-98649500D01*
X130325042Y-98657208D01*
X130163760Y-98682753D01*
X129961585Y-98748444D01*
X129772179Y-98844951D01*
X129600213Y-98969890D01*
X129449890Y-99120213D01*
X129324949Y-99292182D01*
X129320484Y-99300946D01*
X129272509Y-99351742D01*
X129204688Y-99368536D01*
X129138553Y-99345998D01*
X129099516Y-99300946D01*
X129095050Y-99292182D01*
X128970109Y-99120213D01*
X128819786Y-98969890D01*
X128647820Y-98844951D01*
X128458414Y-98748444D01*
X128458413Y-98748443D01*
X128458412Y-98748443D01*
X128256243Y-98682754D01*
X128256241Y-98682753D01*
X128256240Y-98682753D01*
X128094957Y-98657208D01*
X128046287Y-98649500D01*
X127833713Y-98649500D01*
X127785042Y-98657208D01*
X127623760Y-98682753D01*
X127421585Y-98748444D01*
X127232179Y-98844951D01*
X127060213Y-98969890D01*
X126909890Y-99120213D01*
X126784949Y-99292182D01*
X126780484Y-99300946D01*
X126732509Y-99351742D01*
X126664688Y-99368536D01*
X126598553Y-99345998D01*
X126559516Y-99300946D01*
X126555050Y-99292182D01*
X126430109Y-99120213D01*
X126279786Y-98969890D01*
X126107820Y-98844951D01*
X125918414Y-98748444D01*
X125918413Y-98748443D01*
X125918412Y-98748443D01*
X125716243Y-98682754D01*
X125716241Y-98682753D01*
X125716240Y-98682753D01*
X125554957Y-98657208D01*
X125506287Y-98649500D01*
X125293713Y-98649500D01*
X125245042Y-98657208D01*
X125083760Y-98682753D01*
X124881585Y-98748444D01*
X124692179Y-98844951D01*
X124520213Y-98969890D01*
X124369890Y-99120213D01*
X124244949Y-99292182D01*
X124240484Y-99300946D01*
X124192509Y-99351742D01*
X124124688Y-99368536D01*
X124058553Y-99345998D01*
X124019516Y-99300946D01*
X124015050Y-99292182D01*
X123890109Y-99120213D01*
X123739786Y-98969890D01*
X123567820Y-98844951D01*
X123378414Y-98748444D01*
X123378413Y-98748443D01*
X123378412Y-98748443D01*
X123176243Y-98682754D01*
X123176241Y-98682753D01*
X123176240Y-98682753D01*
X123014957Y-98657208D01*
X122966287Y-98649500D01*
X122753713Y-98649500D01*
X122705042Y-98657208D01*
X122543760Y-98682753D01*
X122341585Y-98748444D01*
X122152179Y-98844951D01*
X121980213Y-98969890D01*
X121829890Y-99120213D01*
X121704949Y-99292182D01*
X121700484Y-99300946D01*
X121652509Y-99351742D01*
X121584688Y-99368536D01*
X121518553Y-99345998D01*
X121479516Y-99300946D01*
X121475050Y-99292182D01*
X121350109Y-99120213D01*
X121199786Y-98969890D01*
X121027820Y-98844951D01*
X120838414Y-98748444D01*
X120838413Y-98748443D01*
X120838412Y-98748443D01*
X120636243Y-98682754D01*
X120636241Y-98682753D01*
X120636240Y-98682753D01*
X120474957Y-98657208D01*
X120426287Y-98649500D01*
X120213713Y-98649500D01*
X120165042Y-98657208D01*
X120003760Y-98682753D01*
X119801585Y-98748444D01*
X119612179Y-98844951D01*
X119440213Y-98969890D01*
X119289890Y-99120213D01*
X119164949Y-99292182D01*
X119160484Y-99300946D01*
X119112509Y-99351742D01*
X119044688Y-99368536D01*
X118978553Y-99345998D01*
X118939516Y-99300946D01*
X118935050Y-99292182D01*
X118810109Y-99120213D01*
X118659786Y-98969890D01*
X118487820Y-98844951D01*
X118298414Y-98748444D01*
X118298413Y-98748443D01*
X118298412Y-98748443D01*
X118096243Y-98682754D01*
X118096241Y-98682753D01*
X118096240Y-98682753D01*
X117934957Y-98657208D01*
X117886287Y-98649500D01*
X117673713Y-98649500D01*
X117625042Y-98657208D01*
X117463760Y-98682753D01*
X117261585Y-98748444D01*
X117072179Y-98844951D01*
X116900213Y-98969890D01*
X116749890Y-99120213D01*
X116624949Y-99292182D01*
X116620484Y-99300946D01*
X116572509Y-99351742D01*
X116504688Y-99368536D01*
X116438553Y-99345998D01*
X116399516Y-99300946D01*
X116395050Y-99292182D01*
X116270109Y-99120213D01*
X116119786Y-98969890D01*
X115947820Y-98844951D01*
X115758414Y-98748444D01*
X115758413Y-98748443D01*
X115758412Y-98748443D01*
X115556243Y-98682754D01*
X115556241Y-98682753D01*
X115556240Y-98682753D01*
X115394957Y-98657208D01*
X115346287Y-98649500D01*
X115133713Y-98649500D01*
X115085042Y-98657208D01*
X114923760Y-98682753D01*
X114721585Y-98748444D01*
X114532179Y-98844951D01*
X114360213Y-98969890D01*
X114209890Y-99120213D01*
X114084949Y-99292182D01*
X114080484Y-99300946D01*
X114032509Y-99351742D01*
X113964688Y-99368536D01*
X113898553Y-99345998D01*
X113859516Y-99300946D01*
X113855050Y-99292182D01*
X113730109Y-99120213D01*
X113579786Y-98969890D01*
X113407820Y-98844951D01*
X113218414Y-98748444D01*
X113218413Y-98748443D01*
X113218412Y-98748443D01*
X113016243Y-98682754D01*
X113016241Y-98682753D01*
X113016240Y-98682753D01*
X112854957Y-98657208D01*
X112806287Y-98649500D01*
X112593713Y-98649500D01*
X112545042Y-98657208D01*
X112383760Y-98682753D01*
X112181585Y-98748444D01*
X111992179Y-98844951D01*
X111820213Y-98969890D01*
X111669890Y-99120213D01*
X111544949Y-99292182D01*
X111540484Y-99300946D01*
X111492509Y-99351742D01*
X111424688Y-99368536D01*
X111358553Y-99345998D01*
X111319516Y-99300946D01*
X111315050Y-99292182D01*
X111190109Y-99120213D01*
X111039786Y-98969890D01*
X110867820Y-98844951D01*
X110678414Y-98748444D01*
X110678413Y-98748443D01*
X110678412Y-98748443D01*
X110476243Y-98682754D01*
X110476241Y-98682753D01*
X110476240Y-98682753D01*
X110314957Y-98657208D01*
X110266287Y-98649500D01*
X110053713Y-98649500D01*
X110005042Y-98657208D01*
X109843760Y-98682753D01*
X109641585Y-98748444D01*
X109452179Y-98844951D01*
X109280213Y-98969890D01*
X109129890Y-99120213D01*
X109004949Y-99292182D01*
X109000484Y-99300946D01*
X108952509Y-99351742D01*
X108884688Y-99368536D01*
X108818553Y-99345998D01*
X108779516Y-99300946D01*
X108775050Y-99292182D01*
X108650109Y-99120213D01*
X108499786Y-98969890D01*
X108327820Y-98844951D01*
X108138414Y-98748444D01*
X108138413Y-98748443D01*
X108138412Y-98748443D01*
X107936243Y-98682754D01*
X107936241Y-98682753D01*
X107936240Y-98682753D01*
X107774957Y-98657208D01*
X107726287Y-98649500D01*
X107513713Y-98649500D01*
X107465042Y-98657208D01*
X107303760Y-98682753D01*
X107101585Y-98748444D01*
X106912179Y-98844951D01*
X106740213Y-98969890D01*
X106589890Y-99120213D01*
X106464949Y-99292182D01*
X106460484Y-99300946D01*
X106412509Y-99351742D01*
X106344688Y-99368536D01*
X106278553Y-99345998D01*
X106239516Y-99300946D01*
X106235050Y-99292182D01*
X106110109Y-99120213D01*
X105959786Y-98969890D01*
X105787820Y-98844951D01*
X105598414Y-98748444D01*
X105598413Y-98748443D01*
X105598412Y-98748443D01*
X105396243Y-98682754D01*
X105396241Y-98682753D01*
X105396240Y-98682753D01*
X105234957Y-98657208D01*
X105186287Y-98649500D01*
X104973713Y-98649500D01*
X104925042Y-98657208D01*
X104763760Y-98682753D01*
X104561585Y-98748444D01*
X104372179Y-98844951D01*
X104200213Y-98969890D01*
X104049890Y-99120213D01*
X103924949Y-99292182D01*
X103920484Y-99300946D01*
X103872509Y-99351742D01*
X103804688Y-99368536D01*
X103738553Y-99345998D01*
X103699516Y-99300946D01*
X103695050Y-99292182D01*
X103570109Y-99120213D01*
X103419786Y-98969890D01*
X103247820Y-98844951D01*
X103058414Y-98748444D01*
X103058413Y-98748443D01*
X103058412Y-98748443D01*
X102856243Y-98682754D01*
X102856241Y-98682753D01*
X102856240Y-98682753D01*
X102694957Y-98657208D01*
X102646287Y-98649500D01*
X102433713Y-98649500D01*
X102385042Y-98657208D01*
X102223760Y-98682753D01*
X102021585Y-98748444D01*
X101832179Y-98844951D01*
X101660215Y-98969889D01*
X101546673Y-99083431D01*
X101485350Y-99116915D01*
X101415658Y-99111931D01*
X101359725Y-99070059D01*
X101342810Y-99039082D01*
X101293797Y-98907671D01*
X101293793Y-98907664D01*
X101207547Y-98792455D01*
X101207544Y-98792452D01*
X101092335Y-98706206D01*
X101092328Y-98706202D01*
X100957482Y-98655908D01*
X100957483Y-98655908D01*
X100897883Y-98649501D01*
X100897881Y-98649500D01*
X100897873Y-98649500D01*
X100897864Y-98649500D01*
X99102129Y-98649500D01*
X99102123Y-98649501D01*
X99042516Y-98655908D01*
X98907671Y-98706202D01*
X98907664Y-98706206D01*
X98792455Y-98792452D01*
X98792452Y-98792455D01*
X98706206Y-98907664D01*
X98706202Y-98907671D01*
X98655908Y-99042517D01*
X98649501Y-99102116D01*
X98649500Y-99102135D01*
X92872030Y-99102135D01*
X92875500Y-99089183D01*
X92875500Y-98950817D01*
X92839688Y-98817164D01*
X92775627Y-98706206D01*
X92770507Y-98697338D01*
X92770503Y-98697333D01*
X92672666Y-98599496D01*
X92672661Y-98599492D01*
X92552838Y-98530313D01*
X92552837Y-98530312D01*
X92552836Y-98530312D01*
X92419183Y-98494500D01*
X92280817Y-98494500D01*
X92147164Y-98530312D01*
X92147161Y-98530313D01*
X92027338Y-98599492D01*
X92027333Y-98599496D01*
X91929496Y-98697333D01*
X91929492Y-98697338D01*
X91860313Y-98817161D01*
X91860312Y-98817164D01*
X91824500Y-98950817D01*
X91824500Y-99089183D01*
X91832815Y-99120213D01*
X91860312Y-99222835D01*
X91860313Y-99222838D01*
X91929492Y-99342661D01*
X91934441Y-99349110D01*
X91931813Y-99351125D01*
X91957911Y-99398919D01*
X91952927Y-99468611D01*
X91911055Y-99524544D01*
X91884197Y-99539838D01*
X91826328Y-99563807D01*
X91826315Y-99563814D01*
X91662537Y-99673248D01*
X91662533Y-99673251D01*
X91523251Y-99812533D01*
X91523248Y-99812537D01*
X91413814Y-99976315D01*
X91413807Y-99976328D01*
X91338430Y-100158307D01*
X91338430Y-100158309D01*
X91330138Y-100200000D01*
X92133012Y-100200000D01*
X92115795Y-100209940D01*
X92059940Y-100265795D01*
X92020444Y-100334204D01*
X92000000Y-100410504D01*
X92000000Y-100489496D01*
X92020444Y-100565796D01*
X92059940Y-100634205D01*
X92115795Y-100690060D01*
X92133012Y-100700000D01*
X91330138Y-100700000D01*
X91338430Y-100741690D01*
X91338430Y-100741692D01*
X91413807Y-100923671D01*
X91413814Y-100923684D01*
X91523248Y-101087462D01*
X91523251Y-101087466D01*
X91662533Y-101226748D01*
X91662537Y-101226751D01*
X91826315Y-101336185D01*
X91826328Y-101336192D01*
X92006785Y-101410939D01*
X92061189Y-101454780D01*
X92083254Y-101521074D01*
X92065975Y-101588773D01*
X92014838Y-101636384D01*
X91959333Y-101649500D01*
X89310667Y-101649500D01*
X89243628Y-101629815D01*
X89197873Y-101577011D01*
X89187929Y-101507853D01*
X89216954Y-101444297D01*
X89263215Y-101410939D01*
X89443671Y-101336192D01*
X89443684Y-101336185D01*
X89607462Y-101226751D01*
X89607466Y-101226748D01*
X89746748Y-101087466D01*
X89746751Y-101087462D01*
X89856185Y-100923684D01*
X89856192Y-100923671D01*
X89931569Y-100741692D01*
X89931569Y-100741690D01*
X89939862Y-100700000D01*
X89136988Y-100700000D01*
X89154205Y-100690060D01*
X89210060Y-100634205D01*
X89249556Y-100565796D01*
X89270000Y-100489496D01*
X89270000Y-100410504D01*
X89249556Y-100334204D01*
X89210060Y-100265795D01*
X89154205Y-100209940D01*
X89136988Y-100200000D01*
X89939862Y-100200000D01*
X89931569Y-100158309D01*
X89931569Y-100158307D01*
X89856192Y-99976328D01*
X89856185Y-99976315D01*
X89746751Y-99812537D01*
X89746748Y-99812533D01*
X89607466Y-99673251D01*
X89607462Y-99673248D01*
X89443684Y-99563814D01*
X89443671Y-99563807D01*
X89261693Y-99488430D01*
X89261681Y-99488427D01*
X89068495Y-99450000D01*
X88920000Y-99450000D01*
X88920000Y-100150000D01*
X88420000Y-100150000D01*
X88420000Y-99450000D01*
X88271504Y-99450000D01*
X88078318Y-99488427D01*
X88078306Y-99488430D01*
X88021952Y-99511773D01*
X87952483Y-99519242D01*
X87890004Y-99487966D01*
X87854352Y-99427877D01*
X87850500Y-99397212D01*
X87850500Y-96771153D01*
X95249500Y-96771153D01*
X95249500Y-96928846D01*
X95280261Y-97083489D01*
X95280264Y-97083501D01*
X95340602Y-97229172D01*
X95340609Y-97229185D01*
X95428210Y-97360288D01*
X95428213Y-97360292D01*
X95539707Y-97471786D01*
X95539711Y-97471789D01*
X95670814Y-97559390D01*
X95670827Y-97559397D01*
X95816498Y-97619735D01*
X95816503Y-97619737D01*
X95971153Y-97650499D01*
X95971156Y-97650500D01*
X95971158Y-97650500D01*
X96128844Y-97650500D01*
X96128845Y-97650499D01*
X96283497Y-97619737D01*
X96429179Y-97559394D01*
X96560289Y-97471789D01*
X96671789Y-97360289D01*
X96759394Y-97229179D01*
X96819737Y-97083497D01*
X96832138Y-97021153D01*
X133749500Y-97021153D01*
X133749500Y-97178846D01*
X133780261Y-97333489D01*
X133780264Y-97333501D01*
X133840602Y-97479172D01*
X133840609Y-97479185D01*
X133928210Y-97610288D01*
X133928213Y-97610292D01*
X134039707Y-97721786D01*
X134039711Y-97721789D01*
X134170814Y-97809390D01*
X134170827Y-97809397D01*
X134316498Y-97869735D01*
X134316503Y-97869737D01*
X134471153Y-97900499D01*
X134471156Y-97900500D01*
X134471158Y-97900500D01*
X134628844Y-97900500D01*
X134628845Y-97900499D01*
X134783497Y-97869737D01*
X134929179Y-97809394D01*
X135060289Y-97721789D01*
X135171789Y-97610289D01*
X135259394Y-97479179D01*
X135319737Y-97333497D01*
X135350500Y-97178842D01*
X135350500Y-97021158D01*
X135350500Y-97021155D01*
X135350499Y-97021153D01*
X135320980Y-96872753D01*
X135319737Y-96866503D01*
X135319735Y-96866498D01*
X135259397Y-96720827D01*
X135259390Y-96720814D01*
X135171789Y-96589711D01*
X135171786Y-96589707D01*
X135060292Y-96478213D01*
X135060288Y-96478210D01*
X134929185Y-96390609D01*
X134929172Y-96390602D01*
X134783501Y-96330264D01*
X134783489Y-96330261D01*
X134628845Y-96299500D01*
X134628842Y-96299500D01*
X134471158Y-96299500D01*
X134471155Y-96299500D01*
X134316510Y-96330261D01*
X134316498Y-96330264D01*
X134170827Y-96390602D01*
X134170814Y-96390609D01*
X134039711Y-96478210D01*
X134039707Y-96478213D01*
X133928213Y-96589707D01*
X133928210Y-96589711D01*
X133840609Y-96720814D01*
X133840602Y-96720827D01*
X133780264Y-96866498D01*
X133780261Y-96866510D01*
X133749500Y-97021153D01*
X96832138Y-97021153D01*
X96842151Y-96970814D01*
X96850500Y-96928844D01*
X96850500Y-96771155D01*
X96850499Y-96771153D01*
X96848030Y-96758741D01*
X96819737Y-96616503D01*
X96812707Y-96599531D01*
X96759397Y-96470827D01*
X96759390Y-96470814D01*
X96671789Y-96339711D01*
X96671786Y-96339707D01*
X96560292Y-96228213D01*
X96560288Y-96228210D01*
X96429185Y-96140609D01*
X96429172Y-96140602D01*
X96283501Y-96080264D01*
X96283489Y-96080261D01*
X96128845Y-96049500D01*
X96128842Y-96049500D01*
X95971158Y-96049500D01*
X95971155Y-96049500D01*
X95816510Y-96080261D01*
X95816498Y-96080264D01*
X95670827Y-96140602D01*
X95670814Y-96140609D01*
X95539711Y-96228210D01*
X95539707Y-96228213D01*
X95428213Y-96339707D01*
X95428210Y-96339711D01*
X95340609Y-96470814D01*
X95340602Y-96470827D01*
X95280264Y-96616498D01*
X95280261Y-96616510D01*
X95249500Y-96771153D01*
X87850500Y-96771153D01*
X87850500Y-95771153D01*
X99249500Y-95771153D01*
X99249500Y-95928846D01*
X99280261Y-96083489D01*
X99280264Y-96083501D01*
X99340602Y-96229172D01*
X99340609Y-96229185D01*
X99428210Y-96360288D01*
X99428213Y-96360292D01*
X99539707Y-96471786D01*
X99539711Y-96471789D01*
X99670814Y-96559390D01*
X99670827Y-96559397D01*
X99808683Y-96616498D01*
X99816503Y-96619737D01*
X99971153Y-96650499D01*
X99971156Y-96650500D01*
X99971158Y-96650500D01*
X100128844Y-96650500D01*
X100128845Y-96650499D01*
X100283497Y-96619737D01*
X100429179Y-96559394D01*
X100560289Y-96471789D01*
X100671789Y-96360289D01*
X100759394Y-96229179D01*
X100819737Y-96083497D01*
X100850500Y-95928842D01*
X100850500Y-95771158D01*
X100850500Y-95771155D01*
X100850499Y-95771153D01*
X100819737Y-95616503D01*
X100804138Y-95578844D01*
X100759397Y-95470827D01*
X100759390Y-95470814D01*
X100671789Y-95339711D01*
X100671786Y-95339707D01*
X100560292Y-95228213D01*
X100560288Y-95228210D01*
X100429185Y-95140609D01*
X100429172Y-95140602D01*
X100283501Y-95080264D01*
X100283489Y-95080261D01*
X100128845Y-95049500D01*
X100128842Y-95049500D01*
X99971158Y-95049500D01*
X99971155Y-95049500D01*
X99816510Y-95080261D01*
X99816498Y-95080264D01*
X99670827Y-95140602D01*
X99670814Y-95140609D01*
X99539711Y-95228210D01*
X99539707Y-95228213D01*
X99428213Y-95339707D01*
X99428210Y-95339711D01*
X99340609Y-95470814D01*
X99340602Y-95470827D01*
X99280264Y-95616498D01*
X99280261Y-95616510D01*
X99249500Y-95771153D01*
X87850500Y-95771153D01*
X87850500Y-92862787D01*
X87870185Y-92795748D01*
X87922989Y-92749993D01*
X87992147Y-92740049D01*
X88021954Y-92748226D01*
X88078314Y-92771571D01*
X88078318Y-92771572D01*
X88271504Y-92809999D01*
X88271508Y-92810000D01*
X88420000Y-92810000D01*
X88420000Y-92110000D01*
X88920000Y-92110000D01*
X88920000Y-92810000D01*
X89068492Y-92810000D01*
X89068495Y-92809999D01*
X89261681Y-92771572D01*
X89261693Y-92771569D01*
X89443671Y-92696192D01*
X89443684Y-92696185D01*
X89607462Y-92586751D01*
X89607466Y-92586748D01*
X89746748Y-92447466D01*
X89746751Y-92447462D01*
X89856185Y-92283684D01*
X89856192Y-92283671D01*
X89931569Y-92101692D01*
X89931569Y-92101690D01*
X89939862Y-92060000D01*
X89136988Y-92060000D01*
X89154205Y-92050060D01*
X89210060Y-91994205D01*
X89249556Y-91925796D01*
X89270000Y-91849496D01*
X89270000Y-91770504D01*
X89249556Y-91694204D01*
X89210060Y-91625795D01*
X89154205Y-91569940D01*
X89136988Y-91560000D01*
X89939862Y-91560000D01*
X91330138Y-91560000D01*
X92133012Y-91560000D01*
X92115795Y-91569940D01*
X92059940Y-91625795D01*
X92020444Y-91694204D01*
X92000000Y-91770504D01*
X92000000Y-91849496D01*
X92020444Y-91925796D01*
X92059940Y-91994205D01*
X92115795Y-92050060D01*
X92133012Y-92060000D01*
X91330138Y-92060000D01*
X91338430Y-92101690D01*
X91338430Y-92101692D01*
X91413807Y-92283671D01*
X91413814Y-92283684D01*
X91523248Y-92447462D01*
X91523251Y-92447466D01*
X91662533Y-92586748D01*
X91662537Y-92586751D01*
X91826315Y-92696185D01*
X91826322Y-92696189D01*
X91884196Y-92720160D01*
X91938600Y-92764000D01*
X91960666Y-92830294D01*
X91943388Y-92897994D01*
X91933774Y-92910378D01*
X91934441Y-92910890D01*
X91929492Y-92917338D01*
X91860313Y-93037161D01*
X91860312Y-93037164D01*
X91824500Y-93170817D01*
X91824500Y-93309183D01*
X91858142Y-93434735D01*
X91860312Y-93442835D01*
X91860313Y-93442838D01*
X91929492Y-93562661D01*
X91929494Y-93562664D01*
X91929495Y-93562665D01*
X92027335Y-93660505D01*
X92027336Y-93660506D01*
X92027338Y-93660507D01*
X92061557Y-93680263D01*
X92147164Y-93729688D01*
X92280817Y-93765500D01*
X92280819Y-93765500D01*
X92419180Y-93765500D01*
X92419183Y-93765500D01*
X92539758Y-93733192D01*
X92609603Y-93734855D01*
X92667465Y-93774017D01*
X92693464Y-93828775D01*
X92720261Y-93963491D01*
X92720264Y-93963501D01*
X92780602Y-94109172D01*
X92780609Y-94109185D01*
X92868210Y-94240288D01*
X92868213Y-94240292D01*
X92979707Y-94351786D01*
X92979711Y-94351789D01*
X93110814Y-94439390D01*
X93110827Y-94439397D01*
X93256498Y-94499735D01*
X93256503Y-94499737D01*
X93402823Y-94528842D01*
X93411153Y-94530499D01*
X93411156Y-94530500D01*
X93411158Y-94530500D01*
X93568844Y-94530500D01*
X93568845Y-94530499D01*
X93723497Y-94499737D01*
X93869179Y-94439394D01*
X94000289Y-94351789D01*
X94111789Y-94240289D01*
X94199394Y-94109179D01*
X94259737Y-93963497D01*
X94290500Y-93808842D01*
X94290500Y-93651158D01*
X94290500Y-93651155D01*
X94290499Y-93651153D01*
X94284250Y-93619737D01*
X94259737Y-93496503D01*
X94246895Y-93465499D01*
X94199397Y-93350827D01*
X94199395Y-93350823D01*
X94199394Y-93350821D01*
X94141854Y-93264707D01*
X94111792Y-93219715D01*
X94111786Y-93219707D01*
X94108232Y-93216153D01*
X95199500Y-93216153D01*
X95199500Y-93373846D01*
X95230261Y-93528489D01*
X95230264Y-93528501D01*
X95290602Y-93674172D01*
X95290609Y-93674185D01*
X95378210Y-93805288D01*
X95378213Y-93805292D01*
X95489707Y-93916786D01*
X95489711Y-93916789D01*
X95620814Y-94004390D01*
X95620827Y-94004397D01*
X95766498Y-94064735D01*
X95766503Y-94064737D01*
X95914668Y-94094209D01*
X95921153Y-94095499D01*
X95921156Y-94095500D01*
X95921158Y-94095500D01*
X96078844Y-94095500D01*
X96078845Y-94095499D01*
X96233497Y-94064737D01*
X96369264Y-94008501D01*
X96379172Y-94004397D01*
X96379172Y-94004396D01*
X96379179Y-94004394D01*
X96510289Y-93916789D01*
X96621789Y-93805289D01*
X96694711Y-93696153D01*
X122749500Y-93696153D01*
X122749500Y-93853846D01*
X122780261Y-94008489D01*
X122780264Y-94008501D01*
X122840602Y-94154172D01*
X122840609Y-94154185D01*
X122928210Y-94285288D01*
X122928213Y-94285292D01*
X123039707Y-94396786D01*
X123039711Y-94396789D01*
X123170814Y-94484390D01*
X123170827Y-94484397D01*
X123316498Y-94544735D01*
X123316503Y-94544737D01*
X123471153Y-94575499D01*
X123471156Y-94575500D01*
X123471158Y-94575500D01*
X123628844Y-94575500D01*
X123628845Y-94575499D01*
X123783497Y-94544737D01*
X123929179Y-94484394D01*
X124060289Y-94396789D01*
X124085925Y-94371153D01*
X142149500Y-94371153D01*
X142149500Y-94528846D01*
X142180261Y-94683489D01*
X142180264Y-94683501D01*
X142240602Y-94829172D01*
X142240609Y-94829185D01*
X142328210Y-94960288D01*
X142328213Y-94960292D01*
X142439707Y-95071786D01*
X142439711Y-95071789D01*
X142570814Y-95159390D01*
X142570827Y-95159397D01*
X142642533Y-95189098D01*
X142716503Y-95219737D01*
X142860601Y-95248400D01*
X142871153Y-95250499D01*
X142871156Y-95250500D01*
X142871158Y-95250500D01*
X143028844Y-95250500D01*
X143028845Y-95250499D01*
X143183497Y-95219737D01*
X143329179Y-95159394D01*
X143460289Y-95071789D01*
X143571789Y-94960289D01*
X143659394Y-94829179D01*
X143719737Y-94683497D01*
X143750500Y-94528842D01*
X143750500Y-94371158D01*
X143750500Y-94371155D01*
X143750499Y-94371153D01*
X143724392Y-94239905D01*
X143719737Y-94216503D01*
X143675285Y-94109185D01*
X143659397Y-94070827D01*
X143659390Y-94070814D01*
X143571789Y-93939711D01*
X143571786Y-93939707D01*
X143460292Y-93828213D01*
X143460288Y-93828210D01*
X143329185Y-93740609D01*
X143329172Y-93740602D01*
X143183501Y-93680264D01*
X143183489Y-93680261D01*
X143028845Y-93649500D01*
X143028842Y-93649500D01*
X142871158Y-93649500D01*
X142871155Y-93649500D01*
X142716510Y-93680261D01*
X142716498Y-93680264D01*
X142570827Y-93740602D01*
X142570814Y-93740609D01*
X142439711Y-93828210D01*
X142439707Y-93828213D01*
X142328213Y-93939707D01*
X142328210Y-93939711D01*
X142240609Y-94070814D01*
X142240602Y-94070827D01*
X142180264Y-94216498D01*
X142180261Y-94216510D01*
X142149500Y-94371153D01*
X124085925Y-94371153D01*
X124171789Y-94285289D01*
X124259394Y-94154179D01*
X124319737Y-94008497D01*
X124350500Y-93853842D01*
X124350500Y-93696158D01*
X124350500Y-93696155D01*
X124350499Y-93696153D01*
X124345873Y-93672895D01*
X124319737Y-93541503D01*
X124318993Y-93539707D01*
X124259397Y-93395827D01*
X124259390Y-93395814D01*
X124171789Y-93264711D01*
X124171786Y-93264707D01*
X124060292Y-93153213D01*
X124060288Y-93153210D01*
X123929185Y-93065609D01*
X123929172Y-93065602D01*
X123783501Y-93005264D01*
X123783489Y-93005261D01*
X123628845Y-92974500D01*
X123628842Y-92974500D01*
X123471158Y-92974500D01*
X123471155Y-92974500D01*
X123316510Y-93005261D01*
X123316498Y-93005264D01*
X123170827Y-93065602D01*
X123170814Y-93065609D01*
X123039711Y-93153210D01*
X123039707Y-93153213D01*
X122928213Y-93264707D01*
X122928210Y-93264711D01*
X122840609Y-93395814D01*
X122840602Y-93395827D01*
X122780264Y-93541498D01*
X122780261Y-93541510D01*
X122749500Y-93696153D01*
X96694711Y-93696153D01*
X96709394Y-93674179D01*
X96709781Y-93673246D01*
X96724576Y-93637525D01*
X96769737Y-93528497D01*
X96800500Y-93373842D01*
X96800500Y-93216158D01*
X96800500Y-93216155D01*
X96800499Y-93216153D01*
X96792371Y-93175292D01*
X96769737Y-93061503D01*
X96752797Y-93020606D01*
X96709397Y-92915827D01*
X96709390Y-92915814D01*
X96621789Y-92784711D01*
X96621786Y-92784707D01*
X96510292Y-92673213D01*
X96510288Y-92673210D01*
X96379185Y-92585609D01*
X96379172Y-92585602D01*
X96233501Y-92525264D01*
X96233489Y-92525261D01*
X96078845Y-92494500D01*
X96078842Y-92494500D01*
X95921158Y-92494500D01*
X95921155Y-92494500D01*
X95766510Y-92525261D01*
X95766498Y-92525264D01*
X95620827Y-92585602D01*
X95620814Y-92585609D01*
X95489711Y-92673210D01*
X95489707Y-92673213D01*
X95378213Y-92784707D01*
X95378210Y-92784711D01*
X95290609Y-92915814D01*
X95290602Y-92915827D01*
X95230264Y-93061498D01*
X95230261Y-93061510D01*
X95199500Y-93216153D01*
X94108232Y-93216153D01*
X94000292Y-93108213D01*
X94000288Y-93108210D01*
X93869185Y-93020609D01*
X93869172Y-93020602D01*
X93756397Y-92973890D01*
X93701993Y-92930049D01*
X93679928Y-92863755D01*
X93697207Y-92796056D01*
X93748344Y-92748445D01*
X93756397Y-92744768D01*
X93873671Y-92696192D01*
X93873684Y-92696185D01*
X94037462Y-92586751D01*
X94037466Y-92586748D01*
X94176748Y-92447466D01*
X94176751Y-92447462D01*
X94286185Y-92283684D01*
X94286192Y-92283671D01*
X94361569Y-92101692D01*
X94361569Y-92101690D01*
X94369862Y-92060000D01*
X93566988Y-92060000D01*
X93584205Y-92050060D01*
X93638301Y-91995964D01*
X97878020Y-91995964D01*
X97878020Y-92153657D01*
X97908781Y-92308300D01*
X97908784Y-92308312D01*
X97969122Y-92453983D01*
X97969129Y-92453996D01*
X98056730Y-92585099D01*
X98056733Y-92585103D01*
X98168227Y-92696597D01*
X98168231Y-92696600D01*
X98299334Y-92784201D01*
X98299347Y-92784208D01*
X98372952Y-92814696D01*
X98427356Y-92858537D01*
X98448744Y-92922797D01*
X98448903Y-92922782D01*
X98448971Y-92923481D01*
X98449421Y-92924831D01*
X98449491Y-92928753D01*
X98449500Y-92928846D01*
X98480261Y-93083489D01*
X98480264Y-93083501D01*
X98540602Y-93229172D01*
X98540609Y-93229185D01*
X98628210Y-93360288D01*
X98628213Y-93360292D01*
X98739707Y-93471786D01*
X98739711Y-93471789D01*
X98870814Y-93559390D01*
X98870827Y-93559397D01*
X98916254Y-93578213D01*
X99016503Y-93619737D01*
X99127471Y-93641810D01*
X99171153Y-93650499D01*
X99171156Y-93650500D01*
X99171158Y-93650500D01*
X99328844Y-93650500D01*
X99328845Y-93650499D01*
X99483497Y-93619737D01*
X99583746Y-93578213D01*
X99590284Y-93575505D01*
X99629173Y-93559397D01*
X99629176Y-93559395D01*
X99629179Y-93559394D01*
X99760289Y-93471789D01*
X99871789Y-93360289D01*
X99959394Y-93229179D01*
X100019737Y-93083497D01*
X100050500Y-92928842D01*
X100050500Y-92771158D01*
X100050500Y-92771155D01*
X100050499Y-92771153D01*
X100045982Y-92748445D01*
X100019737Y-92616503D01*
X100007166Y-92586153D01*
X105749500Y-92586153D01*
X105749500Y-92743846D01*
X105780261Y-92898489D01*
X105780264Y-92898501D01*
X105840602Y-93044172D01*
X105840609Y-93044185D01*
X105928210Y-93175288D01*
X105928213Y-93175292D01*
X106039707Y-93286786D01*
X106039711Y-93286789D01*
X106170814Y-93374390D01*
X106170827Y-93374397D01*
X106305704Y-93430264D01*
X106316503Y-93434737D01*
X106471153Y-93465499D01*
X106471156Y-93465500D01*
X106471158Y-93465500D01*
X106628844Y-93465500D01*
X106628845Y-93465499D01*
X106783497Y-93434737D01*
X106929179Y-93374394D01*
X107060289Y-93286789D01*
X107171789Y-93175289D01*
X107259394Y-93044179D01*
X107267535Y-93024526D01*
X107307168Y-92928842D01*
X107319737Y-92898497D01*
X107350500Y-92743842D01*
X107350500Y-92586158D01*
X107350500Y-92586155D01*
X107350499Y-92586153D01*
X107324210Y-92453990D01*
X107319737Y-92431503D01*
X107290241Y-92360292D01*
X107259397Y-92285827D01*
X107259390Y-92285814D01*
X107171789Y-92154711D01*
X107171786Y-92154707D01*
X107060292Y-92043213D01*
X107060288Y-92043210D01*
X106929185Y-91955609D01*
X106929172Y-91955602D01*
X106783501Y-91895264D01*
X106783491Y-91895261D01*
X106740365Y-91886683D01*
X106740364Y-91886682D01*
X106628845Y-91864500D01*
X106628842Y-91864500D01*
X106471158Y-91864500D01*
X106471155Y-91864500D01*
X106316510Y-91895261D01*
X106316498Y-91895264D01*
X106170827Y-91955602D01*
X106170814Y-91955609D01*
X106039711Y-92043210D01*
X106039707Y-92043213D01*
X105928213Y-92154707D01*
X105928210Y-92154711D01*
X105840609Y-92285814D01*
X105840602Y-92285827D01*
X105780264Y-92431498D01*
X105780261Y-92431510D01*
X105749500Y-92586153D01*
X100007166Y-92586153D01*
X99981945Y-92525264D01*
X99959397Y-92470827D01*
X99959390Y-92470814D01*
X99871789Y-92339711D01*
X99871786Y-92339707D01*
X99760292Y-92228213D01*
X99760288Y-92228210D01*
X99629185Y-92140609D01*
X99629172Y-92140602D01*
X99555568Y-92110115D01*
X99501164Y-92066274D01*
X99479775Y-92002013D01*
X99479617Y-92002029D01*
X99479548Y-92001329D01*
X99479099Y-91999980D01*
X99479028Y-91996057D01*
X99479020Y-91995974D01*
X99479020Y-91995969D01*
X99448257Y-91841314D01*
X99419198Y-91771158D01*
X99419196Y-91771153D01*
X139399500Y-91771153D01*
X139399500Y-91928846D01*
X139430261Y-92083489D01*
X139430264Y-92083501D01*
X139490602Y-92229172D01*
X139490609Y-92229185D01*
X139578210Y-92360288D01*
X139578213Y-92360292D01*
X139689707Y-92471786D01*
X139689711Y-92471789D01*
X139820814Y-92559390D01*
X139820827Y-92559397D01*
X139958695Y-92616503D01*
X139966503Y-92619737D01*
X140121153Y-92650499D01*
X140121156Y-92650500D01*
X140121158Y-92650500D01*
X140278844Y-92650500D01*
X140278845Y-92650499D01*
X140433497Y-92619737D01*
X140579179Y-92559394D01*
X140710289Y-92471789D01*
X140821789Y-92360289D01*
X140909394Y-92229179D01*
X140969737Y-92083497D01*
X141000500Y-91928842D01*
X141000500Y-91771158D01*
X141000500Y-91771155D01*
X141000499Y-91771153D01*
X140969738Y-91616510D01*
X140969737Y-91616503D01*
X140969735Y-91616498D01*
X140909397Y-91470827D01*
X140909390Y-91470814D01*
X140821789Y-91339711D01*
X140821786Y-91339707D01*
X140710292Y-91228213D01*
X140710288Y-91228210D01*
X140579185Y-91140609D01*
X140579172Y-91140602D01*
X140433501Y-91080264D01*
X140433489Y-91080261D01*
X140278845Y-91049500D01*
X140278842Y-91049500D01*
X140121158Y-91049500D01*
X140121155Y-91049500D01*
X139966510Y-91080261D01*
X139966498Y-91080264D01*
X139820827Y-91140602D01*
X139820814Y-91140609D01*
X139689711Y-91228210D01*
X139689707Y-91228213D01*
X139578213Y-91339707D01*
X139578210Y-91339711D01*
X139490609Y-91470814D01*
X139490602Y-91470827D01*
X139430264Y-91616498D01*
X139430261Y-91616510D01*
X139399500Y-91771153D01*
X99419196Y-91771153D01*
X99387917Y-91695638D01*
X99387910Y-91695625D01*
X99300309Y-91564522D01*
X99300306Y-91564518D01*
X99188812Y-91453024D01*
X99188808Y-91453021D01*
X99057705Y-91365420D01*
X99057692Y-91365413D01*
X98912021Y-91305075D01*
X98912009Y-91305072D01*
X98757365Y-91274311D01*
X98757362Y-91274311D01*
X98599678Y-91274311D01*
X98599675Y-91274311D01*
X98445030Y-91305072D01*
X98445018Y-91305075D01*
X98299347Y-91365413D01*
X98299334Y-91365420D01*
X98168231Y-91453021D01*
X98168227Y-91453024D01*
X98056733Y-91564518D01*
X98056730Y-91564522D01*
X97969129Y-91695625D01*
X97969122Y-91695638D01*
X97908784Y-91841309D01*
X97908781Y-91841321D01*
X97878020Y-91995964D01*
X93638301Y-91995964D01*
X93640060Y-91994205D01*
X93679556Y-91925796D01*
X93700000Y-91849496D01*
X93700000Y-91770504D01*
X93679556Y-91694204D01*
X93640060Y-91625795D01*
X93584205Y-91569940D01*
X93566988Y-91560000D01*
X94369862Y-91560000D01*
X94361569Y-91518309D01*
X94361569Y-91518307D01*
X94286192Y-91336328D01*
X94286185Y-91336315D01*
X94176751Y-91172537D01*
X94176748Y-91172533D01*
X94037466Y-91033251D01*
X94037462Y-91033248D01*
X93873684Y-90923814D01*
X93873671Y-90923807D01*
X93691693Y-90848430D01*
X93691681Y-90848427D01*
X93498495Y-90810000D01*
X93100000Y-90810000D01*
X93100000Y-91510000D01*
X92600000Y-91510000D01*
X92600000Y-90810000D01*
X92201504Y-90810000D01*
X92008318Y-90848427D01*
X92008306Y-90848430D01*
X91826328Y-90923807D01*
X91826315Y-90923814D01*
X91662537Y-91033248D01*
X91662533Y-91033251D01*
X91523251Y-91172533D01*
X91523248Y-91172537D01*
X91413814Y-91336315D01*
X91413807Y-91336328D01*
X91338430Y-91518307D01*
X91338430Y-91518309D01*
X91330138Y-91560000D01*
X89939862Y-91560000D01*
X89931569Y-91518309D01*
X89931569Y-91518307D01*
X89856192Y-91336328D01*
X89856185Y-91336315D01*
X89746751Y-91172537D01*
X89746748Y-91172533D01*
X89607466Y-91033251D01*
X89607462Y-91033248D01*
X89443684Y-90923814D01*
X89443671Y-90923807D01*
X89261693Y-90848430D01*
X89261681Y-90848427D01*
X89068495Y-90810000D01*
X88920000Y-90810000D01*
X88920000Y-91510000D01*
X88420000Y-91510000D01*
X88420000Y-90810000D01*
X88271504Y-90810000D01*
X88078318Y-90848427D01*
X88078306Y-90848430D01*
X88021952Y-90871773D01*
X87952483Y-90879242D01*
X87890004Y-90847966D01*
X87854352Y-90787877D01*
X87850500Y-90757212D01*
X87850500Y-89708653D01*
X99399500Y-89708653D01*
X99399500Y-89866346D01*
X99430261Y-90020989D01*
X99430264Y-90021001D01*
X99490602Y-90166672D01*
X99490609Y-90166685D01*
X99578210Y-90297788D01*
X99578213Y-90297792D01*
X99689707Y-90409286D01*
X99689711Y-90409289D01*
X99820814Y-90496890D01*
X99820827Y-90496897D01*
X99966498Y-90557235D01*
X99966503Y-90557237D01*
X100121153Y-90587999D01*
X100121156Y-90588000D01*
X100121158Y-90588000D01*
X100278844Y-90588000D01*
X100278845Y-90587999D01*
X100433497Y-90557237D01*
X100579179Y-90496894D01*
X100710289Y-90409289D01*
X100821789Y-90297789D01*
X100909394Y-90166679D01*
X100969737Y-90020997D01*
X101000500Y-89866342D01*
X101000500Y-89708658D01*
X101000500Y-89708655D01*
X101000499Y-89708653D01*
X100983028Y-89620821D01*
X100969737Y-89554003D01*
X100963817Y-89539711D01*
X100909397Y-89408327D01*
X100909390Y-89408314D01*
X100821789Y-89277211D01*
X100821786Y-89277207D01*
X100710292Y-89165713D01*
X100710288Y-89165710D01*
X100579185Y-89078109D01*
X100579172Y-89078102D01*
X100433501Y-89017764D01*
X100433489Y-89017761D01*
X100278845Y-88987000D01*
X100278842Y-88987000D01*
X100121158Y-88987000D01*
X100121155Y-88987000D01*
X99966510Y-89017761D01*
X99966498Y-89017764D01*
X99820827Y-89078102D01*
X99820814Y-89078109D01*
X99689711Y-89165710D01*
X99689707Y-89165713D01*
X99578213Y-89277207D01*
X99578210Y-89277211D01*
X99490609Y-89408314D01*
X99490602Y-89408327D01*
X99430264Y-89553998D01*
X99430261Y-89554010D01*
X99399500Y-89708653D01*
X87850500Y-89708653D01*
X87850500Y-88441481D01*
X95101354Y-88441481D01*
X95101354Y-88599174D01*
X95132115Y-88753817D01*
X95132118Y-88753829D01*
X95192456Y-88899500D01*
X95192463Y-88899513D01*
X95280064Y-89030616D01*
X95280067Y-89030620D01*
X95391561Y-89142114D01*
X95391565Y-89142117D01*
X95522668Y-89229718D01*
X95522681Y-89229725D01*
X95644695Y-89280264D01*
X95668357Y-89290065D01*
X95802707Y-89316789D01*
X95823007Y-89320827D01*
X95823010Y-89320828D01*
X95823012Y-89320828D01*
X95980698Y-89320828D01*
X95980699Y-89320827D01*
X96135351Y-89290065D01*
X96268728Y-89234819D01*
X96281026Y-89229725D01*
X96281026Y-89229724D01*
X96281033Y-89229722D01*
X96412143Y-89142117D01*
X96523643Y-89030617D01*
X96611248Y-88899507D01*
X96671591Y-88753825D01*
X96698976Y-88616153D01*
X101499500Y-88616153D01*
X101499500Y-88773846D01*
X101530261Y-88928489D01*
X101530264Y-88928501D01*
X101590602Y-89074172D01*
X101590609Y-89074185D01*
X101678210Y-89205288D01*
X101678213Y-89205292D01*
X101707740Y-89234819D01*
X101741225Y-89296142D01*
X101736241Y-89365834D01*
X101707740Y-89410181D01*
X101678213Y-89439707D01*
X101678210Y-89439711D01*
X101590609Y-89570814D01*
X101590602Y-89570827D01*
X101530264Y-89716498D01*
X101530261Y-89716510D01*
X101499500Y-89871153D01*
X101499500Y-90028846D01*
X101530261Y-90183489D01*
X101530264Y-90183501D01*
X101590602Y-90329172D01*
X101590609Y-90329185D01*
X101678210Y-90460288D01*
X101678213Y-90460292D01*
X101789707Y-90571786D01*
X101789711Y-90571789D01*
X101920814Y-90659390D01*
X101920827Y-90659397D01*
X102066498Y-90719735D01*
X102066503Y-90719737D01*
X102221153Y-90750499D01*
X102221156Y-90750500D01*
X102221158Y-90750500D01*
X102378844Y-90750500D01*
X102378845Y-90750499D01*
X102526378Y-90721153D01*
X122749500Y-90721153D01*
X122749500Y-90878846D01*
X122780261Y-91033489D01*
X122780264Y-91033501D01*
X122840602Y-91179172D01*
X122840609Y-91179185D01*
X122928210Y-91310288D01*
X122928213Y-91310292D01*
X123039707Y-91421786D01*
X123039711Y-91421789D01*
X123170814Y-91509390D01*
X123170827Y-91509397D01*
X123303903Y-91564518D01*
X123316503Y-91569737D01*
X123471153Y-91600499D01*
X123471156Y-91600500D01*
X123471158Y-91600500D01*
X123628844Y-91600500D01*
X123628845Y-91600499D01*
X123783497Y-91569737D01*
X123929179Y-91509394D01*
X124060289Y-91421789D01*
X124171789Y-91310289D01*
X124259394Y-91179179D01*
X124319737Y-91033497D01*
X124350500Y-90878842D01*
X124350500Y-90721158D01*
X124350500Y-90721155D01*
X124350499Y-90721153D01*
X124332204Y-90629179D01*
X124319737Y-90566503D01*
X124296452Y-90510288D01*
X124259397Y-90420827D01*
X124259390Y-90420814D01*
X124171789Y-90289711D01*
X124171786Y-90289707D01*
X124060292Y-90178213D01*
X124060288Y-90178210D01*
X124049727Y-90171153D01*
X125299500Y-90171153D01*
X125299500Y-90328846D01*
X125330261Y-90483489D01*
X125330264Y-90483501D01*
X125390602Y-90629172D01*
X125390609Y-90629185D01*
X125478210Y-90760288D01*
X125478213Y-90760292D01*
X125589707Y-90871786D01*
X125589711Y-90871789D01*
X125720814Y-90959390D01*
X125720827Y-90959397D01*
X125866498Y-91019735D01*
X125866503Y-91019737D01*
X126016131Y-91049500D01*
X126021153Y-91050499D01*
X126021156Y-91050500D01*
X126021158Y-91050500D01*
X126178844Y-91050500D01*
X126178845Y-91050499D01*
X126333497Y-91019737D01*
X126479179Y-90959394D01*
X126610289Y-90871789D01*
X126721789Y-90760289D01*
X126809394Y-90629179D01*
X126869737Y-90483497D01*
X126900500Y-90328842D01*
X126900500Y-90171158D01*
X126900500Y-90171155D01*
X126900499Y-90171153D01*
X126893186Y-90134390D01*
X126869737Y-90016503D01*
X126850955Y-89971158D01*
X126850953Y-89971153D01*
X131049500Y-89971153D01*
X131049500Y-90128846D01*
X131080261Y-90283489D01*
X131080264Y-90283501D01*
X131140602Y-90429172D01*
X131140609Y-90429185D01*
X131228210Y-90560288D01*
X131228213Y-90560292D01*
X131339707Y-90671786D01*
X131339711Y-90671789D01*
X131470814Y-90759390D01*
X131470827Y-90759397D01*
X131616498Y-90819735D01*
X131616503Y-90819737D01*
X131771153Y-90850499D01*
X131771156Y-90850500D01*
X131771158Y-90850500D01*
X131928844Y-90850500D01*
X131928845Y-90850499D01*
X132083497Y-90819737D01*
X132229179Y-90759394D01*
X132360289Y-90671789D01*
X132471789Y-90560289D01*
X132559394Y-90429179D01*
X132562854Y-90420827D01*
X132580102Y-90379185D01*
X132619737Y-90283497D01*
X132650500Y-90128842D01*
X132650500Y-89971158D01*
X132650500Y-89971155D01*
X132644155Y-89939258D01*
X132644155Y-89939257D01*
X132640554Y-89921153D01*
X137649500Y-89921153D01*
X137649500Y-90078846D01*
X137680261Y-90233489D01*
X137680264Y-90233501D01*
X137740602Y-90379172D01*
X137740609Y-90379185D01*
X137828210Y-90510288D01*
X137828213Y-90510292D01*
X137939707Y-90621786D01*
X137939711Y-90621789D01*
X138070814Y-90709390D01*
X138070827Y-90709397D01*
X138216498Y-90769735D01*
X138216503Y-90769737D01*
X138371153Y-90800499D01*
X138371156Y-90800500D01*
X138371158Y-90800500D01*
X138528844Y-90800500D01*
X138528845Y-90800499D01*
X138683497Y-90769737D01*
X138829179Y-90709394D01*
X138960289Y-90621789D01*
X139071789Y-90510289D01*
X139159394Y-90379179D01*
X139219737Y-90233497D01*
X139250500Y-90078842D01*
X139250500Y-90003269D01*
X139270185Y-89936230D01*
X139322989Y-89890475D01*
X139392147Y-89880531D01*
X139455703Y-89909556D01*
X139474292Y-89930626D01*
X139474347Y-89930581D01*
X139475609Y-89932119D01*
X139477603Y-89934379D01*
X139478212Y-89935291D01*
X139589707Y-90046786D01*
X139589711Y-90046789D01*
X139720814Y-90134390D01*
X139720827Y-90134397D01*
X139866498Y-90194735D01*
X139866503Y-90194737D01*
X140021153Y-90225499D01*
X140021156Y-90225500D01*
X140021158Y-90225500D01*
X140178844Y-90225500D01*
X140178845Y-90225499D01*
X140333497Y-90194737D01*
X140479179Y-90134394D01*
X140610289Y-90046789D01*
X140721789Y-89935289D01*
X140809394Y-89804179D01*
X140869737Y-89658497D01*
X140900500Y-89503842D01*
X140900500Y-89346158D01*
X140900500Y-89346155D01*
X140900499Y-89346153D01*
X140895794Y-89322500D01*
X140869737Y-89191503D01*
X140836099Y-89110292D01*
X140810070Y-89047452D01*
X140802601Y-88977983D01*
X140810070Y-88952548D01*
X140869735Y-88808501D01*
X140869737Y-88808497D01*
X140900500Y-88653842D01*
X140900500Y-88496158D01*
X140900500Y-88496155D01*
X140900499Y-88496153D01*
X140869738Y-88341510D01*
X140869737Y-88341503D01*
X140847094Y-88286838D01*
X140809397Y-88195827D01*
X140809390Y-88195814D01*
X140721789Y-88064711D01*
X140721786Y-88064707D01*
X140610292Y-87953213D01*
X140610288Y-87953210D01*
X140479185Y-87865609D01*
X140479172Y-87865602D01*
X140333501Y-87805264D01*
X140333489Y-87805261D01*
X140178845Y-87774500D01*
X140178842Y-87774500D01*
X140021158Y-87774500D01*
X140021155Y-87774500D01*
X139866510Y-87805261D01*
X139866498Y-87805264D01*
X139720827Y-87865602D01*
X139720814Y-87865609D01*
X139589711Y-87953210D01*
X139589707Y-87953213D01*
X139478213Y-88064707D01*
X139478210Y-88064711D01*
X139390609Y-88195814D01*
X139390602Y-88195827D01*
X139330264Y-88341498D01*
X139330261Y-88341510D01*
X139299500Y-88496153D01*
X139299500Y-88653846D01*
X139330261Y-88808489D01*
X139330264Y-88808501D01*
X139389930Y-88952548D01*
X139397399Y-89022017D01*
X139389930Y-89047452D01*
X139330264Y-89191498D01*
X139330261Y-89191510D01*
X139299500Y-89346153D01*
X139299500Y-89421730D01*
X139279815Y-89488769D01*
X139227011Y-89534524D01*
X139157853Y-89544468D01*
X139094297Y-89515443D01*
X139075707Y-89494373D01*
X139075653Y-89494419D01*
X139074391Y-89492881D01*
X139072403Y-89490628D01*
X139071793Y-89489716D01*
X139071786Y-89489707D01*
X138960292Y-89378213D01*
X138960288Y-89378210D01*
X138829185Y-89290609D01*
X138829172Y-89290602D01*
X138683501Y-89230264D01*
X138683489Y-89230261D01*
X138528845Y-89199500D01*
X138528842Y-89199500D01*
X138371158Y-89199500D01*
X138371155Y-89199500D01*
X138216510Y-89230261D01*
X138216498Y-89230264D01*
X138070827Y-89290602D01*
X138070814Y-89290609D01*
X137939711Y-89378210D01*
X137939707Y-89378213D01*
X137828213Y-89489707D01*
X137828210Y-89489711D01*
X137740609Y-89620814D01*
X137740602Y-89620827D01*
X137680264Y-89766498D01*
X137680261Y-89766510D01*
X137649500Y-89921153D01*
X132640554Y-89921153D01*
X132619738Y-89816510D01*
X132619737Y-89816503D01*
X132614629Y-89804172D01*
X132559397Y-89670827D01*
X132559390Y-89670814D01*
X132471789Y-89539711D01*
X132471786Y-89539707D01*
X132360292Y-89428213D01*
X132360288Y-89428210D01*
X132229185Y-89340609D01*
X132229172Y-89340602D01*
X132083501Y-89280264D01*
X132083489Y-89280261D01*
X131928845Y-89249500D01*
X131928842Y-89249500D01*
X131771158Y-89249500D01*
X131771155Y-89249500D01*
X131616510Y-89280261D01*
X131616498Y-89280264D01*
X131470827Y-89340602D01*
X131470814Y-89340609D01*
X131339711Y-89428210D01*
X131339707Y-89428213D01*
X131228213Y-89539707D01*
X131228210Y-89539711D01*
X131140609Y-89670814D01*
X131140602Y-89670827D01*
X131080264Y-89816498D01*
X131080261Y-89816510D01*
X131049500Y-89971153D01*
X126850953Y-89971153D01*
X126809397Y-89870827D01*
X126809390Y-89870814D01*
X126721789Y-89739711D01*
X126721786Y-89739707D01*
X126610292Y-89628213D01*
X126610288Y-89628210D01*
X126479185Y-89540609D01*
X126479172Y-89540602D01*
X126333501Y-89480264D01*
X126333489Y-89480261D01*
X126178845Y-89449500D01*
X126178842Y-89449500D01*
X126021158Y-89449500D01*
X126021155Y-89449500D01*
X125866510Y-89480261D01*
X125866498Y-89480264D01*
X125720827Y-89540602D01*
X125720814Y-89540609D01*
X125589711Y-89628210D01*
X125589707Y-89628213D01*
X125478213Y-89739707D01*
X125478210Y-89739711D01*
X125390609Y-89870814D01*
X125390602Y-89870827D01*
X125330264Y-90016498D01*
X125330261Y-90016510D01*
X125299500Y-90171153D01*
X124049727Y-90171153D01*
X123929185Y-90090609D01*
X123929172Y-90090602D01*
X123783501Y-90030264D01*
X123783489Y-90030261D01*
X123628845Y-89999500D01*
X123628842Y-89999500D01*
X123471158Y-89999500D01*
X123471155Y-89999500D01*
X123316510Y-90030261D01*
X123316498Y-90030264D01*
X123170827Y-90090602D01*
X123170814Y-90090609D01*
X123039711Y-90178210D01*
X123039707Y-90178213D01*
X122928213Y-90289707D01*
X122928210Y-90289711D01*
X122840609Y-90420814D01*
X122840602Y-90420827D01*
X122780264Y-90566498D01*
X122780261Y-90566510D01*
X122749500Y-90721153D01*
X102526378Y-90721153D01*
X102533497Y-90719737D01*
X102679179Y-90659394D01*
X102679185Y-90659390D01*
X102750164Y-90611964D01*
X102781224Y-90591209D01*
X102810289Y-90571789D01*
X102921789Y-90460289D01*
X103009394Y-90329179D01*
X103069737Y-90183497D01*
X103100500Y-90028842D01*
X103100500Y-89871158D01*
X103100500Y-89871155D01*
X103100499Y-89871153D01*
X103087177Y-89804179D01*
X103069737Y-89716503D01*
X103066486Y-89708655D01*
X103009397Y-89570827D01*
X103009390Y-89570814D01*
X102921789Y-89439711D01*
X102921786Y-89439707D01*
X102892260Y-89410181D01*
X102858775Y-89348858D01*
X102863759Y-89279166D01*
X102892260Y-89234819D01*
X102921786Y-89205292D01*
X102921789Y-89205289D01*
X103009394Y-89074179D01*
X103069737Y-88928497D01*
X103100500Y-88773842D01*
X103100500Y-88616158D01*
X103100500Y-88616155D01*
X103100499Y-88616153D01*
X103085204Y-88539257D01*
X103081603Y-88521153D01*
X117999500Y-88521153D01*
X117999500Y-88678846D01*
X118030261Y-88833489D01*
X118030264Y-88833501D01*
X118090602Y-88979172D01*
X118090609Y-88979185D01*
X118178210Y-89110288D01*
X118178213Y-89110292D01*
X118289707Y-89221786D01*
X118289711Y-89221789D01*
X118420814Y-89309390D01*
X118420827Y-89309397D01*
X118516096Y-89348858D01*
X118566503Y-89369737D01*
X118721153Y-89400499D01*
X118721156Y-89400500D01*
X118721158Y-89400500D01*
X118878844Y-89400500D01*
X118878845Y-89400499D01*
X119033497Y-89369737D01*
X119179179Y-89309394D01*
X119310289Y-89221789D01*
X119421789Y-89110289D01*
X119509394Y-88979179D01*
X119569737Y-88833497D01*
X119600500Y-88678842D01*
X119600500Y-88521158D01*
X119600500Y-88521155D01*
X119600499Y-88521153D01*
X121049500Y-88521153D01*
X121049500Y-88678846D01*
X121080261Y-88833489D01*
X121080264Y-88833501D01*
X121140602Y-88979172D01*
X121140609Y-88979185D01*
X121228210Y-89110288D01*
X121228213Y-89110292D01*
X121339707Y-89221786D01*
X121339711Y-89221789D01*
X121470814Y-89309390D01*
X121470827Y-89309397D01*
X121566096Y-89348858D01*
X121616503Y-89369737D01*
X121771153Y-89400499D01*
X121771156Y-89400500D01*
X121771158Y-89400500D01*
X121928844Y-89400500D01*
X121928845Y-89400499D01*
X122083497Y-89369737D01*
X122229179Y-89309394D01*
X122360289Y-89221789D01*
X122471789Y-89110289D01*
X122559394Y-88979179D01*
X122619737Y-88833497D01*
X122650500Y-88678842D01*
X122650500Y-88521158D01*
X122650500Y-88521155D01*
X122650499Y-88521153D01*
X122649128Y-88514257D01*
X122645527Y-88496153D01*
X132399500Y-88496153D01*
X132399500Y-88653846D01*
X132430261Y-88808489D01*
X132430264Y-88808501D01*
X132490602Y-88954172D01*
X132490609Y-88954185D01*
X132578210Y-89085288D01*
X132578213Y-89085292D01*
X132689707Y-89196786D01*
X132689711Y-89196789D01*
X132820814Y-89284390D01*
X132820827Y-89284397D01*
X132926605Y-89328211D01*
X132966503Y-89344737D01*
X133092176Y-89369735D01*
X133121153Y-89375499D01*
X133121156Y-89375500D01*
X133121158Y-89375500D01*
X133278844Y-89375500D01*
X133278845Y-89375499D01*
X133433497Y-89344737D01*
X133564182Y-89290606D01*
X133579172Y-89284397D01*
X133579172Y-89284396D01*
X133579179Y-89284394D01*
X133710289Y-89196789D01*
X133821789Y-89085289D01*
X133909394Y-88954179D01*
X133969737Y-88808497D01*
X134000500Y-88653842D01*
X134000500Y-88496158D01*
X134000500Y-88496155D01*
X134000499Y-88496153D01*
X133969738Y-88341510D01*
X133969737Y-88341503D01*
X133947094Y-88286838D01*
X133909397Y-88195827D01*
X133909390Y-88195814D01*
X133821789Y-88064711D01*
X133821786Y-88064707D01*
X133710292Y-87953213D01*
X133710288Y-87953210D01*
X133579185Y-87865609D01*
X133579172Y-87865602D01*
X133433501Y-87805264D01*
X133433489Y-87805261D01*
X133278845Y-87774500D01*
X133278842Y-87774500D01*
X133121158Y-87774500D01*
X133121155Y-87774500D01*
X132966510Y-87805261D01*
X132966498Y-87805264D01*
X132820827Y-87865602D01*
X132820814Y-87865609D01*
X132689711Y-87953210D01*
X132689707Y-87953213D01*
X132578213Y-88064707D01*
X132578210Y-88064711D01*
X132490609Y-88195814D01*
X132490602Y-88195827D01*
X132430264Y-88341498D01*
X132430261Y-88341510D01*
X132399500Y-88496153D01*
X122645527Y-88496153D01*
X122619738Y-88366508D01*
X122619737Y-88366507D01*
X122619737Y-88366503D01*
X122609380Y-88341498D01*
X122559397Y-88220827D01*
X122559390Y-88220814D01*
X122471789Y-88089711D01*
X122471786Y-88089707D01*
X122360292Y-87978213D01*
X122360288Y-87978210D01*
X122229185Y-87890609D01*
X122229172Y-87890602D01*
X122083501Y-87830264D01*
X122083489Y-87830261D01*
X121928845Y-87799500D01*
X121928842Y-87799500D01*
X121771158Y-87799500D01*
X121771155Y-87799500D01*
X121616510Y-87830261D01*
X121616498Y-87830264D01*
X121470827Y-87890602D01*
X121470814Y-87890609D01*
X121339711Y-87978210D01*
X121339707Y-87978213D01*
X121228213Y-88089707D01*
X121228210Y-88089711D01*
X121140609Y-88220814D01*
X121140602Y-88220827D01*
X121080264Y-88366498D01*
X121080261Y-88366510D01*
X121049500Y-88521153D01*
X119600499Y-88521153D01*
X119595527Y-88496158D01*
X119569737Y-88366503D01*
X119559380Y-88341498D01*
X119509397Y-88220827D01*
X119509390Y-88220814D01*
X119421789Y-88089711D01*
X119421786Y-88089707D01*
X119310292Y-87978213D01*
X119310288Y-87978210D01*
X119179185Y-87890609D01*
X119179172Y-87890602D01*
X119033501Y-87830264D01*
X119033489Y-87830261D01*
X118878845Y-87799500D01*
X118878842Y-87799500D01*
X118721158Y-87799500D01*
X118721155Y-87799500D01*
X118566510Y-87830261D01*
X118566498Y-87830264D01*
X118420827Y-87890602D01*
X118420814Y-87890609D01*
X118289711Y-87978210D01*
X118289707Y-87978213D01*
X118178213Y-88089707D01*
X118178210Y-88089711D01*
X118090609Y-88220814D01*
X118090602Y-88220827D01*
X118030264Y-88366498D01*
X118030261Y-88366510D01*
X117999500Y-88521153D01*
X103081603Y-88521153D01*
X103069738Y-88461508D01*
X103069737Y-88461507D01*
X103069737Y-88461503D01*
X103020030Y-88341498D01*
X103009397Y-88315827D01*
X103009390Y-88315814D01*
X102921789Y-88184711D01*
X102921786Y-88184707D01*
X102810292Y-88073213D01*
X102810288Y-88073210D01*
X102679185Y-87985609D01*
X102679172Y-87985602D01*
X102533501Y-87925264D01*
X102533489Y-87925261D01*
X102378845Y-87894500D01*
X102378842Y-87894500D01*
X102221158Y-87894500D01*
X102221155Y-87894500D01*
X102066510Y-87925261D01*
X102066498Y-87925264D01*
X101920827Y-87985602D01*
X101920814Y-87985609D01*
X101789711Y-88073210D01*
X101789707Y-88073213D01*
X101678213Y-88184707D01*
X101678210Y-88184711D01*
X101590609Y-88315814D01*
X101590602Y-88315827D01*
X101530264Y-88461498D01*
X101530261Y-88461510D01*
X101499500Y-88616153D01*
X96698976Y-88616153D01*
X96702354Y-88599170D01*
X96702354Y-88441486D01*
X96702354Y-88441483D01*
X96702353Y-88441481D01*
X96682465Y-88341498D01*
X96671591Y-88286831D01*
X96671589Y-88286826D01*
X96611251Y-88141155D01*
X96611244Y-88141142D01*
X96539482Y-88033743D01*
X96518604Y-87967065D01*
X96537088Y-87899685D01*
X96554905Y-87877169D01*
X96571785Y-87860289D01*
X96571787Y-87860287D01*
X96659392Y-87729177D01*
X96719735Y-87583495D01*
X96750498Y-87428840D01*
X96750498Y-87271156D01*
X96750498Y-87271153D01*
X96750497Y-87271151D01*
X96738391Y-87210289D01*
X96719735Y-87116501D01*
X96713107Y-87100499D01*
X96659395Y-86970825D01*
X96659388Y-86970812D01*
X96571787Y-86839709D01*
X96571784Y-86839705D01*
X96460290Y-86728211D01*
X96460286Y-86728208D01*
X96329183Y-86640607D01*
X96329170Y-86640600D01*
X96183499Y-86580262D01*
X96183487Y-86580259D01*
X96028843Y-86549498D01*
X96028840Y-86549498D01*
X95871156Y-86549498D01*
X95871153Y-86549498D01*
X95716508Y-86580259D01*
X95716496Y-86580262D01*
X95570825Y-86640600D01*
X95570812Y-86640607D01*
X95439709Y-86728208D01*
X95439705Y-86728211D01*
X95328211Y-86839705D01*
X95328208Y-86839709D01*
X95240607Y-86970812D01*
X95240600Y-86970825D01*
X95180262Y-87116496D01*
X95180259Y-87116508D01*
X95149498Y-87271151D01*
X95149498Y-87428844D01*
X95180259Y-87583487D01*
X95180262Y-87583499D01*
X95240600Y-87729170D01*
X95240607Y-87729183D01*
X95312369Y-87836582D01*
X95333247Y-87903260D01*
X95314762Y-87970640D01*
X95296950Y-87993152D01*
X95280068Y-88010034D01*
X95280064Y-88010039D01*
X95192463Y-88141142D01*
X95192456Y-88141155D01*
X95132118Y-88286826D01*
X95132115Y-88286838D01*
X95101354Y-88441481D01*
X87850500Y-88441481D01*
X87850500Y-86370716D01*
X87870185Y-86303677D01*
X87922989Y-86257922D01*
X87992147Y-86247978D01*
X88021953Y-86256155D01*
X88083310Y-86281570D01*
X88083318Y-86281572D01*
X88276504Y-86319999D01*
X88276508Y-86320000D01*
X88425000Y-86320000D01*
X88425000Y-85620000D01*
X88925000Y-85620000D01*
X88925000Y-86320000D01*
X89073492Y-86320000D01*
X89073495Y-86319999D01*
X89266681Y-86281572D01*
X89266693Y-86281569D01*
X89448671Y-86206192D01*
X89448684Y-86206185D01*
X89612462Y-86096751D01*
X89612466Y-86096748D01*
X89751748Y-85957466D01*
X89751751Y-85957462D01*
X89861185Y-85793684D01*
X89861192Y-85793671D01*
X89936569Y-85611692D01*
X89936569Y-85611690D01*
X89944862Y-85570000D01*
X89141988Y-85570000D01*
X89159205Y-85560060D01*
X89215060Y-85504205D01*
X89254556Y-85435796D01*
X89275000Y-85359496D01*
X89275000Y-85280504D01*
X89254556Y-85204204D01*
X89215060Y-85135795D01*
X89159205Y-85079940D01*
X89141988Y-85070000D01*
X89944862Y-85070000D01*
X91335138Y-85070000D01*
X92138012Y-85070000D01*
X92120795Y-85079940D01*
X92064940Y-85135795D01*
X92025444Y-85204204D01*
X92005000Y-85280504D01*
X92005000Y-85359496D01*
X92025444Y-85435796D01*
X92064940Y-85504205D01*
X92120795Y-85560060D01*
X92138012Y-85570000D01*
X91335138Y-85570000D01*
X91343430Y-85611690D01*
X91343430Y-85611692D01*
X91418807Y-85793671D01*
X91418814Y-85793684D01*
X91528248Y-85957462D01*
X91528251Y-85957466D01*
X91667533Y-86096748D01*
X91667537Y-86096751D01*
X91831315Y-86206185D01*
X91831328Y-86206192D01*
X92013306Y-86281569D01*
X92013318Y-86281572D01*
X92206504Y-86319999D01*
X92206508Y-86320000D01*
X92605000Y-86320000D01*
X92605000Y-85620000D01*
X93105000Y-85620000D01*
X93105000Y-86320000D01*
X93503492Y-86320000D01*
X93503495Y-86319999D01*
X93696681Y-86281572D01*
X93696693Y-86281569D01*
X93878671Y-86206192D01*
X93878684Y-86206185D01*
X94042462Y-86096751D01*
X94042466Y-86096748D01*
X94181748Y-85957466D01*
X94181751Y-85957462D01*
X94291185Y-85793684D01*
X94291192Y-85793671D01*
X94366569Y-85611692D01*
X94366569Y-85611690D01*
X94374862Y-85570000D01*
X93571988Y-85570000D01*
X93589205Y-85560060D01*
X93645060Y-85504205D01*
X93684556Y-85435796D01*
X93688479Y-85421153D01*
X106199500Y-85421153D01*
X106199500Y-85578846D01*
X106230261Y-85733489D01*
X106230264Y-85733501D01*
X106290602Y-85879172D01*
X106290609Y-85879185D01*
X106378210Y-86010288D01*
X106378213Y-86010292D01*
X106489707Y-86121786D01*
X106489711Y-86121789D01*
X106620814Y-86209390D01*
X106620827Y-86209397D01*
X106766498Y-86269735D01*
X106766503Y-86269737D01*
X106921153Y-86300499D01*
X106921156Y-86300500D01*
X106921158Y-86300500D01*
X107078844Y-86300500D01*
X107078845Y-86300499D01*
X107233497Y-86269737D01*
X107379179Y-86209394D01*
X107510289Y-86121789D01*
X107621789Y-86010289D01*
X107709394Y-85879179D01*
X107769737Y-85733497D01*
X107800500Y-85578842D01*
X107800500Y-85421158D01*
X107800500Y-85421155D01*
X107800499Y-85421153D01*
X107791957Y-85378210D01*
X107769737Y-85266503D01*
X107757347Y-85236590D01*
X107709397Y-85120827D01*
X107709390Y-85120814D01*
X107674740Y-85068957D01*
X107632775Y-85006153D01*
X118649500Y-85006153D01*
X118649500Y-85163846D01*
X118680261Y-85318489D01*
X118680264Y-85318501D01*
X118740602Y-85464172D01*
X118740609Y-85464185D01*
X118828210Y-85595288D01*
X118828213Y-85595292D01*
X118939707Y-85706786D01*
X118939711Y-85706789D01*
X119070814Y-85794390D01*
X119070827Y-85794397D01*
X119216498Y-85854735D01*
X119216503Y-85854737D01*
X119339411Y-85879185D01*
X119371153Y-85885499D01*
X119371156Y-85885500D01*
X119371158Y-85885500D01*
X119528844Y-85885500D01*
X119528845Y-85885499D01*
X119683497Y-85854737D01*
X119798047Y-85807289D01*
X119829172Y-85794397D01*
X119829172Y-85794396D01*
X119829179Y-85794394D01*
X119960289Y-85706789D01*
X119962312Y-85704766D01*
X119963634Y-85704043D01*
X119964999Y-85702924D01*
X119965211Y-85703182D01*
X120023632Y-85671276D01*
X120093324Y-85676255D01*
X120134939Y-85702999D01*
X120135001Y-85702924D01*
X120135648Y-85703454D01*
X120137688Y-85704766D01*
X120139711Y-85706789D01*
X120270814Y-85794390D01*
X120270827Y-85794397D01*
X120416498Y-85854735D01*
X120416503Y-85854737D01*
X120539411Y-85879185D01*
X120571153Y-85885499D01*
X120571156Y-85885500D01*
X120571158Y-85885500D01*
X120728844Y-85885500D01*
X120728845Y-85885499D01*
X120883497Y-85854737D01*
X120953807Y-85825613D01*
X120998048Y-85807289D01*
X121067517Y-85799820D01*
X121129996Y-85831095D01*
X121165648Y-85891184D01*
X121169500Y-85921850D01*
X121169500Y-86078846D01*
X121200261Y-86233489D01*
X121200264Y-86233501D01*
X121260602Y-86379172D01*
X121260609Y-86379185D01*
X121348210Y-86510288D01*
X121348213Y-86510292D01*
X121459707Y-86621786D01*
X121459711Y-86621789D01*
X121590814Y-86709390D01*
X121590827Y-86709397D01*
X121736498Y-86769735D01*
X121736503Y-86769737D01*
X121891153Y-86800499D01*
X121891156Y-86800500D01*
X121891158Y-86800500D01*
X122048844Y-86800500D01*
X122048845Y-86800499D01*
X122203497Y-86769737D01*
X122349179Y-86709394D01*
X122480289Y-86621789D01*
X122480925Y-86621153D01*
X122537819Y-86564260D01*
X122599142Y-86530775D01*
X122668834Y-86535759D01*
X122724767Y-86577631D01*
X122749184Y-86643095D01*
X122749500Y-86651941D01*
X122749500Y-86778846D01*
X122780261Y-86933489D01*
X122780264Y-86933501D01*
X122840602Y-87079172D01*
X122840609Y-87079185D01*
X122928210Y-87210288D01*
X122928213Y-87210292D01*
X123039707Y-87321786D01*
X123039711Y-87321789D01*
X123170814Y-87409390D01*
X123170827Y-87409397D01*
X123316498Y-87469735D01*
X123316503Y-87469737D01*
X123471153Y-87500499D01*
X123471156Y-87500500D01*
X123471158Y-87500500D01*
X123628844Y-87500500D01*
X123628845Y-87500499D01*
X123783497Y-87469737D01*
X123929179Y-87409394D01*
X124060289Y-87321789D01*
X124171789Y-87210289D01*
X124259394Y-87079179D01*
X124319737Y-86933497D01*
X124350500Y-86778842D01*
X124350500Y-86621158D01*
X124350500Y-86621155D01*
X124350499Y-86621153D01*
X124333061Y-86533489D01*
X124319737Y-86466503D01*
X124283569Y-86379185D01*
X124259397Y-86320827D01*
X124259390Y-86320814D01*
X124234763Y-86283957D01*
X124192798Y-86221153D01*
X134724500Y-86221153D01*
X134724500Y-86378846D01*
X134755261Y-86533489D01*
X134755264Y-86533501D01*
X134815602Y-86679172D01*
X134815609Y-86679185D01*
X134903210Y-86810288D01*
X134903213Y-86810292D01*
X135014707Y-86921786D01*
X135014711Y-86921789D01*
X135145814Y-87009390D01*
X135145827Y-87009397D01*
X135291498Y-87069735D01*
X135291503Y-87069737D01*
X135446153Y-87100499D01*
X135446156Y-87100500D01*
X135446158Y-87100500D01*
X135603844Y-87100500D01*
X135603845Y-87100499D01*
X135758497Y-87069737D01*
X135904179Y-87009394D01*
X136035289Y-86921789D01*
X136146789Y-86810289D01*
X136234394Y-86679179D01*
X136294737Y-86533497D01*
X136325500Y-86378842D01*
X136325500Y-86221158D01*
X136325500Y-86221155D01*
X136325499Y-86221153D01*
X136308509Y-86135740D01*
X136294737Y-86066503D01*
X136294735Y-86066498D01*
X136234397Y-85920827D01*
X136234390Y-85920814D01*
X136146789Y-85789711D01*
X136146786Y-85789707D01*
X136035292Y-85678213D01*
X136035288Y-85678210D01*
X135904185Y-85590609D01*
X135904172Y-85590602D01*
X135758501Y-85530264D01*
X135758489Y-85530261D01*
X135603845Y-85499500D01*
X135603842Y-85499500D01*
X135446158Y-85499500D01*
X135446155Y-85499500D01*
X135291510Y-85530261D01*
X135291498Y-85530264D01*
X135145827Y-85590602D01*
X135145814Y-85590609D01*
X135014711Y-85678210D01*
X135014707Y-85678213D01*
X134903213Y-85789707D01*
X134903210Y-85789711D01*
X134815609Y-85920814D01*
X134815602Y-85920827D01*
X134755264Y-86066498D01*
X134755261Y-86066510D01*
X134724500Y-86221153D01*
X124192798Y-86221153D01*
X124171789Y-86189711D01*
X124171786Y-86189707D01*
X124060292Y-86078213D01*
X124060288Y-86078210D01*
X123929185Y-85990609D01*
X123929172Y-85990602D01*
X123783501Y-85930264D01*
X123783489Y-85930261D01*
X123628845Y-85899500D01*
X123628842Y-85899500D01*
X123471158Y-85899500D01*
X123471155Y-85899500D01*
X123316510Y-85930261D01*
X123316498Y-85930264D01*
X123170827Y-85990602D01*
X123170814Y-85990609D01*
X123039711Y-86078210D01*
X123039707Y-86078213D01*
X122982181Y-86135740D01*
X122920858Y-86169225D01*
X122851166Y-86164241D01*
X122795233Y-86122369D01*
X122770816Y-86056905D01*
X122770500Y-86048059D01*
X122770500Y-85921155D01*
X122770499Y-85921153D01*
X122757288Y-85854737D01*
X122739737Y-85766503D01*
X122714165Y-85704766D01*
X122679397Y-85620827D01*
X122679390Y-85620814D01*
X122591789Y-85489711D01*
X122591786Y-85489707D01*
X122480292Y-85378213D01*
X122480288Y-85378210D01*
X122349185Y-85290609D01*
X122349172Y-85290602D01*
X122203501Y-85230264D01*
X122203489Y-85230261D01*
X122048845Y-85199500D01*
X122048842Y-85199500D01*
X121891158Y-85199500D01*
X121891155Y-85199500D01*
X121736510Y-85230261D01*
X121736507Y-85230262D01*
X121736506Y-85230262D01*
X121736503Y-85230263D01*
X121679431Y-85253903D01*
X121621952Y-85277711D01*
X121552482Y-85285179D01*
X121490003Y-85253903D01*
X121454351Y-85193814D01*
X121450500Y-85163149D01*
X121450500Y-85006155D01*
X121450499Y-85006153D01*
X121447228Y-84989707D01*
X121419737Y-84851503D01*
X121419735Y-84851498D01*
X121359397Y-84705827D01*
X121359390Y-84705814D01*
X121271789Y-84574711D01*
X121271786Y-84574707D01*
X121160292Y-84463213D01*
X121160288Y-84463210D01*
X121146892Y-84454259D01*
X121029185Y-84375609D01*
X121029172Y-84375602D01*
X120984851Y-84357244D01*
X122735591Y-84357244D01*
X122735591Y-84514937D01*
X122766352Y-84669580D01*
X122766355Y-84669592D01*
X122826693Y-84815263D01*
X122826700Y-84815276D01*
X122914301Y-84946379D01*
X122914304Y-84946383D01*
X123025798Y-85057877D01*
X123025802Y-85057880D01*
X123156905Y-85145481D01*
X123156918Y-85145488D01*
X123289731Y-85200500D01*
X123302594Y-85205828D01*
X123457244Y-85236590D01*
X123457247Y-85236591D01*
X123457249Y-85236591D01*
X123614935Y-85236591D01*
X123614936Y-85236590D01*
X123769588Y-85205828D01*
X123915270Y-85145485D01*
X124046380Y-85057880D01*
X124157880Y-84946380D01*
X124245485Y-84815270D01*
X124305828Y-84669588D01*
X124336591Y-84514933D01*
X124336591Y-84357249D01*
X124332328Y-84335820D01*
X124329411Y-84321153D01*
X129049500Y-84321153D01*
X129049500Y-84478846D01*
X129080261Y-84633489D01*
X129080264Y-84633501D01*
X129140602Y-84779172D01*
X129140609Y-84779185D01*
X129228210Y-84910288D01*
X129228213Y-84910292D01*
X129339707Y-85021786D01*
X129339711Y-85021789D01*
X129470814Y-85109390D01*
X129470827Y-85109397D01*
X129616498Y-85169735D01*
X129616503Y-85169737D01*
X129766131Y-85199500D01*
X129771153Y-85200499D01*
X129771156Y-85200500D01*
X129771158Y-85200500D01*
X129928844Y-85200500D01*
X129928845Y-85200499D01*
X130083497Y-85169737D01*
X130201592Y-85120821D01*
X130229172Y-85109397D01*
X130229172Y-85109396D01*
X130229179Y-85109394D01*
X130360289Y-85021789D01*
X130471789Y-84910289D01*
X130559394Y-84779179D01*
X130619737Y-84633497D01*
X130650500Y-84478842D01*
X130650500Y-84321158D01*
X130650500Y-84321155D01*
X130650499Y-84321153D01*
X130624264Y-84189257D01*
X130620662Y-84171153D01*
X153649500Y-84171153D01*
X153649500Y-84328846D01*
X153680261Y-84483489D01*
X153680264Y-84483501D01*
X153740602Y-84629172D01*
X153740609Y-84629185D01*
X153828210Y-84760288D01*
X153828213Y-84760292D01*
X153939707Y-84871786D01*
X153939711Y-84871789D01*
X154070814Y-84959390D01*
X154070827Y-84959397D01*
X154183720Y-85006158D01*
X154216503Y-85019737D01*
X154371153Y-85050499D01*
X154371156Y-85050500D01*
X154371158Y-85050500D01*
X154528844Y-85050500D01*
X154528845Y-85050499D01*
X154683497Y-85019737D01*
X154829179Y-84959394D01*
X154960289Y-84871789D01*
X155071789Y-84760289D01*
X155159394Y-84629179D01*
X155219737Y-84483497D01*
X155250500Y-84328842D01*
X155250500Y-84171158D01*
X155250500Y-84171155D01*
X155250499Y-84171153D01*
X155234921Y-84092838D01*
X155219737Y-84016503D01*
X155219735Y-84016498D01*
X155159397Y-83870827D01*
X155159390Y-83870814D01*
X155071789Y-83739711D01*
X155071786Y-83739707D01*
X154960292Y-83628213D01*
X154960288Y-83628210D01*
X154829185Y-83540609D01*
X154829172Y-83540602D01*
X154683501Y-83480264D01*
X154683489Y-83480261D01*
X154528845Y-83449500D01*
X154528842Y-83449500D01*
X154371158Y-83449500D01*
X154371155Y-83449500D01*
X154216510Y-83480261D01*
X154216498Y-83480264D01*
X154070827Y-83540602D01*
X154070814Y-83540609D01*
X153939711Y-83628210D01*
X153939707Y-83628213D01*
X153828213Y-83739707D01*
X153828210Y-83739711D01*
X153740609Y-83870814D01*
X153740602Y-83870827D01*
X153680264Y-84016498D01*
X153680261Y-84016510D01*
X153649500Y-84171153D01*
X130620662Y-84171153D01*
X130619738Y-84166507D01*
X130619735Y-84166498D01*
X130559397Y-84020827D01*
X130559390Y-84020814D01*
X130471789Y-83889711D01*
X130471786Y-83889707D01*
X130360292Y-83778213D01*
X130360288Y-83778210D01*
X130229185Y-83690609D01*
X130229172Y-83690602D01*
X130083501Y-83630264D01*
X130083489Y-83630261D01*
X129928845Y-83599500D01*
X129928842Y-83599500D01*
X129771158Y-83599500D01*
X129771155Y-83599500D01*
X129616510Y-83630261D01*
X129616498Y-83630264D01*
X129470827Y-83690602D01*
X129470814Y-83690609D01*
X129339711Y-83778210D01*
X129339707Y-83778213D01*
X129228213Y-83889707D01*
X129228210Y-83889711D01*
X129140609Y-84020814D01*
X129140602Y-84020827D01*
X129080264Y-84166498D01*
X129080261Y-84166510D01*
X129049500Y-84321153D01*
X124329411Y-84321153D01*
X124305829Y-84202599D01*
X124305828Y-84202598D01*
X124305828Y-84202594D01*
X124290882Y-84166510D01*
X124245488Y-84056918D01*
X124245481Y-84056905D01*
X124157880Y-83925802D01*
X124157877Y-83925798D01*
X124046383Y-83814304D01*
X124046379Y-83814301D01*
X123915276Y-83726700D01*
X123915263Y-83726693D01*
X123769592Y-83666355D01*
X123769580Y-83666352D01*
X123614936Y-83635591D01*
X123614933Y-83635591D01*
X123457249Y-83635591D01*
X123457246Y-83635591D01*
X123302601Y-83666352D01*
X123302589Y-83666355D01*
X123156918Y-83726693D01*
X123156905Y-83726700D01*
X123025802Y-83814301D01*
X123025798Y-83814304D01*
X122914304Y-83925798D01*
X122914301Y-83925802D01*
X122826700Y-84056905D01*
X122826693Y-84056918D01*
X122766355Y-84202589D01*
X122766352Y-84202601D01*
X122735591Y-84357244D01*
X120984851Y-84357244D01*
X120883501Y-84315264D01*
X120883489Y-84315261D01*
X120728845Y-84284500D01*
X120728842Y-84284500D01*
X120571158Y-84284500D01*
X120571155Y-84284500D01*
X120416510Y-84315261D01*
X120416498Y-84315264D01*
X120270827Y-84375602D01*
X120270814Y-84375609D01*
X120139711Y-84463210D01*
X120139707Y-84463213D01*
X120137681Y-84465240D01*
X120136357Y-84465962D01*
X120135001Y-84467076D01*
X120134789Y-84466818D01*
X120076358Y-84498725D01*
X120006666Y-84493741D01*
X119965060Y-84467001D01*
X119964999Y-84467076D01*
X119964360Y-84466552D01*
X119962319Y-84465240D01*
X119960292Y-84463213D01*
X119960288Y-84463210D01*
X119829185Y-84375609D01*
X119829172Y-84375602D01*
X119683501Y-84315264D01*
X119683489Y-84315261D01*
X119528845Y-84284500D01*
X119528842Y-84284500D01*
X119371158Y-84284500D01*
X119371155Y-84284500D01*
X119216510Y-84315261D01*
X119216498Y-84315264D01*
X119070827Y-84375602D01*
X119070814Y-84375609D01*
X118939711Y-84463210D01*
X118939707Y-84463213D01*
X118828213Y-84574707D01*
X118828210Y-84574711D01*
X118740609Y-84705814D01*
X118740602Y-84705827D01*
X118680264Y-84851498D01*
X118680261Y-84851510D01*
X118649500Y-85006153D01*
X107632775Y-85006153D01*
X107621789Y-84989711D01*
X107621786Y-84989707D01*
X107510292Y-84878213D01*
X107510288Y-84878210D01*
X107379185Y-84790609D01*
X107379172Y-84790602D01*
X107233501Y-84730264D01*
X107233489Y-84730261D01*
X107078845Y-84699500D01*
X107078842Y-84699500D01*
X106921158Y-84699500D01*
X106921155Y-84699500D01*
X106766510Y-84730261D01*
X106766498Y-84730264D01*
X106620827Y-84790602D01*
X106620814Y-84790609D01*
X106489711Y-84878210D01*
X106489707Y-84878213D01*
X106378213Y-84989707D01*
X106378210Y-84989711D01*
X106290609Y-85120814D01*
X106290602Y-85120827D01*
X106230264Y-85266498D01*
X106230261Y-85266510D01*
X106199500Y-85421153D01*
X93688479Y-85421153D01*
X93705000Y-85359496D01*
X93705000Y-85280504D01*
X93684556Y-85204204D01*
X93645060Y-85135795D01*
X93589205Y-85079940D01*
X93571988Y-85070000D01*
X94374862Y-85070000D01*
X94366569Y-85028309D01*
X94366569Y-85028307D01*
X94291192Y-84846328D01*
X94291185Y-84846315D01*
X94181751Y-84682537D01*
X94181748Y-84682533D01*
X94042466Y-84543251D01*
X94042462Y-84543248D01*
X93878684Y-84433814D01*
X93878671Y-84433807D01*
X93696693Y-84358430D01*
X93696681Y-84358427D01*
X93503495Y-84320000D01*
X93105000Y-84320000D01*
X93105000Y-85020000D01*
X92605000Y-85020000D01*
X92605000Y-84424049D01*
X92624685Y-84357010D01*
X92641870Y-84335820D01*
X92653203Y-84324627D01*
X92677665Y-84310505D01*
X92775505Y-84212665D01*
X92844688Y-84092836D01*
X92880500Y-83959183D01*
X92880500Y-83820817D01*
X92844688Y-83687164D01*
X92794211Y-83599735D01*
X92775507Y-83567338D01*
X92775503Y-83567333D01*
X92677666Y-83469496D01*
X92677661Y-83469492D01*
X92557838Y-83400313D01*
X92557837Y-83400312D01*
X92557836Y-83400312D01*
X92424183Y-83364500D01*
X92285817Y-83364500D01*
X92152164Y-83400312D01*
X92152161Y-83400313D01*
X92032338Y-83469492D01*
X92032333Y-83469496D01*
X91934496Y-83567333D01*
X91934492Y-83567338D01*
X91865313Y-83687161D01*
X91865312Y-83687164D01*
X91829500Y-83820817D01*
X91829500Y-83959183D01*
X91855687Y-84056912D01*
X91865312Y-84092835D01*
X91865313Y-84092838D01*
X91934492Y-84212661D01*
X91939441Y-84219110D01*
X91936813Y-84221125D01*
X91962911Y-84268919D01*
X91957927Y-84338611D01*
X91916055Y-84394544D01*
X91889197Y-84409838D01*
X91831328Y-84433807D01*
X91831315Y-84433814D01*
X91667537Y-84543248D01*
X91667533Y-84543251D01*
X91528251Y-84682533D01*
X91528248Y-84682537D01*
X91418814Y-84846315D01*
X91418807Y-84846328D01*
X91343430Y-85028307D01*
X91343430Y-85028309D01*
X91335138Y-85070000D01*
X89944862Y-85070000D01*
X89936569Y-85028309D01*
X89936569Y-85028307D01*
X89861192Y-84846328D01*
X89861185Y-84846315D01*
X89751751Y-84682537D01*
X89751748Y-84682533D01*
X89612466Y-84543251D01*
X89612462Y-84543248D01*
X89448684Y-84433814D01*
X89448671Y-84433807D01*
X89266693Y-84358430D01*
X89266681Y-84358427D01*
X89073495Y-84320000D01*
X88925000Y-84320000D01*
X88925000Y-85020000D01*
X88425000Y-85020000D01*
X88425000Y-84320000D01*
X88276504Y-84320000D01*
X88083318Y-84358427D01*
X88083306Y-84358430D01*
X88021952Y-84383844D01*
X87952483Y-84391313D01*
X87890004Y-84360037D01*
X87854352Y-84299948D01*
X87850500Y-84269283D01*
X87850500Y-82751153D01*
X101188369Y-82751153D01*
X101188369Y-82908846D01*
X101219130Y-83063489D01*
X101219133Y-83063501D01*
X101279471Y-83209172D01*
X101279478Y-83209185D01*
X101367079Y-83340288D01*
X101367082Y-83340292D01*
X101478576Y-83451786D01*
X101478580Y-83451789D01*
X101609683Y-83539390D01*
X101609696Y-83539397D01*
X101677153Y-83567338D01*
X101755372Y-83599737D01*
X101908836Y-83630263D01*
X101910022Y-83630499D01*
X101910025Y-83630500D01*
X101910027Y-83630500D01*
X102067713Y-83630500D01*
X102067714Y-83630499D01*
X102222366Y-83599737D01*
X102368048Y-83539394D01*
X102499158Y-83451789D01*
X102610658Y-83340289D01*
X102696172Y-83212309D01*
X102749784Y-83167503D01*
X102775074Y-83159583D01*
X102876641Y-83139381D01*
X103022323Y-83079038D01*
X103153433Y-82991433D01*
X103264933Y-82879933D01*
X103352538Y-82748823D01*
X103412881Y-82603141D01*
X103443644Y-82448486D01*
X103443644Y-82290802D01*
X103443644Y-82290799D01*
X103413500Y-82139258D01*
X103413499Y-82139256D01*
X103412881Y-82136147D01*
X103406933Y-82121786D01*
X103406671Y-82121153D01*
X115949500Y-82121153D01*
X115949500Y-82278846D01*
X115980261Y-82433489D01*
X115980264Y-82433501D01*
X116040602Y-82579172D01*
X116040609Y-82579185D01*
X116128210Y-82710288D01*
X116128213Y-82710292D01*
X116239707Y-82821786D01*
X116239711Y-82821789D01*
X116370814Y-82909390D01*
X116370827Y-82909397D01*
X116516498Y-82969735D01*
X116516503Y-82969737D01*
X116671153Y-83000499D01*
X116671156Y-83000500D01*
X116671158Y-83000500D01*
X116828844Y-83000500D01*
X116828845Y-83000499D01*
X116983497Y-82969737D01*
X117129179Y-82909394D01*
X117260289Y-82821789D01*
X117371789Y-82710289D01*
X117459394Y-82579179D01*
X117519737Y-82433497D01*
X117550500Y-82278842D01*
X117550500Y-82121158D01*
X117550500Y-82121155D01*
X117550499Y-82121153D01*
X117538387Y-82060261D01*
X117519737Y-81966503D01*
X117483569Y-81879185D01*
X117459397Y-81820827D01*
X117459390Y-81820814D01*
X117371789Y-81689711D01*
X117371786Y-81689707D01*
X117260292Y-81578213D01*
X117260288Y-81578210D01*
X117170429Y-81518168D01*
X117129185Y-81490609D01*
X117129172Y-81490602D01*
X116983501Y-81430264D01*
X116983489Y-81430261D01*
X116937701Y-81421153D01*
X152549500Y-81421153D01*
X152549500Y-81578846D01*
X152580261Y-81733489D01*
X152580264Y-81733501D01*
X152640602Y-81879172D01*
X152640609Y-81879185D01*
X152728210Y-82010288D01*
X152728213Y-82010292D01*
X152839707Y-82121786D01*
X152839711Y-82121789D01*
X152970814Y-82209390D01*
X152970827Y-82209397D01*
X153116498Y-82269735D01*
X153116503Y-82269737D01*
X153271153Y-82300499D01*
X153271156Y-82300500D01*
X153271158Y-82300500D01*
X153428844Y-82300500D01*
X153428845Y-82300499D01*
X153583497Y-82269737D01*
X153648033Y-82243005D01*
X153727548Y-82210070D01*
X153797017Y-82202601D01*
X153822452Y-82210070D01*
X153966498Y-82269735D01*
X153966503Y-82269737D01*
X154121153Y-82300499D01*
X154121156Y-82300500D01*
X154121158Y-82300500D01*
X154278844Y-82300500D01*
X154278845Y-82300499D01*
X154433497Y-82269737D01*
X154579179Y-82209394D01*
X154710289Y-82121789D01*
X154821789Y-82010289D01*
X154909394Y-81879179D01*
X154969737Y-81733497D01*
X155000500Y-81578842D01*
X155000500Y-81421158D01*
X155000500Y-81421155D01*
X155000499Y-81421153D01*
X154969738Y-81266510D01*
X154969737Y-81266503D01*
X154969735Y-81266498D01*
X154909397Y-81120827D01*
X154909390Y-81120814D01*
X154821789Y-80989711D01*
X154821786Y-80989707D01*
X154710292Y-80878213D01*
X154710288Y-80878210D01*
X154579185Y-80790609D01*
X154579172Y-80790602D01*
X154433501Y-80730264D01*
X154433489Y-80730261D01*
X154278845Y-80699500D01*
X154278842Y-80699500D01*
X154121158Y-80699500D01*
X154121155Y-80699500D01*
X153966510Y-80730261D01*
X153966498Y-80730264D01*
X153822452Y-80789930D01*
X153752983Y-80797399D01*
X153727548Y-80789930D01*
X153583501Y-80730264D01*
X153583489Y-80730261D01*
X153428845Y-80699500D01*
X153428842Y-80699500D01*
X153271158Y-80699500D01*
X153271155Y-80699500D01*
X153116510Y-80730261D01*
X153116498Y-80730264D01*
X152970827Y-80790602D01*
X152970814Y-80790609D01*
X152839711Y-80878210D01*
X152839707Y-80878213D01*
X152728213Y-80989707D01*
X152728210Y-80989711D01*
X152640609Y-81120814D01*
X152640602Y-81120827D01*
X152580264Y-81266498D01*
X152580261Y-81266510D01*
X152549500Y-81421153D01*
X116937701Y-81421153D01*
X116828845Y-81399500D01*
X116828842Y-81399500D01*
X116671158Y-81399500D01*
X116671155Y-81399500D01*
X116516510Y-81430261D01*
X116516498Y-81430264D01*
X116370827Y-81490602D01*
X116370814Y-81490609D01*
X116239711Y-81578210D01*
X116239707Y-81578213D01*
X116128213Y-81689707D01*
X116128210Y-81689711D01*
X116040609Y-81820814D01*
X116040602Y-81820827D01*
X115980264Y-81966498D01*
X115980261Y-81966510D01*
X115949500Y-82121153D01*
X103406671Y-82121153D01*
X103352541Y-81990471D01*
X103352534Y-81990458D01*
X103264933Y-81859355D01*
X103264930Y-81859351D01*
X103153436Y-81747857D01*
X103153432Y-81747854D01*
X103022329Y-81660253D01*
X103022316Y-81660246D01*
X102876645Y-81599908D01*
X102876633Y-81599905D01*
X102721989Y-81569144D01*
X102721986Y-81569144D01*
X102564302Y-81569144D01*
X102564299Y-81569144D01*
X102409654Y-81599905D01*
X102409642Y-81599908D01*
X102263971Y-81660246D01*
X102263958Y-81660253D01*
X102132855Y-81747854D01*
X102132851Y-81747857D01*
X102021357Y-81859351D01*
X102021354Y-81859355D01*
X101935840Y-81987335D01*
X101882227Y-82032140D01*
X101856930Y-82040061D01*
X101755377Y-82060261D01*
X101755367Y-82060264D01*
X101609696Y-82120602D01*
X101609683Y-82120609D01*
X101478580Y-82208210D01*
X101478576Y-82208213D01*
X101367082Y-82319707D01*
X101367079Y-82319711D01*
X101279478Y-82450814D01*
X101279471Y-82450827D01*
X101219133Y-82596498D01*
X101219130Y-82596510D01*
X101188369Y-82751153D01*
X87850500Y-82751153D01*
X87850500Y-80071153D01*
X105299500Y-80071153D01*
X105299500Y-80228846D01*
X105330261Y-80383489D01*
X105330264Y-80383501D01*
X105390602Y-80529172D01*
X105390609Y-80529185D01*
X105478210Y-80660288D01*
X105478213Y-80660292D01*
X105589707Y-80771786D01*
X105589711Y-80771789D01*
X105720814Y-80859390D01*
X105720827Y-80859397D01*
X105766254Y-80878213D01*
X105866503Y-80919737D01*
X106021153Y-80950499D01*
X106021156Y-80950500D01*
X106021158Y-80950500D01*
X106178844Y-80950500D01*
X106178845Y-80950499D01*
X106333497Y-80919737D01*
X106479179Y-80859394D01*
X106610289Y-80771789D01*
X106721789Y-80660289D01*
X106809394Y-80529179D01*
X106869737Y-80383497D01*
X106900500Y-80228842D01*
X106900500Y-80071158D01*
X106900500Y-80071155D01*
X106900499Y-80071153D01*
X106878447Y-79960292D01*
X106869737Y-79916503D01*
X106833569Y-79829185D01*
X106809397Y-79770827D01*
X106809390Y-79770814D01*
X106721789Y-79639711D01*
X106721786Y-79639707D01*
X106610292Y-79528213D01*
X106610288Y-79528210D01*
X106520429Y-79468168D01*
X106479185Y-79440609D01*
X106479172Y-79440602D01*
X106333501Y-79380264D01*
X106333489Y-79380261D01*
X106287701Y-79371153D01*
X110649500Y-79371153D01*
X110649500Y-79528846D01*
X110680261Y-79683489D01*
X110680264Y-79683501D01*
X110740602Y-79829172D01*
X110740609Y-79829185D01*
X110828210Y-79960288D01*
X110828213Y-79960292D01*
X110939707Y-80071786D01*
X110939711Y-80071789D01*
X111070814Y-80159390D01*
X111070827Y-80159397D01*
X111216498Y-80219735D01*
X111216503Y-80219737D01*
X111371153Y-80250499D01*
X111371156Y-80250500D01*
X111371158Y-80250500D01*
X111528844Y-80250500D01*
X111528845Y-80250499D01*
X111683497Y-80219737D01*
X111829179Y-80159394D01*
X111960289Y-80071789D01*
X111960925Y-80071153D01*
X133574500Y-80071153D01*
X133574500Y-80228846D01*
X133605261Y-80383489D01*
X133605264Y-80383501D01*
X133665602Y-80529172D01*
X133665609Y-80529185D01*
X133753210Y-80660288D01*
X133753213Y-80660292D01*
X133864707Y-80771786D01*
X133864711Y-80771789D01*
X133995814Y-80859390D01*
X133995827Y-80859397D01*
X134041254Y-80878213D01*
X134141503Y-80919737D01*
X134296153Y-80950499D01*
X134296156Y-80950500D01*
X134296158Y-80950500D01*
X134453844Y-80950500D01*
X134453845Y-80950499D01*
X134608497Y-80919737D01*
X134754179Y-80859394D01*
X134885289Y-80771789D01*
X134996789Y-80660289D01*
X135084394Y-80529179D01*
X135144737Y-80383497D01*
X135175500Y-80228842D01*
X135175500Y-80071158D01*
X135175500Y-80071155D01*
X135175499Y-80071153D01*
X137699500Y-80071153D01*
X137699500Y-80228846D01*
X137730261Y-80383489D01*
X137730264Y-80383501D01*
X137790602Y-80529172D01*
X137790609Y-80529185D01*
X137878210Y-80660288D01*
X137878213Y-80660292D01*
X137989707Y-80771786D01*
X137989711Y-80771789D01*
X138120814Y-80859390D01*
X138120827Y-80859397D01*
X138166254Y-80878213D01*
X138266503Y-80919737D01*
X138421153Y-80950499D01*
X138421156Y-80950500D01*
X138421158Y-80950500D01*
X138578844Y-80950500D01*
X138578845Y-80950499D01*
X138733497Y-80919737D01*
X138879179Y-80859394D01*
X139010289Y-80771789D01*
X139121789Y-80660289D01*
X139209394Y-80529179D01*
X139269737Y-80383497D01*
X139300500Y-80228842D01*
X139300500Y-80071158D01*
X139300500Y-80071155D01*
X139300499Y-80071153D01*
X139278447Y-79960292D01*
X139269737Y-79916503D01*
X139233569Y-79829185D01*
X139209397Y-79770827D01*
X139209390Y-79770814D01*
X139121789Y-79639711D01*
X139121786Y-79639707D01*
X139010292Y-79528213D01*
X139010288Y-79528210D01*
X138924897Y-79471153D01*
X153449500Y-79471153D01*
X153449500Y-79628846D01*
X153480261Y-79783489D01*
X153480264Y-79783501D01*
X153540602Y-79929172D01*
X153540609Y-79929185D01*
X153628210Y-80060288D01*
X153628213Y-80060292D01*
X153739707Y-80171786D01*
X153739711Y-80171789D01*
X153870814Y-80259390D01*
X153870827Y-80259397D01*
X154016498Y-80319735D01*
X154016503Y-80319737D01*
X154171153Y-80350499D01*
X154171156Y-80350500D01*
X154171158Y-80350500D01*
X154328844Y-80350500D01*
X154328845Y-80350499D01*
X154483497Y-80319737D01*
X154629179Y-80259394D01*
X154760289Y-80171789D01*
X154871789Y-80060289D01*
X154959394Y-79929179D01*
X155019737Y-79783497D01*
X155050500Y-79628842D01*
X155050500Y-79471158D01*
X155050500Y-79471155D01*
X155050499Y-79471153D01*
X155032419Y-79380261D01*
X155019737Y-79316503D01*
X154978314Y-79216498D01*
X154959397Y-79170827D01*
X154959390Y-79170814D01*
X154871789Y-79039711D01*
X154871786Y-79039707D01*
X154760292Y-78928213D01*
X154760288Y-78928210D01*
X154629185Y-78840609D01*
X154629172Y-78840602D01*
X154483501Y-78780264D01*
X154483489Y-78780261D01*
X154328845Y-78749500D01*
X154328842Y-78749500D01*
X154171158Y-78749500D01*
X154171155Y-78749500D01*
X154016510Y-78780261D01*
X154016498Y-78780264D01*
X153870827Y-78840602D01*
X153870814Y-78840609D01*
X153739711Y-78928210D01*
X153739707Y-78928213D01*
X153628213Y-79039707D01*
X153628210Y-79039711D01*
X153540609Y-79170814D01*
X153540602Y-79170827D01*
X153480264Y-79316498D01*
X153480261Y-79316510D01*
X153449500Y-79471153D01*
X138924897Y-79471153D01*
X138879185Y-79440609D01*
X138879172Y-79440602D01*
X138733501Y-79380264D01*
X138733489Y-79380261D01*
X138578845Y-79349500D01*
X138578842Y-79349500D01*
X138421158Y-79349500D01*
X138421155Y-79349500D01*
X138266510Y-79380261D01*
X138266498Y-79380264D01*
X138120827Y-79440602D01*
X138120814Y-79440609D01*
X137989711Y-79528210D01*
X137989707Y-79528213D01*
X137878213Y-79639707D01*
X137878210Y-79639711D01*
X137790609Y-79770814D01*
X137790602Y-79770827D01*
X137730264Y-79916498D01*
X137730261Y-79916510D01*
X137699500Y-80071153D01*
X135175499Y-80071153D01*
X135153447Y-79960292D01*
X135144737Y-79916503D01*
X135108569Y-79829185D01*
X135084397Y-79770827D01*
X135084390Y-79770814D01*
X134996789Y-79639711D01*
X134996786Y-79639707D01*
X134885292Y-79528213D01*
X134885288Y-79528210D01*
X134754185Y-79440609D01*
X134754172Y-79440602D01*
X134608501Y-79380264D01*
X134608489Y-79380261D01*
X134453845Y-79349500D01*
X134453842Y-79349500D01*
X134296158Y-79349500D01*
X134296155Y-79349500D01*
X134141510Y-79380261D01*
X134141498Y-79380264D01*
X133995827Y-79440602D01*
X133995814Y-79440609D01*
X133864711Y-79528210D01*
X133864707Y-79528213D01*
X133753213Y-79639707D01*
X133753210Y-79639711D01*
X133665609Y-79770814D01*
X133665602Y-79770827D01*
X133605264Y-79916498D01*
X133605261Y-79916510D01*
X133574500Y-80071153D01*
X111960925Y-80071153D01*
X111971790Y-80060288D01*
X112054694Y-79977385D01*
X112071786Y-79960292D01*
X112071789Y-79960289D01*
X112159394Y-79829179D01*
X112219737Y-79683497D01*
X112250500Y-79528842D01*
X112250500Y-79371158D01*
X112250500Y-79371155D01*
X112250499Y-79371153D01*
X112219738Y-79216510D01*
X112219737Y-79216503D01*
X112200812Y-79170814D01*
X112159397Y-79070827D01*
X112159390Y-79070814D01*
X112071789Y-78939711D01*
X112071786Y-78939707D01*
X111960292Y-78828213D01*
X111960288Y-78828210D01*
X111829185Y-78740609D01*
X111829172Y-78740602D01*
X111683501Y-78680264D01*
X111683489Y-78680261D01*
X111528845Y-78649500D01*
X111528842Y-78649500D01*
X111371158Y-78649500D01*
X111371155Y-78649500D01*
X111216510Y-78680261D01*
X111216498Y-78680264D01*
X111070827Y-78740602D01*
X111070814Y-78740609D01*
X110939711Y-78828210D01*
X110939707Y-78828213D01*
X110828213Y-78939707D01*
X110828210Y-78939711D01*
X110740609Y-79070814D01*
X110740602Y-79070827D01*
X110680264Y-79216498D01*
X110680261Y-79216510D01*
X110649500Y-79371153D01*
X106287701Y-79371153D01*
X106178845Y-79349500D01*
X106178842Y-79349500D01*
X106021158Y-79349500D01*
X106021155Y-79349500D01*
X105866510Y-79380261D01*
X105866498Y-79380264D01*
X105720827Y-79440602D01*
X105720814Y-79440609D01*
X105589711Y-79528210D01*
X105589707Y-79528213D01*
X105478213Y-79639707D01*
X105478210Y-79639711D01*
X105390609Y-79770814D01*
X105390602Y-79770827D01*
X105330264Y-79916498D01*
X105330261Y-79916510D01*
X105299500Y-80071153D01*
X87850500Y-80071153D01*
X87850500Y-77730716D01*
X87870185Y-77663677D01*
X87922989Y-77617922D01*
X87992147Y-77607978D01*
X88021953Y-77616155D01*
X88083310Y-77641570D01*
X88083318Y-77641572D01*
X88276504Y-77679999D01*
X88276508Y-77680000D01*
X88425000Y-77680000D01*
X88425000Y-76980000D01*
X88925000Y-76980000D01*
X88925000Y-77680000D01*
X89073492Y-77680000D01*
X89073495Y-77679999D01*
X89266681Y-77641572D01*
X89266693Y-77641569D01*
X89448671Y-77566192D01*
X89448684Y-77566185D01*
X89612462Y-77456751D01*
X89612466Y-77456748D01*
X89751748Y-77317466D01*
X89751751Y-77317462D01*
X89861185Y-77153684D01*
X89861192Y-77153671D01*
X89936569Y-76971692D01*
X89936569Y-76971690D01*
X89944862Y-76930000D01*
X89141988Y-76930000D01*
X89159205Y-76920060D01*
X89215060Y-76864205D01*
X89254556Y-76795796D01*
X89275000Y-76719496D01*
X89275000Y-76640504D01*
X89254556Y-76564204D01*
X89215060Y-76495795D01*
X89159205Y-76439940D01*
X89141988Y-76430000D01*
X89944862Y-76430000D01*
X89936569Y-76388309D01*
X89936569Y-76388307D01*
X89861192Y-76206328D01*
X89861185Y-76206315D01*
X89751751Y-76042537D01*
X89751748Y-76042533D01*
X89612466Y-75903251D01*
X89612462Y-75903248D01*
X89448684Y-75793814D01*
X89448671Y-75793807D01*
X89316500Y-75739061D01*
X89262096Y-75695220D01*
X89240031Y-75628926D01*
X89257310Y-75561227D01*
X89308447Y-75513616D01*
X89363952Y-75500500D01*
X91916048Y-75500500D01*
X91983087Y-75520185D01*
G37*
%TD.AperFunction*%
%TD*%
M02*
